<svg xmlns="http://www.w3.org/2000/svg" width="70.897" height="68.015" viewBox="0 0 70.897 68.015"><path d="M508.749,425.413l-5.367-5.49a27.534,27.534,0,0,1-8.167,5.64,33.453,33.453,0,0,1-9.525,2.348,24.767,24.767,0,0,1-8.747-.544,20.9,20.9,0,0,1-7.425-3.449,19.222,19.222,0,0,1-5.345-6.073,21.3,21.3,0,0,1-2.586-8.319,13.812,13.812,0,0,1,.617-6.042,20.02,20.02,0,0,1,2.748-5.277,27.221,27.221,0,0,1,4.148-4.525,45.377,45.377,0,0,1,4.83-3.693,21.373,21.373,0,0,1-4.22-4.928,15.32,15.32,0,0,1-1.209-13.222,16.536,16.536,0,0,1,3.752-5.658,20.28,20.28,0,0,1,5.755-3.974,21.751,21.751,0,0,1,6.887-1.924,32.948,32.948,0,0,1,8.379.085,18.658,18.658,0,0,1,6.849,2.334,14.346,14.346,0,0,1,4.829,4.681,16.572,16.572,0,0,1,2.331,7.215,13.764,13.764,0,0,1-.43,5.252,19.287,19.287,0,0,1-2.112,4.847,23.1,23.1,0,0,1-3.359,4.257,26.183,26.183,0,0,1-4.09,3.386l35.1,33.086ZM484.2,400.734q-.932.644-1.937,1.432a14.411,14.411,0,0,0-1.858,1.741A7.29,7.29,0,0,0,479.08,406a4.638,4.638,0,0,0-.342,2.3,5.56,5.56,0,0,0,2.355,4.09,6.191,6.191,0,0,0,4.411,1.241,7.616,7.616,0,0,0,3.92-1.6,21.885,21.885,0,0,0,3.215-3.065Zm.411-20.5q1.534,1.554,2.948,2.848a11.6,11.6,0,0,0,3.221-3.02,5.724,5.724,0,0,0,1.186-4.157,4.238,4.238,0,0,0-1.544-2.91,4.154,4.154,0,0,0-3.238-.915,5.29,5.29,0,0,0-3.111,1.514,3.841,3.841,0,0,0-1.179,3.386A5.5,5.5,0,0,0,484.607,380.23Z" transform="translate(-461.494 -360.058)"/><circle cx="7.299" cy="7.299" r="7.299" transform="translate(46.673 28.911)"/></svg>