<svg xmlns="http://www.w3.org/2000/svg" width="23.336" height="25.762" viewBox="0 0 23.336 25.762"><g transform="translate(-1430.269 -374.158)"><path d="M0,0H22a0,0,0,0,1,0,0V11a3,3,0,0,1-3,3H2a2,2,0,0,1-2-2V0A0,0,0,0,1,0,0Z" transform="translate(1431 385.171)" fill="#fff"/><path d="M2,0H19a3,3,0,0,1,3,3V7a0,0,0,0,1,0,0H0A0,0,0,0,1,0,7V2A2,2,0,0,1,2,0Z" transform="translate(1431 377.171)" fill="#ed9075"/><g transform="translate(1431.019 374.908)"><path d="M6.926,6H23.91a2.426,2.426,0,0,1,2.426,2.426V25.41a2.426,2.426,0,0,1-2.426,2.426H6.926A2.426,2.426,0,0,1,4.5,25.41V8.426A2.426,2.426,0,0,1,6.926,6Z" transform="translate(-4.5 -3.574)" fill="none" stroke="#000" stroke-linecap="round" stroke-linejoin="round" stroke-width="1.5"/><path d="M24,3V7.852" transform="translate(-8.229 -3)" fill="none" stroke="#000" stroke-linecap="round" stroke-linejoin="round" stroke-width="1.5"/><path d="M12,3V7.852" transform="translate(-5.934 -3)" fill="none" stroke="#000" stroke-linecap="round" stroke-linejoin="round" stroke-width="1.5"/><path d="M4.5,15H26.336" transform="translate(-4.5 -5.295)" fill="none" stroke="#000" stroke-linecap="round" stroke-linejoin="round" stroke-width="1.5"/></g></g></svg>