<svg xmlns="http://www.w3.org/2000/svg" width="82.637" height="77.814" viewBox="0 0 82.637 77.814"><defs><style>.a{fill:#ed9075;}.a,.b{stroke:#457a86;stroke-miterlimit:10;stroke-width:4px;}.b{fill:#f5e7e3;}</style></defs><g transform="translate(-920.999 -5537.828)"><path class="a" d="M2731.891,495.167,2743.9,504v-8.831h3.274c2.835,0,5.133-2.749,5.133-6.14V461.265c0-3.391-2.3-6.14-5.133-6.14h-33.344c-2.835,0-5.133,2.749-5.133,6.14v27.763c0,3.391,2.3,6.14,5.133,6.14Z" transform="translate(-1750.668 5107.69)"/><path class="b" d="M2738.95,504.744l-17.795,10.943V504.744H2716.3a7.608,7.608,0,0,1-7.608-7.608v-34.4a7.608,7.608,0,0,1,7.608-7.608h49.421a7.608,7.608,0,0,1,7.608,7.608v34.4a7.608,7.608,0,0,1-7.608,7.608Z" transform="translate(-1785.695 5084.703)"/></g></svg>