<svg xmlns="http://www.w3.org/2000/svg" width="32.443" height="37.1" viewBox="0 0 32.443 37.1"><g transform="translate(0.817 0.75)"><g transform="translate(0 0)"><rect width="7" height="5" transform="translate(12.274 20.251)" fill="#fff"/><g transform="translate(0 0)"><g transform="translate(0 0)"><g transform="translate(7.485)"><path d="M971.062,121.945c-.071.573-.089,2.356-.093,3.2h0a1.031,1.031,0,0,0-.268-.178.71.71,0,0,1-.917-.3,3.739,3.739,0,0,1-.613-1.386.255.255,0,0,0-.286-.2,12.891,12.891,0,0,1-9.586-2.654.409.409,0,0,0-.352-.074.339.339,0,0,0-.276.234,10.4,10.4,0,0,1-.424,1.608,7.355,7.355,0,0,1-1.667,2.8c-.4.426-.925-.032-.925-.032a1.079,1.079,0,0,0-.259.169c-.017-.781-.061-2.585-.1-3.2,0-2.115.54-6.41,4.467-6.422,1.251,0,.9-.853,3.311-.853C970.452,114.666,971.062,119.6,971.062,121.945Z" transform="translate(-955.294 -114.67)" fill="#ed9075" stroke="#000" stroke-linecap="round" stroke-width="1.5"/><g transform="translate(1.425 28.201)"><path d="M974.666,470.295a1.4,1.4,0,1,1-.787.242A1.4,1.4,0,0,1,974.666,470.295Z" transform="translate(-973.268 -470.295)" fill="#ed9075" stroke="#000" stroke-linecap="round" stroke-width="1.5"/></g></g><g transform="translate(0 22.232)"><path d="M860.9,408.329a51.319,51.319,0,0,1,1.355-8.454,2.938,2.938,0,0,1,1.676-1.712l8.039-3.135,3.491,2.335a1.631,1.631,0,0,0,1.682-.011l3.37-2.325,8.153,3.136a2.94,2.94,0,0,1,1.691,1.718,51.187,51.187,0,0,1,1.353,8.447" transform="translate(-860.903 -395.028)" fill="#fff" stroke="#000" stroke-linecap="round" stroke-linejoin="round" stroke-width="1.5"/></g><g transform="translate(8.817 23.009)"><path d="M972.79,410.254a8.38,8.38,0,0,1-.44-5.434" transform="translate(-972.084 -404.82)" fill="none" stroke="#000" stroke-linecap="round" stroke-linejoin="round" stroke-width="1.5"/></g><g transform="translate(8.91 28.201)"><path d="M976.065,471.7a1.4,1.4,0,1,1-1.4-1.4A1.4,1.4,0,0,1,976.065,471.7Z" transform="translate(-973.268 -470.295)" fill="none" stroke="#000" stroke-linecap="round" stroke-linejoin="round" stroke-width="1.5"/></g><g transform="translate(21.738 23.052)"><path d="M1135.031,405.361a8.271,8.271,0,0,1,.1,3.306" transform="translate(-1135.031 -405.361)" fill="none" stroke="#000" stroke-linecap="round" stroke-linejoin="round" stroke-width="1.5"/></g><g transform="translate(16.702 26.261)"><path d="M1073,453.156l-.216.854a1.453,1.453,0,0,1-1.224-1.676l1.63-4.54a2.836,2.836,0,0,1,3.382-1.886l.076.018a2.574,2.574,0,0,1,2.076,2.628,3.451,3.451,0,0,1-.029.451l-.715,4.74a1.566,1.566,0,0,1-1.9.99l.216-.854" transform="translate(-1071.518 -445.83)" fill="none" stroke="#000" stroke-linecap="round" stroke-linejoin="round" stroke-width="1.5"/></g><g transform="translate(7.485)"><path d="M955.4,125.143c-.017-.781-.061-2.585-.1-3.2,0-2.115.54-6.41,4.467-6.422,1.251,0,.9-.853,3.311-.853,7.38,0,7.99,4.93,7.99,7.275-.071.573-.089,2.356-.093,3.2" transform="translate(-955.294 -114.67)" fill="none" stroke="#000" stroke-linecap="round" stroke-linejoin="round" stroke-width="1.5"/></g><g transform="translate(7.197 5.678)"><path d="M959.837,201.042a5.7,5.7,0,0,0,.959-.07l.144-.023a3.686,3.686,0,0,0,1.874-.642,11.247,11.247,0,0,0,.929-.792l0,0a11,11,0,0,0,2.121-2.646l.6-1.628a1.035,1.035,0,0,1,.279-.417c1.033-.936,1.737-2.964.883-3.742a1.029,1.029,0,0,0-.268-.178.71.71,0,0,1-.917-.3,3.743,3.743,0,0,1-.613-1.386.255.255,0,0,0-.286-.2,12.892,12.892,0,0,1-9.586-2.654.409.409,0,0,0-.352-.074.339.339,0,0,0-.276.234,10.414,10.414,0,0,1-.424,1.608,7.355,7.355,0,0,1-1.667,2.8c-.4.426-.925-.032-.925-.032a1.078,1.078,0,0,0-.259.169c-.868.771-.163,2.81.874,3.75a1.06,1.06,0,0,1,.279.417l.6,1.628a11.036,11.036,0,0,0,2.121,2.646l0,0a11.416,11.416,0,0,0,.931.792,3.678,3.678,0,0,0,1.872.642l.144.023a5.736,5.736,0,0,0,.961.07" transform="translate(-951.664 -186.275)" fill="#fff" stroke="#000" stroke-linecap="round" stroke-linejoin="round" stroke-width="1.5"/></g><g transform="translate(19.277 18.913)"><path d="M1103.991,353.168v0a20.463,20.463,0,0,0,.335,3.315" transform="translate(-1103.991 -353.168)" fill="none" stroke="#000" stroke-linecap="round" stroke-linejoin="round" stroke-width="1.5"/></g><g transform="translate(11.07 18.913)"><path d="M1000.887,353.168v0a19.932,19.932,0,0,1-.393,3.315" transform="translate(-1000.495 -353.168)" fill="none" stroke="#000" stroke-linecap="round" stroke-linejoin="round" stroke-width="1.5"/></g></g></g></g><path d="M0,0A2.484,2.484,0,0,0,1.56.428,2.429,2.429,0,0,0,3.163,0" transform="translate(13.838 16.576)" fill="none" stroke="#000" stroke-linecap="round" stroke-width="1.5"/></g></svg>