<svg xmlns="http://www.w3.org/2000/svg" width="112.508" height="112.508" viewBox="0 0 112.508 112.508"><defs><style>.a{fill:#242422;}</style></defs><path class="a" d="M100.453,2.25h-88.4A12.054,12.054,0,0,0,0,14.3v88.4a12.054,12.054,0,0,0,12.054,12.055H46.522V76.509H30.7v-18H46.522V44.782c0-15.608,9.292-24.23,23.524-24.23a95.848,95.848,0,0,1,13.943,1.215V37.088H76.136c-7.737,0-10.151,4.8-10.151,9.727V58.5H83.258l-2.762,18H65.985v38.251h34.468A12.054,12.054,0,0,0,112.508,102.7V14.3A12.055,12.055,0,0,0,100.453,2.25Z" transform="translate(0 -2.25)"/></svg>