<svg xmlns="http://www.w3.org/2000/svg" width="147.158" height="63.925" viewBox="0 0 147.158 63.925"><path d="M2349.275,305.888V242.813h14.432v25.468a23.56,23.56,0,0,1,2.526-2.887,12.668,12.668,0,0,1,3.8-2.5,14.239,14.239,0,0,1,5.772-1.019,17.566,17.566,0,0,1,7.64,1.655,13.528,13.528,0,0,1,5.582,4.839,13.877,13.877,0,0,1,2.1,7.81v29.712h-14.474V278.171a4.486,4.486,0,0,0-1.91-3.926,7.43,7.43,0,0,0-4.372-1.337,8.079,8.079,0,0,0-3.141.637,6.148,6.148,0,0,0-2.505,1.868,4.7,4.7,0,0,0-.976,3.013v27.462Z" transform="translate(-2349.275 -242.813)"/><path d="M2427.652,312.985a17.715,17.715,0,0,1-7.577-1.593,12.737,12.737,0,0,1-5.412-4.648,13.371,13.371,0,0,1-1.995-7.47,12.663,12.663,0,0,1,5.518-11.036q5.517-3.862,17.317-3.9l4.458-.043v-2.25a4.913,4.913,0,0,0-1.465-3.884,6.477,6.477,0,0,0-4.562-1.21,10.935,10.935,0,0,0-4.457,1,5.891,5.891,0,0,0-3.183,3.671h-11.843a13.153,13.153,0,0,1,2.927-8.107,15.593,15.593,0,0,1,7.153-4.626,31.772,31.772,0,0,1,10.038-1.486q7.215,0,11.419,1.719a11.826,11.826,0,0,1,6.007,4.8,14.065,14.065,0,0,1,1.8,7.237v30.986h-12.012l-1.231-7.258q-2.124,4.626-5.243,6.367A15.536,15.536,0,0,1,2427.652,312.985Zm4.966-9.3a7.638,7.638,0,0,0,5.093-1.931,7.456,7.456,0,0,0,1.614-2.016,5.325,5.325,0,0,0,.637-2.377v-5.985l-3.565.042a18.065,18.065,0,0,0-4.563.615,9.979,9.979,0,0,0-3.968,1.974,4.668,4.668,0,0,0-1.614,3.778,5.3,5.3,0,0,0,1.91,4.329A6.8,6.8,0,0,0,2432.618,303.689Z" transform="translate(-2365.383 -249.06)"/><path d="M2491.577,245.089v12.565h-13.923V245.089Zm-.084,17.488v43.889H2477.74V262.577Z" transform="translate(-2381.896 -243.391)"/><path d="M2506.959,312.135V268.246h13.965v11.248a20.918,20.918,0,0,1,2.95-6.176,14.383,14.383,0,0,1,4.775-4.329,13.239,13.239,0,0,1,6.579-1.592c.311,0,.587.007.828.021a.8.8,0,0,1,.445.106v13.71a2.266,2.266,0,0,0-.53-.127,4.971,4.971,0,0,0-.658-.043,23.306,23.306,0,0,0-6.855.128,9.965,9.965,0,0,0-4.245,1.783,6.571,6.571,0,0,0-2.166,2.928,10.776,10.776,0,0,0-.615,3.693v22.539Z" transform="translate(-2389.343 -249.06)"/></svg>