<svg id="Layer_1" data-name="Layer 1" xmlns="http://www.w3.org/2000/svg" viewBox="0 0 479.83 494.11"><defs><style>.cls-1{fill:#f5f6f0;}.cls-2{fill:#111;}.cls-3{fill:#eecec6;}</style></defs><polygon class="cls-1" points="61.86 362.11 139.54 347.15 132.62 205.9 266.42 177.8 264.67 168.24 258.59 153.2 185.28 157.28 96.81 179.61 32.47 332.11 61.86 362.11"/><polygon class="cls-1" points="139.54 212.17 301.72 237.37 441.17 199.59 450.33 248.54 448.94 374.42 305.59 428.27 137.75 377.86 139.54 212.17"/><path class="cls-2" d="M305.59,245.09a7.81,7.81,0,0,1-1.36-.12L130.31,213.7a7.72,7.72,0,0,1-.29-15.14l134.25-29.63,8.57,12L171.09,205.34l134.19,24.12,105.36-27.77-46.85-9.13L377.25,181,450,192a7.72,7.72,0,0,1,.83,15.1l-143.3,37.78A7.72,7.72,0,0,1,305.59,245.09Z"/><path class="cls-2" d="M305.59,438.45a7.6,7.6,0,0,1-2.22-.33l-167-50.28a7.72,7.72,0,0,1-5.49-7.08l-7-174.35,15.44-.62,6.73,168.85,159.12,47.92L441.17,368.9V199.59h15.44V374.15a7.75,7.75,0,0,1-4.88,7.19l-143.3,56.57A7.7,7.7,0,0,1,305.59,438.45Z"/><path class="cls-2" d="M60.9,378.18a7.72,7.72,0,0,1-5.68-2.49l-30-32.57a7.72,7.72,0,0,1-1.51-8L85.4,176.17a7.72,7.72,0,0,1,12.48-2.84l34.74,32.57a7.71,7.71,0,0,1,1.84,8.61L68,373.44a7.65,7.65,0,0,1-7.12,4.74Zm-21-42,18.54,20.16L118.14,213.5,95.66,192.42Z"/><path class="cls-2" d="M127.34,219.25a7.67,7.67,0,0,1-5.28-2.09L87.32,184.6a7.72,7.72,0,0,1,3.77-13.21L255.7,138.85l2.49,15L108.83,183.6l20.89,19.58.45-.09.12.63,2.33,2.18-1.56,1.66,2.13,10.68-4.34.86A7.73,7.73,0,0,1,127.34,219.25Z"/><rect class="cls-2" x="79.86" y="307.62" width="56.86" height="15.44" transform="translate(-78.48 39.15) rotate(-15.12)"/><rect class="cls-2" x="59.2" y="351.23" width="79.8" height="15.44" transform="translate(-99.29 43.82) rotate(-16.76)"/><rect class="cls-2" x="297.87" y="237.37" width="15.45" height="193.36"/><circle class="cls-3" cx="327.79" cy="130.66" r="65.28"/><path class="cls-2" d="M327.17,204.66a74.5,74.5,0,1,1,74.5-74.5A74.58,74.58,0,0,1,327.17,204.66Zm0-136.9a62.4,62.4,0,1,0,62.41,62.4A62.47,62.47,0,0,0,327.17,67.76Z"/><path class="cls-2" d="M333.22,159.91h-12.1v-8.37a14.73,14.73,0,0,1,11-14.28,20,20,0,1,0-18.73-33.84,19.78,19.78,0,0,0-6.23,14.49H295.1a32.08,32.08,0,0,1,33.79-32A32.07,32.07,0,0,1,335.18,149a2.63,2.63,0,0,0-2,2.57Z"/><path class="cls-2" d="M327.18,177.59a6.11,6.11,0,0,1-4.29-1.76,6,6,0,0,1-1.78-4.29,6.08,6.08,0,0,1,7.25-5.93,7.73,7.73,0,0,1,1.12.37,6.6,6.6,0,0,1,1.06.54,7.05,7.05,0,0,1,.91.76,5.43,5.43,0,0,1,.75.9,6.68,6.68,0,0,1,.55,1.06,8.54,8.54,0,0,1,.36,1.12,7.87,7.87,0,0,1,.12,1.18,6,6,0,0,1-1.78,4.29A6.1,6.1,0,0,1,327.18,177.59Z"/></svg>