<svg id="Layer_1" data-name="Layer 1" xmlns="http://www.w3.org/2000/svg" viewBox="0 0 479.83 494.11"><defs><style>.cls-1{fill:#f5f6f0;}.cls-2{fill:#111;}</style></defs><polygon class="cls-1" points="123.39 68.48 147.05 44.82 349.29 51.52 361.34 110.89 355.09 211.79 356.98 430.1 318.93 449.3 158.21 444.38 129.06 441.01 125.85 412.24 123.39 68.48"/><path class="cls-2" d="M133.9,336.36H119.12v-262c0-19.24,17.27-34.88,38.5-34.88H327.13c21.22,0,38.48,15.64,38.48,34.88V335.9H350.83V74.36c0-11.09-10.63-20.1-23.7-20.1H157.62c-13.08,0-23.72,9-23.72,20.1Z"/><path class="cls-2" d="M327.11,454.64H157.61c-21.23,0-38.49-15.65-38.49-34.88v-83.4H133.9v83.4c0,11.08,10.63,20.09,23.71,20.09h169.5c13.08,0,23.72-9,23.72-20.09V335.9h14.78v83.86C365.61,439,348.34,454.64,327.11,454.64Z"/><rect class="cls-2" x="126.51" y="396.31" width="231.13" height="14.78"/><rect class="cls-2" x="219.48" y="77.99" width="53.42" height="14.78"/><path class="cls-2" d="M84.67,308.06c-14.6-18.3-22.32-39.4-22.32-61s7.72-42.7,22.32-61l11.56,9.22c-12.49,15.65-19.09,33.56-19.09,51.78s6.6,36.13,19.09,51.79Z"/><path class="cls-2" d="M400,308.08l-11.56-9.22C401,283.2,407.6,265.28,407.6,247.05s-6.61-36.14-19.12-51.81L400,186c14.61,18.31,22.34,39.42,22.34,61S414.65,289.77,400,308.08Z"/><path class="cls-2" d="M53.25,334.46c-21-26.25-32-56.47-32-87.41s11.07-61.15,32-87.4l11.55,9.22C46,192.47,36,219.51,36,247.05s10,54.59,28.79,78.19Z"/><path class="cls-2" d="M431.46,334.5l-11.56-9.22c18.86-23.62,28.82-50.67,28.82-78.23s-10-54.61-28.82-78.22l11.55-9.23c21,26.27,32.05,56.51,32.05,87.45S452.42,308.24,431.46,334.5Z"/><path class="cls-2" d="M242.37,259.86a34.44,34.44,0,1,1,34.43-34.44A34.48,34.48,0,0,1,242.37,259.86Zm0-61.44a27,27,0,1,0,27,27A27,27,0,0,0,242.37,198.42Z"/><path class="cls-2" d="M285.14,303.13H199.6a3.72,3.72,0,0,1-3.72-3.72V288.1a21.58,21.58,0,0,1,21.56-21.56h24.93V274H217.44a14.15,14.15,0,0,0-14.13,14.13v7.59h78.11V288.1A14.15,14.15,0,0,0,267.29,274H242.37v-7.43h24.92a21.58,21.58,0,0,1,21.56,21.56v11.31A3.72,3.72,0,0,1,285.14,303.13Z"/></svg>