<svg id="Layer_1" data-name="Layer 1" xmlns="http://www.w3.org/2000/svg" viewBox="0 0 479.83 494.11"><defs><style>.cls-1{fill:#f5f6f0;}.cls-2{fill:#111;}.cls-3{fill:#eecec6;}</style></defs><rect class="cls-1" x="66.32" y="54.36" width="352.55" height="356.43"/><path class="cls-2" d="M418.79,410.79H63.11A7.11,7.11,0,0,1,56,403.67V56.31a7.11,7.11,0,0,1,7.11-7.11H418.79a7.11,7.11,0,0,1,7.11,7.11V126H411.68V63.43H70.22V396.56H411.68V109.67H425.9v294A7.11,7.11,0,0,1,418.79,410.79Z"/><rect class="cls-2" x="85.35" y="106.58" width="311.2" height="14.23"/><path class="cls-2" d="M181.43,94.17H98.8a7.12,7.12,0,1,1,0-14.23h82.63a7.12,7.12,0,1,1,0,14.23Z"/><path class="cls-2" d="M236.37,94.17h-9.08a7.12,7.12,0,0,1,0-14.23h9.08a7.12,7.12,0,1,1,0,14.23Z"/><path class="cls-2" d="M290,94.17h-9.09a7.12,7.12,0,0,1,0-14.23H290a7.12,7.12,0,0,1,0,14.23Z"/><polygon class="cls-3" points="206.08 468.81 300.94 468.81 307.86 441.14 307.86 403.59 307.86 353.52 286.12 353.52 271.3 345.7 259.11 348.58 245.26 347.26 232.24 348.25 230.46 287.32 215.96 283.36 206.08 292.92 204.76 380.2 188.29 367.03 173.8 353.52 158.65 355.21 167.87 389.1 185.66 437.85 206.08 468.81"/><path class="cls-2" d="M232.24,375.72a5.45,5.45,0,0,1-5.45-5.45V321.13a5.46,5.46,0,1,1,10.91,0v49.14A5.46,5.46,0,0,1,232.24,375.72Z"/><path class="cls-2" d="M232.24,376.63a5.45,5.45,0,0,1-5.45-5.45v-12a18.48,18.48,0,1,1,36.94,0,5.45,5.45,0,0,1-10.9,0,7.58,7.58,0,1,0-15.13,0v12A5.46,5.46,0,0,1,232.24,376.63Z"/><path class="cls-2" d="M211.66,338.72H200.75V295.8a18.48,18.48,0,1,1,36.95,0H226.79a7.58,7.58,0,1,0-15.13,0Z"/><rect class="cls-2" x="226.79" y="295.8" width="10.91" height="41.81"/><path class="cls-2" d="M284.32,376.63a5.45,5.45,0,0,1-5.45-5.45v-12a7.58,7.58,0,1,0-15.14,0v12a5.45,5.45,0,0,1-10.9,0v-12a18.48,18.48,0,1,1,36.94,0v12A5.45,5.45,0,0,1,284.32,376.63Z"/><path class="cls-2" d="M315.81,364.67H304.9a7.58,7.58,0,1,0-15.13,0h-10.9a18.48,18.48,0,1,1,36.94,0Z"/><path class="cls-2" d="M205.2,475.4a5.46,5.46,0,0,1-5.45-5.45,28.35,28.35,0,0,0-7.21-18.9l-7.67-8.6a39,39,0,0,1-7.59-12.67l-22.77-62.3c-.4-1.25-3-10.3,2.26-16.28,3.4-3.85,8.73-5.15,15.86-3.86,11.73,2.13,21.61,14.59,28.14,25.37l0-34,10.91,0-.06,43.38a8.46,8.46,0,0,1-16,3.84c-8.19-16.11-17.53-26.53-25-27.88-3.69-.67-5.34-.1-5.73.35-.85,1-.55,4.15-.11,5.56l22.68,62a28.29,28.29,0,0,0,5.48,9.16l7.68,8.6a39.18,39.18,0,0,1,9.59,20.64c8.56-.06,29.94-.1,84.12.05a43.73,43.73,0,0,1,4.07-14.59l3.26-6.3a28.51,28.51,0,0,0,3.18-13V364.67h10.91v65.87a39.38,39.38,0,0,1-4.4,18.06l-3.27,6.31c-1.84,3.56-3.18,9.88-3.18,15a5.45,5.45,0,0,1-5.45,5.45h0c-35.85-.1-90.19-.19-93.79,0Zm-4.45-93.3h0Z"/></svg>