<svg id="Layer_1" data-name="Layer 1" xmlns="http://www.w3.org/2000/svg" viewBox="0 0 479.83 494.11"><defs><style>.cls-1{fill:#eecec6;}.cls-2{fill:#f5f6f0;}.cls-3{fill:#111;}</style></defs><polygon class="cls-1" points="77.33 104.7 128.79 97.17 390.45 97.17 412.86 122.02 412.86 177.18 66.97 177.18 77.33 104.7"/><polygon class="cls-2" points="59.44 177.18 412.86 177.18 412.86 408.33 382.73 434.2 90.37 425 66.97 399.63 59.44 177.18"/><path class="cls-3" d="M382.73,434.2H97.1a37.7,37.7,0,0,1-37.66-37.66V127.3A37.7,37.7,0,0,1,97.1,89.64h41.14V104.7H97.1a22.63,22.63,0,0,0-22.6,22.6V396.54a22.63,22.63,0,0,0,22.6,22.6H382.73a22.63,22.63,0,0,0,22.6-22.6V127.3a22.63,22.63,0,0,0-22.6-22.6H340.22V89.64h42.51a37.7,37.7,0,0,1,37.66,37.66V396.54A37.71,37.71,0,0,1,382.73,434.2Z"/><rect class="cls-3" x="155.53" y="89.64" width="167.24" height="15.06"/><rect class="cls-3" x="66.97" y="169.65" width="345.89" height="15.06"/><path class="cls-3" d="M145.77,130.66a7.53,7.53,0,0,1-7.53-7.53V71.21a7.53,7.53,0,0,1,15.06,0v51.92A7.53,7.53,0,0,1,145.77,130.66Z"/><path class="cls-3" d="M145.77,134.43a11.31,11.31,0,0,1-11.3-11.3V71.21a11.3,11.3,0,1,1,22.6,0v51.92A11.31,11.31,0,0,1,145.77,134.43Zm0-67A3.77,3.77,0,0,0,142,71.21v51.92a3.77,3.77,0,1,0,7.54,0V71.21A3.77,3.77,0,0,0,145.77,67.44Z"/><path class="cls-3" d="M334.07,130.66a7.53,7.53,0,0,1-7.53-7.53V71.21a7.53,7.53,0,0,1,15.06,0v51.92A7.53,7.53,0,0,1,334.07,130.66Z"/><path class="cls-3" d="M334.07,134.43a11.31,11.31,0,0,1-11.3-11.3V71.21a11.3,11.3,0,0,1,22.6,0v51.92A11.31,11.31,0,0,1,334.07,134.43Zm0-67a3.76,3.76,0,0,0-3.76,3.77v51.92a3.77,3.77,0,1,0,7.53,0V71.21A3.77,3.77,0,0,0,334.07,67.44Z"/><path class="cls-3" d="M239.92,395.93a92.28,92.28,0,0,1-36.36-177.09l5.94,13.84a77.26,77.26,0,1,0,30.42-6.22V211.39a92.27,92.27,0,0,1,0,184.54Z"/><polygon class="cls-3" points="204.76 272 190.01 268.94 197.64 232.07 160.49 225.93 162.95 211.07 215.56 219.77 204.76 272"/></svg>