<svg xmlns="http://www.w3.org/2000/svg" width="112.571" height="112.547" viewBox="0 0 112.571 112.547"><defs><style>.a{fill:#242422;}</style></defs><path class="a" d="M56.293,29.656A28.856,28.856,0,1,0,85.148,58.511,28.81,28.81,0,0,0,56.293,29.656Zm0,47.616a18.76,18.76,0,1,1,18.76-18.76,18.794,18.794,0,0,1-18.76,18.76Zm36.766-48.8a6.73,6.73,0,1,1-6.73-6.73A6.715,6.715,0,0,1,93.058,28.475Zm19.111,6.831c-.427-9.016-2.486-17-9.091-23.582C96.5,5.145,88.513,3.085,79.5,2.633c-9.292-.527-37.143-.527-46.435,0C24.072,3.06,16.086,5.119,9.481,11.7S.842,26.265.39,35.281c-.527,9.292-.527,37.143,0,46.435.427,9.016,2.486,17,9.091,23.582s14.566,8.639,23.581,9.091c9.292.527,37.143.527,46.435,0,9.016-.427,17-2.486,23.581-9.091,6.58-6.58,8.639-14.566,9.091-23.582C112.7,72.424,112.7,44.6,112.17,35.306Zm-12,56.38a18.993,18.993,0,0,1-10.7,10.7c-7.408,2.938-24.988,2.26-33.175,2.26s-25.791.653-33.175-2.26a18.993,18.993,0,0,1-10.7-10.7c-2.938-7.409-2.26-24.988-2.26-33.175s-.653-25.792,2.26-33.175a18.993,18.993,0,0,1,10.7-10.7c7.408-2.938,24.988-2.26,33.175-2.26s25.791-.653,33.175,2.26a18.993,18.993,0,0,1,10.7,10.7c2.938,7.409,2.26,24.988,2.26,33.175S103.1,84.3,100.166,91.686Z" transform="translate(0.005 -2.238)"/></svg>