<svg xmlns="http://www.w3.org/2000/svg" width="521" height="182.861" viewBox="0 0 521 182.861"><defs><style>.a{opacity:0.999;}.b{fill:#9dbbc5;}.c{fill:#e6b8aa;}.d{fill:#feb981;}.e{fill:#d5d8b1;}.f{fill:#faf377;}.g{fill:#dacbd4;}.h{fill:#f5e7e3;}.h,.i,.k,.l,.m,.n{stroke:#000;stroke-linecap:round;stroke-width:4px;}.h,.i,.l,.m{stroke-linejoin:round;}.i,.k{fill:#ed9075;}.j,.l{fill:#fff;}.m,.n{fill:none;}</style></defs><g transform="translate(-707 -276.139)"><g class="a" transform="translate(0 9)"><circle class="b" cx="6.5" cy="6.5" r="6.5" transform="translate(756 303)"/><circle class="b" cx="6.5" cy="6.5" r="6.5" transform="translate(1215 303)"/><circle class="c" cx="6.5" cy="6.5" r="6.5" transform="translate(1170 424)"/><circle class="d" cx="6.5" cy="6.5" r="6.5" transform="translate(783 437)"/><circle class="e" cx="6.5" cy="6.5" r="6.5" transform="translate(1105 277)"/><circle class="f" cx="6.5" cy="6.5" r="6.5" transform="translate(707 386)"/><circle class="g" cx="6.5" cy="6.5" r="6.5" transform="translate(1111 373)"/><circle class="g" cx="6.5" cy="6.5" r="6.5" transform="translate(817 339)"/></g><g transform="translate(850.331 318.318)"><path class="h" d="M1044.572,1311.074v-101.96a8.441,8.441,0,0,1,8.429-8.434h165.25a8.443,8.443,0,0,1,8.431,8.434v101.96" transform="translate(-1020.519 -1200.68)"/><g transform="translate(35.46 10.77)"><path class="i" d="M1269.76,1267.551h-159.3v90.055h159.3v-90.055Z" transform="translate(-1110.464 -1267.551)"/></g><path class="h" d="M1068.413,2149.7v-6.581H971.477c-.914,3.148-3.784,3.084-7.226,3.084h-21.9c-3.445,0-6.314.064-7.226-3.084H838.193v6.581s7.955,5.941,13.8,5.941H1054.6C1060.453,2155.644,1068.413,2149.7,1068.413,2149.7Z" transform="translate(-838.192 -2033.285)"/></g><g transform="translate(906.42 278.139)"><g transform="translate(0.001 0)"><rect class="j" width="27" height="23" transform="translate(46.58 76.861)"/><g transform="translate(0 0)"><g transform="translate(0 0)"><g transform="translate(29.311)"><path class="k" d="M1017.042,143.157c-.28,2.242-.349,9.225-.362,12.55l0,0a4.038,4.038,0,0,0-1.051-.7,2.78,2.78,0,0,1-3.589-1.163,14.641,14.641,0,0,1-2.4-5.427,1,1,0,0,0-1.12-.789c-18.584,2.789-32.928-6.773-37.536-10.393a1.6,1.6,0,0,0-1.377-.29,1.328,1.328,0,0,0-1.079.915,40.752,40.752,0,0,1-1.661,6.3,28.8,28.8,0,0,1-6.527,10.977c-1.579,1.667-3.622-.126-3.622-.126a4.229,4.229,0,0,0-1.015.663c-.069-3.059-.239-10.122-.4-12.522-.009-8.281,2.116-25.1,17.492-25.148,4.9-.014,3.53-3.34,12.966-3.34C1014.651,114.656,1017.042,133.974,1017.042,143.157Z" transform="translate(-955.294 -114.67)"/><g transform="translate(5.581 110.432)"><path class="k" d="M978.744,470.295a5.476,5.476,0,1,1-3.08.948A5.478,5.478,0,0,1,978.744,470.295Z" transform="translate(-973.268 -470.295)"/></g></g><g transform="translate(0 87.059)"><path class="l" d="M860.9,447.112c1.262-13.41,3.6-28.305,5.306-33.107a11.5,11.5,0,0,1,6.563-6.7l31.478-12.275,13.669,9.145a6.388,6.388,0,0,0,6.587-.042l13.2-9.1,31.927,12.28a11.514,11.514,0,0,1,6.623,6.726c1.712,4.811,4.039,19.7,5.3,33.079" transform="translate(-860.903 -395.028)"/></g><g transform="translate(34.525 90.1)"><path class="m" d="M974.848,426.1a32.817,32.817,0,0,1-1.721-21.28" transform="translate(-972.084 -404.82)"/></g><g transform="translate(34.892 110.432)"><path class="m" d="M984.22,475.779a5.476,5.476,0,1,1-5.476-5.484A5.48,5.48,0,0,1,984.22,475.779Z" transform="translate(-973.268 -470.295)"/></g><g transform="translate(85.124 90.268)"><path class="m" d="M1135.031,405.361a32.394,32.394,0,0,1,.381,12.948" transform="translate(-1135.031 -405.361)"/></g><g transform="translate(65.402 102.835)"><path class="m" d="M1077.333,474.521l-.845,3.344c-3.089-.682-5.687-3.634-4.792-6.563l6.385-17.777c2.024-5.3,6.866-8.786,13.242-7.384l.3.07a10.081,10.081,0,0,1,8.128,10.29,13.52,13.52,0,0,1-.115,1.766l-2.8,18.562c-.6,2.989-4.338,4.554-7.431,3.877l.845-3.344" transform="translate(-1071.518 -445.83)"/></g><g transform="translate(29.311)"><path class="m" d="M955.7,155.68c-.069-3.059-.239-10.122-.4-12.522-.009-8.281,2.116-25.1,17.492-25.148,4.9-.014,3.53-3.34,12.966-3.34,28.9-.014,31.289,19.3,31.289,28.487-.28,2.242-.349,9.225-.362,12.55" transform="translate(-955.294 -114.67)"/></g><g transform="translate(28.184 22.236)"><path class="l" d="M983.668,244.1a22.3,22.3,0,0,0,3.755-.275c.344-.052.564-.089.564-.089,2.764-.411,5.044-.766,7.339-2.513a44.027,44.027,0,0,0,3.64-3.1l.014-.014a43.088,43.088,0,0,0,8.307-10.36l2.337-6.376a4.052,4.052,0,0,1,1.092-1.635c4.044-3.667,6.8-11.607,3.456-14.653a4.032,4.032,0,0,0-1.051-.7,2.78,2.78,0,0,1-3.59-1.163,14.658,14.658,0,0,1-2.4-5.427,1,1,0,0,0-1.12-.789c-18.584,2.789-32.928-6.773-37.537-10.393a1.6,1.6,0,0,0-1.377-.29,1.328,1.328,0,0,0-1.079.915,40.779,40.779,0,0,1-1.661,6.3,28.8,28.8,0,0,1-6.527,10.977c-1.579,1.667-3.621-.126-3.621-.126a4.219,4.219,0,0,0-1.015.663c-3.4,3.017-.638,11,3.424,14.685a4.148,4.148,0,0,1,1.092,1.635l2.332,6.376a43.218,43.218,0,0,0,8.307,10.36l.014.014a44.7,44.7,0,0,0,3.644,3.1c2.285,1.747,4.576,2.1,7.33,2.513,0,0,.225.037.565.089a22.45,22.45,0,0,0,3.763.275" transform="translate(-951.664 -186.275)"/></g><g transform="translate(75.486 74.061)"><path class="m" d="M1103.991,353.168v.019c.239,4.535.473,9.524,1.313,12.98" transform="translate(-1103.991 -353.168)"/></g><g transform="translate(43.347 74.061)"><path class="m" d="M1002.033,353.168v.019a78.038,78.038,0,0,1-1.538,12.98" transform="translate(-1000.495 -353.168)"/></g></g></g></g><path class="n" d="M0,0S1.948,1.677,6.108,1.677C10.58,1.677,12.385,0,12.385,0" transform="translate(54.191 64.911)"/></g></g></svg>