<svg xmlns="http://www.w3.org/2000/svg" width="112.508" height="112.508" viewBox="0 0 112.508 112.508"><defs><style>.a{fill:#242422;}</style></defs><path class="a" d="M104.471,2.25H8.011A8.071,8.071,0,0,0,0,10.362v96.286a8.071,8.071,0,0,0,8.011,8.112h96.46a8.092,8.092,0,0,0,8.036-8.112V10.362A8.092,8.092,0,0,0,104.471,2.25ZM34,98.686H17.328V44.993h16.7V98.686ZM25.666,37.66a9.669,9.669,0,1,1,9.669-9.669,9.673,9.673,0,0,1-9.669,9.669ZM96.511,98.686H79.835V72.568c0-6.228-.126-14.239-8.664-14.239-8.689,0-10.02,6.781-10.02,13.787v26.57H44.476V44.993h16v7.333H60.7c2.235-4.219,7.685-8.664,15.8-8.664,16.876,0,20.015,11.125,20.015,25.591Z" transform="translate(0 -2.25)"/></svg>