<svg xmlns="http://www.w3.org/2000/svg" xmlns:xlink="http://www.w3.org/1999/xlink" width="357" height="92" viewBox="0 0 357 92"><defs><style>.a{fill:$springwood-background;stroke:#707070;}.b{clip-path:url(#a);}.c{fill:#fff;}</style><clipPath id="a"><rect class="a" width="357" height="92" transform="translate(0.16 4)"/></clipPath></defs><g class="b" transform="translate(-0.16 -4)"><path class="c" d="M-2783.937-2543.5l1.3-.918a1.394,1.394,0,0,0,.609-1.138v-1.558a1.393,1.393,0,0,0-.61-1.138l-5.444-3.825h-339.037l-5.444,3.829a1.391,1.391,0,0,0-.61,1.137v1.56a1.4,1.4,0,0,0,.61,1.139l1.3.915a3.5,3.5,0,0,1,0,5.823l-1.3.916a1.4,1.4,0,0,0-.61,1.138v1.56a1.4,1.4,0,0,0,.61,1.138l1.3.915a3.5,3.5,0,0,1,0,5.823l-1.3.917a1.394,1.394,0,0,0-.61,1.138v1.56a1.393,1.393,0,0,0,.61,1.138l1.3.915a3.5,3.5,0,0,1,0,5.823l-1.3.917a1.394,1.394,0,0,0-.61,1.138v1.559a1.394,1.394,0,0,0,.61,1.139l1.3.915a3.5,3.5,0,0,1,0,5.823l-1.3.917a1.393,1.393,0,0,0-.61,1.138v1.559a1.394,1.394,0,0,0,.61,1.138l1.3.915a3.5,3.5,0,0,1,0,5.823l-1.3.917a1.394,1.394,0,0,0-.61,1.138v1.56a1.394,1.394,0,0,0,.61,1.137l1.3.916a3.5,3.5,0,0,1,0,5.823l-1.3.917a1.394,1.394,0,0,0-.61,1.138v1.56a1.393,1.393,0,0,0,.61,1.137l1.3.915a3.5,3.5,0,0,1,0,5.823l-1.3.917a1.394,1.394,0,0,0-.61,1.138v1.559a1.394,1.394,0,0,0,.61,1.138l1.3.915a3.5,3.5,0,0,1,0,5.823l-1.3.917a1.393,1.393,0,0,0-.61,1.138v1.559a1.4,1.4,0,0,0,.61,1.139l1.3.914a3.5,3.5,0,0,1,0,5.823l-1.3.918a1.39,1.39,0,0,0-.61,1.136v1.56a1.4,1.4,0,0,0,.61,1.138l1.3.914a3.5,3.5,0,0,1,0,5.823l-1.3.918a1.392,1.392,0,0,0-.61,1.137v1.56a1.393,1.393,0,0,0,.61,1.138l1.3.915a3.5,3.5,0,0,1,0,5.824l-1.3.917a1.393,1.393,0,0,0-.61,1.137v1.56a1.394,1.394,0,0,0,.61,1.138l1.3.915a3.5,3.5,0,0,1,0,5.823l-1.3.917a1.394,1.394,0,0,0-.61,1.138v1.559a1.4,1.4,0,0,0,.61,1.138l1.3.915a3.5,3.5,0,0,1,0,5.823l-1.3.917a1.394,1.394,0,0,0-.61,1.138v1.559a1.4,1.4,0,0,0,.61,1.138l1.3.915a3.5,3.5,0,0,1,0,5.823l-1.3.918a1.392,1.392,0,0,0-.61,1.137v1.56a1.4,1.4,0,0,0,.61,1.138l1.3.915a3.5,3.5,0,0,1,0,5.823l-1.3.917a1.393,1.393,0,0,0-.61,1.138v1.558a1.394,1.394,0,0,0,.61,1.138l1.3.915a3.5,3.5,0,0,1,0,5.823l-1.3.917a1.393,1.393,0,0,0-.61,1.137v1.559a1.4,1.4,0,0,0,.61,1.139l1.3.915a3.5,3.5,0,0,1,0,5.823l-1.3.918a1.4,1.4,0,0,0-.609,1.137v1.559a1.394,1.394,0,0,0,.61,1.138l1.3.915a3.5,3.5,0,0,1,0,5.823l-1.3.917a1.4,1.4,0,0,0-.609,1.138v1.559a1.4,1.4,0,0,0,.61,1.138l1.3.914a3.5,3.5,0,0,1,0,5.823l-1.3.918a1.394,1.394,0,0,0-.609,1.137v1.559a1.4,1.4,0,0,0,.61,1.138l1.3.916a3.5,3.5,0,0,1,0,5.823l-1.3.917a1.394,1.394,0,0,0-.609,1.137v1.559a1.4,1.4,0,0,0,.61,1.138l1.3.915a3.5,3.5,0,0,1,0,5.823l-1.3.918a1.4,1.4,0,0,0-.609,1.137v1.558a1.4,1.4,0,0,0,.61,1.139l1.3.915a3.5,3.5,0,0,1,0,5.823l-1.3.919a1.393,1.393,0,0,0-.609,1.137v1.558a1.394,1.394,0,0,0,.61,1.138l1.3.915a3.5,3.5,0,0,1,0,5.823l-1.3.918a1.4,1.4,0,0,0-.609,1.138v1.558a1.394,1.394,0,0,0,.61,1.137l1.3.916a3.5,3.5,0,0,1,0,5.823l-1.3.917a1.4,1.4,0,0,0-.61,1.138v1.559a1.4,1.4,0,0,0,.61,1.138l1.3.915a3.5,3.5,0,0,1,0,5.823l-1.3.918a1.393,1.393,0,0,0-.61,1.137v1.558a1.4,1.4,0,0,0,.61,1.138l1.3.916a3.5,3.5,0,0,1,0,5.823l-1.3.917a1.394,1.394,0,0,0-.61,1.138v1.558a1.394,1.394,0,0,0,.61,1.138l1.3.916a3.5,3.5,0,0,1,0,5.823l-1.3.918a1.392,1.392,0,0,0-.61,1.137v1.558a1.394,1.394,0,0,0,.61,1.138l1.3.915a3.5,3.5,0,0,1,0,5.824l-1.3.917a1.392,1.392,0,0,0-.61,1.138v1.558a1.4,1.4,0,0,0,.61,1.137l1.3.916a3.5,3.5,0,0,1,0,5.823l-1.3.917a1.4,1.4,0,0,0-.61,1.139v1.558a1.393,1.393,0,0,0,.61,1.137l1.3.916a3.5,3.5,0,0,1,0,5.823l-1.3.918a1.393,1.393,0,0,0-.61,1.137v1.559a1.394,1.394,0,0,0,.61,1.138l1.3.916a3.5,3.5,0,0,1,0,5.824l-1.3.918a1.393,1.393,0,0,0-.609,1.137v1.558a1.4,1.4,0,0,0,.61,1.138l5.445,3.826h339.037l5.444-3.829a1.394,1.394,0,0,0,.609-1.137v-1.56a1.4,1.4,0,0,0-.61-1.139l-1.3-.914a3.5,3.5,0,0,1,0-5.823l1.3-.916a1.4,1.4,0,0,0,.609-1.137v-1.56a1.392,1.392,0,0,0-.61-1.138l-1.3-.915a3.5,3.5,0,0,1,0-5.823l1.3-.916a1.4,1.4,0,0,0,.609-1.138v-1.56a1.394,1.394,0,0,0-.61-1.138l-1.3-.914a3.5,3.5,0,0,1,0-5.824l1.3-.917a1.4,1.4,0,0,0,.609-1.138v-1.559a1.394,1.394,0,0,0-.61-1.138l-1.3-.915a3.5,3.5,0,0,1,0-5.822l1.3-.917a1.4,1.4,0,0,0,.609-1.138v-1.559a1.394,1.394,0,0,0-.61-1.138l-1.3-.914a3.5,3.5,0,0,1,0-5.823l1.3-.917a1.4,1.4,0,0,0,.609-1.137v-1.559a1.392,1.392,0,0,0-.61-1.138l-1.3-.915a3.5,3.5,0,0,1,0-5.823l1.3-.917a1.4,1.4,0,0,0,.609-1.137v-1.559a1.392,1.392,0,0,0-.61-1.138l-1.3-.915a3.5,3.5,0,0,1,0-5.823l1.3-.917a1.4,1.4,0,0,0,.609-1.139v-1.558a1.394,1.394,0,0,0-.61-1.139l-1.3-.914a3.5,3.5,0,0,1,0-5.823l1.3-.917a1.4,1.4,0,0,0,.609-1.138v-1.559a1.394,1.394,0,0,0-.61-1.138l-1.3-.914a3.5,3.5,0,0,1,0-5.823l1.3-.917a1.4,1.4,0,0,0,.609-1.138v-1.56a1.392,1.392,0,0,0-.61-1.137l-1.3-.915a3.5,3.5,0,0,1,0-5.823l1.3-.918a1.391,1.391,0,0,0,.609-1.137v-1.559a1.392,1.392,0,0,0-.61-1.138l-1.3-.915a3.5,3.5,0,0,1,0-5.823l1.3-.918a1.394,1.394,0,0,0,.609-1.137v-1.559a1.393,1.393,0,0,0-.61-1.139l-1.3-.915a3.5,3.5,0,0,1,0-5.823l1.3-.917a1.4,1.4,0,0,0,.609-1.138v-1.559a1.393,1.393,0,0,0-.61-1.138l-1.3-.915a3.5,3.5,0,0,1,0-5.823l1.3-.918a1.391,1.391,0,0,0,.609-1.137v-1.559a1.394,1.394,0,0,0-.61-1.139l-1.3-.914a3.5,3.5,0,0,1,0-5.823l1.3-.917a1.394,1.394,0,0,0,.609-1.137v-1.56a1.39,1.39,0,0,0-.61-1.137l-1.3-.915a3.5,3.5,0,0,1,0-5.824l1.3-.917a1.4,1.4,0,0,0,.609-1.138v-1.558a1.392,1.392,0,0,0-.61-1.138l-1.3-.915a3.5,3.5,0,0,1,0-5.823l1.3-.917a1.4,1.4,0,0,0,.609-1.138v-1.559a1.393,1.393,0,0,0-.61-1.138l-1.3-.915a3.5,3.5,0,0,1,0-5.823l1.3-.918a1.4,1.4,0,0,0,.609-1.138v-1.559a1.4,1.4,0,0,0-.61-1.138l-1.3-.914a3.5,3.5,0,0,1,0-5.823l1.3-.918a1.394,1.394,0,0,0,.609-1.138v-1.559a1.394,1.394,0,0,0-.61-1.138l-1.3-.915a3.5,3.5,0,0,1,0-5.823l1.3-.917a1.394,1.394,0,0,0,.609-1.137v-1.559a1.392,1.392,0,0,0-.61-1.137l-1.3-.915a3.5,3.5,0,0,1,0-5.823l1.3-.917a1.4,1.4,0,0,0,.609-1.137v-1.559a1.392,1.392,0,0,0-.61-1.137l-1.3-.916a3.5,3.5,0,0,1,0-5.823l1.3-.918a1.394,1.394,0,0,0,.609-1.137v-1.558a1.392,1.392,0,0,0-.61-1.138l-1.3-.915a3.5,3.5,0,0,1,0-5.824l1.3-.918a1.4,1.4,0,0,0,.609-1.137v-1.559a1.393,1.393,0,0,0-.61-1.138l-1.3-.915a3.5,3.5,0,0,1,0-5.823l1.3-.918a1.4,1.4,0,0,0,.609-1.137v-1.56a1.393,1.393,0,0,0-.61-1.137l-1.3-.915a3.5,3.5,0,0,1,0-5.823l1.3-.918a1.394,1.394,0,0,0,.609-1.137v-1.558a1.392,1.392,0,0,0-.61-1.138l-1.3-.916a3.5,3.5,0,0,1,0-5.824l1.3-.917a1.393,1.393,0,0,0,.609-1.137v-1.559a1.392,1.392,0,0,0-.61-1.138l-1.3-.915a3.5,3.5,0,0,1,0-5.823l1.3-.918a1.394,1.394,0,0,0,.609-1.137v-1.559a1.393,1.393,0,0,0-.61-1.138l-1.3-.915a3.5,3.5,0,0,1,0-5.823l1.3-.918a1.394,1.394,0,0,0,.609-1.137v-1.558a1.4,1.4,0,0,0-.61-1.138l-1.3-.915a3.5,3.5,0,0,1,0-5.823l1.3-.917a1.4,1.4,0,0,0,.609-1.138v-1.558a1.39,1.39,0,0,0-.61-1.137l-1.3-.917a3.5,3.5,0,0,1,0-5.822l1.3-.918a1.394,1.394,0,0,0,.609-1.138v-1.558a1.4,1.4,0,0,0-.61-1.138l-1.3-.915a3.5,3.5,0,0,1,0-5.823l1.3-.918a1.394,1.394,0,0,0,.609-1.137v-1.558a1.393,1.393,0,0,0-.61-1.139l-1.3-.916A3.5,3.5,0,0,1-2783.937-2543.5Z" transform="translate(3137.247 2552.077)"/></g></svg>