<svg xmlns="http://www.w3.org/2000/svg" xmlns:xlink="http://www.w3.org/1999/xlink" width="324" height="152" viewBox="0 0 324 152"><defs><style>.a{fill:$springwood-background;stroke:#707070;}.b{clip-path:url(#a);}.c{fill:#fff;}</style><clipPath id="a"><rect class="a" width="324" height="152" transform="translate(0.165 4)"/></clipPath></defs><g class="b" transform="translate(-0.165 -4)"><path class="c" d="M-2817.136-2542.776l1.181-1a1.612,1.612,0,0,0,.551-1.233v-1.689a1.613,1.613,0,0,0-.552-1.234l-4.928-4.148h-306.807l-4.927,4.152a1.609,1.609,0,0,0-.552,1.233V-2545a1.614,1.614,0,0,0,.552,1.235l1.178.992a4.236,4.236,0,0,1,0,6.313l-1.179.993a1.611,1.611,0,0,0-.552,1.234v1.691a1.612,1.612,0,0,0,.552,1.234l1.178.992a4.236,4.236,0,0,1,0,6.314l-1.179.994a1.611,1.611,0,0,0-.552,1.234v1.691a1.61,1.61,0,0,0,.552,1.233l1.178.992a4.236,4.236,0,0,1,0,6.314l-1.179.994a1.611,1.611,0,0,0-.552,1.234v1.69a1.612,1.612,0,0,0,.552,1.235l1.178.992a4.237,4.237,0,0,1,0,6.314l-1.18.994a1.609,1.609,0,0,0-.552,1.234v1.69a1.611,1.611,0,0,0,.552,1.234l1.178.992a4.235,4.235,0,0,1,0,6.313l-1.18.995a1.609,1.609,0,0,0-.552,1.233v1.692a1.611,1.611,0,0,0,.552,1.233l1.178.993a4.235,4.235,0,0,1,0,6.313l-1.18.994a1.61,1.61,0,0,0-.552,1.234v1.691a1.611,1.611,0,0,0,.552,1.233l1.178.992a4.236,4.236,0,0,1,0,6.314l-1.18.994a1.611,1.611,0,0,0-.552,1.234v1.69a1.612,1.612,0,0,0,.552,1.234l1.178.992a4.236,4.236,0,0,1,0,6.314l-1.18.994a1.609,1.609,0,0,0-.552,1.234v1.691a1.617,1.617,0,0,0,.552,1.235l1.178.991a4.236,4.236,0,0,1,0,6.314l-1.18,1a1.606,1.606,0,0,0-.552,1.232v1.692a1.614,1.614,0,0,0,.552,1.234l1.178.991a4.236,4.236,0,0,1,0,6.313l-1.18.995a1.608,1.608,0,0,0-.552,1.233v1.692a1.61,1.61,0,0,0,.552,1.233l1.178.992a4.237,4.237,0,0,1,0,6.314l-1.18.994a1.609,1.609,0,0,0-.552,1.233v1.691a1.611,1.611,0,0,0,.552,1.233l1.178.992a4.236,4.236,0,0,1,0,6.314l-1.18.994a1.611,1.611,0,0,0-.552,1.234v1.69a1.613,1.613,0,0,0,.552,1.234l1.178.992a4.236,4.236,0,0,1,0,6.314l-1.18.994a1.611,1.611,0,0,0-.552,1.234v1.69a1.614,1.614,0,0,0,.552,1.234l1.178.992a4.236,4.236,0,0,1,0,6.313l-1.18.995a1.609,1.609,0,0,0-.552,1.233v1.691a1.614,1.614,0,0,0,.552,1.234l1.178.992a4.236,4.236,0,0,1,0,6.314l-1.18.994a1.609,1.609,0,0,0-.552,1.234v1.69a1.612,1.612,0,0,0,.552,1.234l1.178.992a4.236,4.236,0,0,1,0,6.314l-1.18.994a1.61,1.61,0,0,0-.552,1.233v1.69a1.613,1.613,0,0,0,.552,1.235l1.178.992a4.236,4.236,0,0,1,0,6.313l-1.181.995a1.614,1.614,0,0,0-.551,1.233v1.69a1.613,1.613,0,0,0,.552,1.234l1.178.991a4.237,4.237,0,0,1,0,6.314l-1.181.995a1.613,1.613,0,0,0-.551,1.234v1.69a1.615,1.615,0,0,0,.552,1.234l1.178.991a4.236,4.236,0,0,1,0,6.314l-1.181,1a1.61,1.61,0,0,0-.551,1.233v1.691a1.613,1.613,0,0,0,.552,1.233l1.178.993a4.236,4.236,0,0,1,0,6.314l-1.181.994a1.612,1.612,0,0,0-.551,1.233v1.69a1.614,1.614,0,0,0,.552,1.234l1.179.992a4.236,4.236,0,0,1,0,6.314l-1.182,1a1.612,1.612,0,0,0-.551,1.233v1.689a1.613,1.613,0,0,0,.552,1.235l1.179.992a4.236,4.236,0,0,1,0,6.313l-1.182,1a1.61,1.61,0,0,0-.551,1.233v1.689a1.611,1.611,0,0,0,.552,1.234l1.179.992a4.235,4.235,0,0,1,0,6.313l-1.182,1a1.612,1.612,0,0,0-.551,1.234v1.689a1.612,1.612,0,0,0,.552,1.233l1.179.993a4.236,4.236,0,0,1,0,6.314l-1.18.994a1.611,1.611,0,0,0-.552,1.234v1.69a1.613,1.613,0,0,0,.552,1.233l1.179.993a4.236,4.236,0,0,1,0,6.314l-1.18,1a1.61,1.61,0,0,0-.552,1.233v1.689a1.614,1.614,0,0,0,.552,1.234l1.179.993a4.236,4.236,0,0,1,0,6.313l-1.18.995a1.61,1.61,0,0,0-.552,1.233v1.69a1.612,1.612,0,0,0,.552,1.234l1.179.993a4.236,4.236,0,0,1,0,6.313l-1.18,1a1.608,1.608,0,0,0-.552,1.233v1.69a1.612,1.612,0,0,0,.552,1.234l1.179.992a4.237,4.237,0,0,1,0,6.314l-1.18.995a1.608,1.608,0,0,0-.552,1.234v1.689a1.612,1.612,0,0,0,.552,1.233l1.179.993a4.236,4.236,0,0,1,0,6.313l-1.18.994a1.612,1.612,0,0,0-.552,1.235v1.689a1.611,1.611,0,0,0,.552,1.233l1.179.993a4.236,4.236,0,0,1,0,6.314l-1.18.995a1.609,1.609,0,0,0-.552,1.233v1.69a1.613,1.613,0,0,0,.552,1.234l1.179.993a4.237,4.237,0,0,1,0,6.314l-1.182,1a1.61,1.61,0,0,0-.551,1.233v1.69a1.614,1.614,0,0,0,.552,1.234l4.927,4.148h306.808l4.927-4.151a1.614,1.614,0,0,0,.551-1.233v-1.691a1.615,1.615,0,0,0-.552-1.234l-1.179-.991a4.236,4.236,0,0,1,0-6.314l1.18-.993a1.614,1.614,0,0,0,.551-1.233v-1.692a1.612,1.612,0,0,0-.552-1.233l-1.179-.992a4.236,4.236,0,0,1,0-6.314l1.18-.993a1.614,1.614,0,0,0,.551-1.234v-1.691a1.615,1.615,0,0,0-.552-1.234l-1.179-.991a4.236,4.236,0,0,1,0-6.314l1.18-.994a1.613,1.613,0,0,0,.551-1.234v-1.69a1.615,1.615,0,0,0-.552-1.234l-1.179-.992a4.235,4.235,0,0,1,0-6.313l1.18-.995a1.614,1.614,0,0,0,.551-1.234v-1.69a1.615,1.615,0,0,0-.552-1.234l-1.179-.991a4.236,4.236,0,0,1,0-6.314l1.18-.994a1.614,1.614,0,0,0,.551-1.233v-1.69a1.612,1.612,0,0,0-.552-1.234l-1.179-.992a4.236,4.236,0,0,1,0-6.314l1.18-.994a1.614,1.614,0,0,0,.551-1.233v-1.69a1.612,1.612,0,0,0-.552-1.234l-1.179-.992a4.236,4.236,0,0,1,0-6.314l1.18-.994a1.616,1.616,0,0,0,.551-1.235v-1.689a1.615,1.615,0,0,0-.552-1.235l-1.179-.991a4.235,4.235,0,0,1,0-6.314l1.18-.994a1.614,1.614,0,0,0,.551-1.234v-1.69a1.616,1.616,0,0,0-.552-1.235l-1.179-.991a4.235,4.235,0,0,1,0-6.314l1.18-.995a1.615,1.615,0,0,0,.551-1.234v-1.691a1.612,1.612,0,0,0-.552-1.233l-1.179-.992a4.236,4.236,0,0,1,0-6.314l1.18-.995a1.61,1.61,0,0,0,.551-1.233v-1.691a1.612,1.612,0,0,0-.552-1.234l-1.179-.992a4.235,4.235,0,0,1,0-6.314l1.18-1a1.612,1.612,0,0,0,.551-1.233v-1.69a1.614,1.614,0,0,0-.552-1.235l-1.179-.991a4.235,4.235,0,0,1,0-6.314l1.18-.994a1.615,1.615,0,0,0,.551-1.234v-1.691a1.614,1.614,0,0,0-.552-1.234l-1.179-.992a4.235,4.235,0,0,1,0-6.313l1.18-1a1.61,1.61,0,0,0,.551-1.233v-1.691a1.615,1.615,0,0,0-.552-1.234l-1.179-.991a4.236,4.236,0,0,1,0-6.314l1.18-.994a1.613,1.613,0,0,0,.551-1.233v-1.692a1.611,1.611,0,0,0-.552-1.233l-1.179-.992a4.236,4.236,0,0,1,0-6.314l1.18-.994a1.614,1.614,0,0,0,.551-1.234v-1.69a1.613,1.613,0,0,0-.552-1.234l-1.179-.992a4.235,4.235,0,0,1,0-6.314l1.18-.994a1.615,1.615,0,0,0,.551-1.234v-1.69a1.614,1.614,0,0,0-.552-1.234l-1.179-.992a4.235,4.235,0,0,1,0-6.314l1.18-1a1.614,1.614,0,0,0,.551-1.233v-1.69a1.616,1.616,0,0,0-.552-1.234l-1.179-.991a4.235,4.235,0,0,1,0-6.313l1.18-1a1.612,1.612,0,0,0,.551-1.233v-1.69a1.616,1.616,0,0,0-.552-1.234l-1.179-.992a4.235,4.235,0,0,1,0-6.313l1.18-.995a1.613,1.613,0,0,0,.551-1.234v-1.69a1.612,1.612,0,0,0-.552-1.233l-1.179-.992a4.236,4.236,0,0,1,0-6.314l1.18-.994a1.614,1.614,0,0,0,.551-1.233v-1.691a1.612,1.612,0,0,0-.552-1.233l-1.179-.993a4.236,4.236,0,0,1,0-6.314l1.181-1a1.613,1.613,0,0,0,.551-1.233v-1.689a1.614,1.614,0,0,0-.552-1.234l-1.179-.992a4.237,4.237,0,0,1,0-6.314l1.181-1a1.614,1.614,0,0,0,.551-1.233v-1.69a1.614,1.614,0,0,0-.552-1.234l-1.179-.991a4.236,4.236,0,0,1,0-6.313l1.181-1a1.615,1.615,0,0,0,.551-1.233v-1.691a1.613,1.613,0,0,0-.552-1.233l-1.18-.993a4.236,4.236,0,0,1,0-6.314l1.18-.995a1.613,1.613,0,0,0,.551-1.233v-1.689a1.613,1.613,0,0,0-.552-1.234l-1.18-.993a4.236,4.236,0,0,1,0-6.314l1.18-.994a1.612,1.612,0,0,0,.551-1.233v-1.69a1.613,1.613,0,0,0-.552-1.234l-1.18-.992a4.236,4.236,0,0,1,0-6.314l1.18-1a1.613,1.613,0,0,0,.551-1.233v-1.69a1.613,1.613,0,0,0-.552-1.234l-1.18-.993a4.235,4.235,0,0,1,0-6.313l1.18-1a1.613,1.613,0,0,0,.551-1.233v-1.69a1.616,1.616,0,0,0-.552-1.234l-1.18-.992a4.235,4.235,0,0,1,0-6.314l1.18-.994a1.614,1.614,0,0,0,.551-1.234v-1.69a1.611,1.611,0,0,0-.552-1.233l-1.18-.994a4.234,4.234,0,0,1,0-6.313l1.18-1a1.613,1.613,0,0,0,.551-1.234v-1.689a1.616,1.616,0,0,0-.552-1.234l-1.18-.992a4.235,4.235,0,0,1,0-6.313l1.18-1a1.613,1.613,0,0,0,.551-1.233v-1.689a1.614,1.614,0,0,0-.552-1.235l-1.18-.993A4.234,4.234,0,0,1-2817.136-2542.776Z" transform="translate(3136.871 2552.077)"/></g></svg>