<svg xmlns="http://www.w3.org/2000/svg" xmlns:xlink="http://www.w3.org/1999/xlink" width="205" height="89" viewBox="0 0 205 89"><defs><style>.a{fill:$springwood-background;stroke:#707070;}.b{clip-path:url(#a);}.c{fill:#fff;}</style><clipPath id="a"><rect class="a" width="205" height="89" transform="translate(0.165 4)"/></clipPath></defs><g class="b" transform="translate(-0.165 -4)"><path class="c" d="M-2932.467-2542.776l.75-1a2.109,2.109,0,0,0,.35-1.233v-1.689a2.109,2.109,0,0,0-.351-1.234l-3.129-4.148H-3129.69l-3.128,4.152a2.105,2.105,0,0,0-.351,1.233V-2545a2.114,2.114,0,0,0,.351,1.235l.748.992a6.005,6.005,0,0,1,0,6.313l-.749.993a2.109,2.109,0,0,0-.351,1.234v1.691a2.11,2.11,0,0,0,.351,1.234l.748.992a6.005,6.005,0,0,1,0,6.314l-.749.994a2.11,2.11,0,0,0-.351,1.234v1.691a2.107,2.107,0,0,0,.351,1.233l.748.992a6.005,6.005,0,0,1,0,6.314l-.749.994a2.109,2.109,0,0,0-.351,1.234v1.69a2.111,2.111,0,0,0,.351,1.235l.748.992a6.007,6.007,0,0,1,0,6.314l-.749.994a2.106,2.106,0,0,0-.351,1.234v1.69a2.109,2.109,0,0,0,.351,1.234l.748.992a6.005,6.005,0,0,1,0,6.313l-.749.995a2.106,2.106,0,0,0-.351,1.233v1.692a2.108,2.108,0,0,0,.351,1.233l.748.993a6.005,6.005,0,0,1,0,6.313l-.749.994a2.108,2.108,0,0,0-.351,1.234v1.691a2.109,2.109,0,0,0,.351,1.233l.748.992a6.006,6.006,0,0,1,0,6.314l-.749.994a2.108,2.108,0,0,0-.351,1.234v1.69a2.11,2.11,0,0,0,.351,1.234l.748.992a6.006,6.006,0,0,1,0,6.314l-.749.994a2.105,2.105,0,0,0-.351,1.234v1.691a2.117,2.117,0,0,0,.351,1.235l.748.991a6.006,6.006,0,0,1,0,6.314l-.749,1a2.1,2.1,0,0,0-.351,1.232v1.692a2.114,2.114,0,0,0,.351,1.234l.748.991a6.006,6.006,0,0,1,0,6.313l-.749.995a2.1,2.1,0,0,0-.351,1.233v1.692a2.108,2.108,0,0,0,.351,1.233l.748.992a6.007,6.007,0,0,1,0,6.314l-.749.994a2.105,2.105,0,0,0-.351,1.233v1.691a2.109,2.109,0,0,0,.351,1.233l.748.992a6.006,6.006,0,0,1,0,6.314l-.749.994a2.109,2.109,0,0,0-.351,1.234v1.69a2.111,2.111,0,0,0,.351,1.234l.748.992a6.006,6.006,0,0,1,0,6.314l-.749.994a2.109,2.109,0,0,0-.351,1.234v1.69a2.113,2.113,0,0,0,.351,1.234l.748.992a6.006,6.006,0,0,1,0,6.313l-.749.995a2.106,2.106,0,0,0-.351,1.233v1.691a2.113,2.113,0,0,0,.351,1.234l.748.992a6.006,6.006,0,0,1,0,6.314l-.749.994a2.106,2.106,0,0,0-.351,1.234v1.69a2.111,2.111,0,0,0,.351,1.234l.748.992a6.006,6.006,0,0,1,0,6.314l-.749.994a2.107,2.107,0,0,0-.351,1.233v1.69a2.112,2.112,0,0,0,.351,1.235l.748.992a6.007,6.007,0,0,1,0,6.313l-.75.995a2.114,2.114,0,0,0-.35,1.233v1.69a2.111,2.111,0,0,0,.351,1.234l.748.991a6.008,6.008,0,0,1,0,6.314l-.75.995a2.112,2.112,0,0,0-.35,1.234v1.69a2.114,2.114,0,0,0,.351,1.234l.748.991a6.008,6.008,0,0,1,0,6.314l-.75,1a2.107,2.107,0,0,0-.35,1.233v1.691a2.111,2.111,0,0,0,.351,1.233l.748.993a6.008,6.008,0,0,1,0,6.314l-.75.994a2.109,2.109,0,0,0-.35,1.233v1.69a2.113,2.113,0,0,0,.351,1.234l.749.992a6.009,6.009,0,0,1,0,6.314l-.75,1a2.109,2.109,0,0,0-.35,1.233v1.689a2.112,2.112,0,0,0,.351,1.235l.749.992a6.008,6.008,0,0,1,0,6.313l-.75,1a2.107,2.107,0,0,0-.35,1.233v1.689a2.109,2.109,0,0,0,.351,1.234l.749.992a6.008,6.008,0,0,1,0,6.313l-.75,1a2.11,2.11,0,0,0-.35,1.234v1.689a2.11,2.11,0,0,0,.351,1.233l.749.993a6.008,6.008,0,0,1,0,6.314l-.75.994a2.11,2.11,0,0,0-.351,1.234v1.69a2.111,2.111,0,0,0,.351,1.233l.749.993a6.008,6.008,0,0,1,0,6.314l-.75,1a2.107,2.107,0,0,0-.351,1.233v1.689a2.113,2.113,0,0,0,.351,1.234l.749.993a6.006,6.006,0,0,1,0,6.313l-.75.995a2.107,2.107,0,0,0-.351,1.233v1.69a2.11,2.11,0,0,0,.351,1.234l.749.993a6.007,6.007,0,0,1,0,6.313l-.75,1a2.1,2.1,0,0,0-.351,1.233v1.69a2.11,2.11,0,0,0,.351,1.234l.749.992a6.009,6.009,0,0,1,0,6.314l-.75.995a2.1,2.1,0,0,0-.351,1.234v1.689a2.11,2.11,0,0,0,.351,1.233l.749.993a6.007,6.007,0,0,1,0,6.313l-.75.994a2.11,2.11,0,0,0-.351,1.235v1.689a2.109,2.109,0,0,0,.351,1.233l.749.993a6.008,6.008,0,0,1,0,6.314l-.75.995a2.106,2.106,0,0,0-.351,1.233v1.69a2.111,2.111,0,0,0,.351,1.234l.749.993a6.009,6.009,0,0,1,0,6.314l-.75,1a2.107,2.107,0,0,0-.35,1.233v1.69a2.113,2.113,0,0,0,.351,1.234l3.129,4.148h194.843l3.129-4.151a2.113,2.113,0,0,0,.35-1.233v-1.691a2.111,2.111,0,0,0-.351-1.234l-.748-.991a6.006,6.006,0,0,1,0-6.314l.75-.993a2.112,2.112,0,0,0,.35-1.233v-1.692a2.107,2.107,0,0,0-.351-1.233l-.748-.992a6.007,6.007,0,0,1,0-6.314l.75-.993a2.112,2.112,0,0,0,.35-1.234v-1.691a2.112,2.112,0,0,0-.351-1.234l-.748-.991a6.007,6.007,0,0,1,0-6.314l.75-.994a2.111,2.111,0,0,0,.35-1.234v-1.69a2.111,2.111,0,0,0-.351-1.234l-.748-.992a6,6,0,0,1,0-6.313l.75-.995a2.113,2.113,0,0,0,.35-1.234v-1.69a2.112,2.112,0,0,0-.351-1.234l-.748-.991a6.006,6.006,0,0,1,0-6.314l.75-.994a2.113,2.113,0,0,0,.35-1.233v-1.69a2.108,2.108,0,0,0-.351-1.234l-.748-.992a6.006,6.006,0,0,1,0-6.314l.75-.994a2.113,2.113,0,0,0,.35-1.233v-1.69a2.108,2.108,0,0,0-.351-1.234l-.748-.992a6.007,6.007,0,0,1,0-6.314l.75-.994a2.116,2.116,0,0,0,.35-1.235v-1.689a2.112,2.112,0,0,0-.351-1.235l-.748-.991a6.006,6.006,0,0,1,0-6.314l.75-.994a2.113,2.113,0,0,0,.35-1.234v-1.69a2.113,2.113,0,0,0-.351-1.235l-.748-.991a6.006,6.006,0,0,1,0-6.314l.75-.995a2.114,2.114,0,0,0,.35-1.234v-1.691a2.107,2.107,0,0,0-.351-1.233l-.748-.992a6.006,6.006,0,0,1,0-6.314l.75-.995a2.107,2.107,0,0,0,.35-1.233v-1.691a2.108,2.108,0,0,0-.351-1.234l-.748-.992a6.006,6.006,0,0,1,0-6.314l.75-1a2.11,2.11,0,0,0,.35-1.233v-1.69a2.11,2.11,0,0,0-.351-1.235l-.748-.991a6.006,6.006,0,0,1,0-6.314l.75-.994a2.113,2.113,0,0,0,.35-1.234v-1.691a2.11,2.11,0,0,0-.351-1.234l-.748-.992a6.006,6.006,0,0,1,0-6.313l.75-1a2.106,2.106,0,0,0,.35-1.233v-1.691a2.111,2.111,0,0,0-.351-1.234l-.748-.991a6.006,6.006,0,0,1,0-6.314l.75-.994a2.111,2.111,0,0,0,.35-1.233v-1.692a2.106,2.106,0,0,0-.351-1.233l-.748-.992a6.007,6.007,0,0,1,0-6.314l.75-.994a2.113,2.113,0,0,0,.35-1.234v-1.69a2.108,2.108,0,0,0-.351-1.234l-.748-.992a6.006,6.006,0,0,1,0-6.314l.75-.994a2.114,2.114,0,0,0,.35-1.234v-1.69a2.11,2.11,0,0,0-.351-1.234l-.749-.992a6,6,0,0,1,0-6.314l.75-1a2.112,2.112,0,0,0,.35-1.233v-1.69a2.113,2.113,0,0,0-.351-1.234l-.749-.991a6,6,0,0,1,0-6.313l.75-1a2.11,2.11,0,0,0,.35-1.233v-1.69a2.113,2.113,0,0,0-.351-1.234l-.749-.992a6,6,0,0,1,0-6.313l.75-.995a2.111,2.111,0,0,0,.35-1.234v-1.69a2.107,2.107,0,0,0-.351-1.233l-.749-.992a6.006,6.006,0,0,1,0-6.314l.75-.994a2.113,2.113,0,0,0,.35-1.233v-1.691a2.107,2.107,0,0,0-.351-1.233l-.749-.993a6.006,6.006,0,0,1,0-6.314l.75-1a2.112,2.112,0,0,0,.35-1.233v-1.689a2.11,2.11,0,0,0-.351-1.234l-.749-.992a6.007,6.007,0,0,1,0-6.314l.75-1a2.112,2.112,0,0,0,.35-1.233v-1.69a2.11,2.11,0,0,0-.351-1.234l-.749-.991a6.006,6.006,0,0,1,0-6.313l.75-1a2.114,2.114,0,0,0,.35-1.233v-1.691a2.109,2.109,0,0,0-.351-1.233l-.749-.993a6.005,6.005,0,0,1,0-6.314l.75-.995a2.111,2.111,0,0,0,.35-1.233v-1.689a2.109,2.109,0,0,0-.351-1.234l-.749-.993a6.007,6.007,0,0,1,0-6.314l.75-.994a2.109,2.109,0,0,0,.35-1.233v-1.69a2.109,2.109,0,0,0-.351-1.234l-.749-.992a6.005,6.005,0,0,1,0-6.314l.75-1a2.11,2.11,0,0,0,.35-1.233v-1.69a2.109,2.109,0,0,0-.351-1.234l-.749-.993a6.005,6.005,0,0,1,0-6.313l.75-1a2.111,2.111,0,0,0,.35-1.233v-1.69a2.113,2.113,0,0,0-.351-1.234l-.749-.992a6,6,0,0,1,0-6.314l.75-.994a2.113,2.113,0,0,0,.35-1.234v-1.69a2.105,2.105,0,0,0-.351-1.233l-.749-.994a6,6,0,0,1,0-6.313l.75-1a2.112,2.112,0,0,0,.35-1.234v-1.689a2.112,2.112,0,0,0-.351-1.234l-.749-.992a6,6,0,0,1,0-6.313l.75-1a2.111,2.111,0,0,0,.35-1.233v-1.689a2.11,2.11,0,0,0-.351-1.235l-.749-.993A6,6,0,0,1-2932.467-2542.776Z" transform="translate(3135.58 2552.077)"/></g></svg>