<svg xmlns="http://www.w3.org/2000/svg" width="189.355" height="63.983" viewBox="0 0 189.355 63.983"><g transform="translate(0 0)"><path d="M2349.275,818.114v-43.93h14.233v6.161a18.054,18.054,0,0,1,5.565-4.95,16.6,16.6,0,0,1,8.583-2.061,13.838,13.838,0,0,1,4.5.786,15.061,15.061,0,0,1,4.313,2.337,14,14,0,0,1,3.42,3.844,18.492,18.492,0,0,1,5.566-4.928,14.8,14.8,0,0,1,7.69-2.039,15.47,15.47,0,0,1,5.012.871,13.709,13.709,0,0,1,4.653,2.72,13.457,13.457,0,0,1,3.4,4.822,18.177,18.177,0,0,1,1.3,7.264v29.1H2403.02v-27.19a5.744,5.744,0,0,0-.913-3.378,5.5,5.5,0,0,0-2.315-1.911,7.216,7.216,0,0,0-2.933-.617,7.535,7.535,0,0,0-2.888.6,5.939,5.939,0,0,0-2.423,1.827,4.9,4.9,0,0,0-.977,3.144v27.53h-14.445V790.37a4.674,4.674,0,0,0-.913-2.931,5.858,5.858,0,0,0-2.295-1.805,6.963,6.963,0,0,0-2.867-.617,7.472,7.472,0,0,0-2.911.617,5.826,5.826,0,0,0-2.421,1.869,4.929,4.929,0,0,0-.956,3.08v27.53Z" transform="translate(-2349.275 -754.98)"/><path d="M2464.446,751.026V763.6H2450.51V751.026Zm-.084,17.5v43.93H2450.6V768.53Z" transform="translate(-2374.929 -749.327)"/><path d="M2479.814,818.316v-43.93h14.318v6.161a14.7,14.7,0,0,1,2.486-3,12.593,12.593,0,0,1,3.95-2.444,15.519,15.519,0,0,1,5.842-.977,18.685,18.685,0,0,1,7.457,1.507,12.862,12.862,0,0,1,5.715,4.844,15.563,15.563,0,0,1,2.209,8.731v29.1H2507.26v-27.19a5.193,5.193,0,0,0-1.869-4.355,6.757,6.757,0,0,0-4.291-1.466,8.683,8.683,0,0,0-3.186.616,6.351,6.351,0,0,0-2.592,1.827,4.557,4.557,0,0,0-1.019,3.038v27.53Z" transform="translate(-2382.355 -755.182)"/><path d="M2562.1,812.733q-8.966,0-13.872-6.2t-4.907-16.868a32.254,32.254,0,0,1,2.018-11.98,17.083,17.083,0,0,1,5.884-7.818,15.73,15.73,0,0,1,9.389-2.762,17.45,17.45,0,0,1,7.415,1.635,12.905,12.905,0,0,1,3.016,1.955,10.473,10.473,0,0,1,2.231,2.74V748.75h14.53v63.134H2577.48l-1.7-9.007a18.029,18.029,0,0,1-1.806,3.845,12.732,12.732,0,0,1-2.761,3.144,12.358,12.358,0,0,1-3.887,2.1A16.279,16.279,0,0,1,2562.1,812.733Zm3.313-10.239a6.7,6.7,0,0,0,5.82-2.889q2.041-2.888,2.04-10.026a21.927,21.927,0,0,0-.913-6.9,7.931,7.931,0,0,0-2.635-3.973,6.976,6.976,0,0,0-4.269-1.275,7.237,7.237,0,0,0-5.757,2.741q-2.317,2.739-2.316,9.411,0,6.882,2.252,9.9A6.911,6.911,0,0,0,2565.414,802.495Z" transform="translate(-2398.449 -748.75)"/></g></svg>