<svg xmlns="http://www.w3.org/2000/svg" width="126" height="69" viewBox="0 0 126 69"><defs><style>.a{fill:#ed9075;}.b{fill:none;stroke:#212121;stroke-linecap:round;stroke-linejoin:round;stroke-width:3px;}.c{fill:#9dbbc5;}.d{fill:#e6b8aa;}.e{fill:#feb981;}.f{fill:#d5d8b1;}.g{fill:#faf377;}.h{fill:#dacbd4;}</style></defs><g transform="translate(-894 -347)"><g transform="matrix(1, -0.017, 0.017, 1, -2.676, 233.785)"><g transform="matrix(0.985, 0.174, -0.174, 0.985, 41.461, -167.483)"><path class="a" d="M0,0H34.453a0,0,0,0,1,0,0V25.007a5,5,0,0,1-5,5H3a3,3,0,0,1-3-3V0A0,0,0,0,1,0,0Z" transform="translate(945.04 153.839)"/><g transform="translate(944.639 145.463)"><path class="b" d="M10.246,3,4.5,10.662V37.478a3.831,3.831,0,0,0,3.831,3.831H35.147a3.831,3.831,0,0,0,3.831-3.831V10.662L33.232,3Z" transform="translate(-4.5 -3)"/><path class="b" d="M4.5,9H38.978" transform="translate(-4.5 -1.338)"/><path class="b" d="M27.324,15A7.662,7.662,0,0,1,12,15" transform="translate(-2.423 0.324)"/></g></g></g><circle class="c" cx="3" cy="3" r="3" transform="translate(986 350)"/><circle class="d" cx="3" cy="3" r="3" transform="translate(894 386)"/><circle class="e" cx="3" cy="3" r="3" transform="translate(976 410)"/><circle class="f" cx="3" cy="3" r="3" transform="translate(915 347)"/><circle class="g" cx="3" cy="3" r="3" transform="translate(1014 380)"/><circle class="h" cx="3" cy="3" r="3" transform="translate(924 376)"/></g></svg>