<svg xmlns="http://www.w3.org/2000/svg" width="87.753" height="63.164" viewBox="0 0 87.753 63.164"><defs><style>.a{fill:#f5e7e3;}.a,.c,.d{stroke:#457a86;stroke-width:4px;}.a,.c{stroke-miterlimit:10;}.b{fill:#457a86;}.c,.d{fill:none;stroke-linecap:round;}.e{fill:#ed9075;}</style></defs><g transform="translate(-392.485 -6794.407)"><g transform="translate(394.323 6796.407)"><path class="a" d="M2842.915,1135.65v41.663a4.182,4.182,0,0,1-4.182,4.182h-75.389a4.182,4.182,0,0,1-4.182-4.182v-50.8a4.182,4.182,0,0,1,4.182-4.181h75.389a4.182,4.182,0,0,1,4.182,4.181v8.325H2759" transform="translate(-2759 -1122.331)"/><g transform="translate(6.505 4.446)"><circle class="b" cx="1.626" cy="1.626" r="1.626" transform="translate(13.01 0)"/><circle class="b" cx="1.626" cy="1.626" r="1.626" transform="translate(0 0)"/><circle class="b" cx="1.626" cy="1.626" r="1.626" transform="translate(6.505 0)"/></g><line class="c" x2="32.702" transform="translate(6.667 22.498)"/><path class="d" d="M0,0H21.323" transform="translate(6.667 32.906)"/></g><rect class="e" width="24" height="23" rx="3" transform="translate(447 6816)"/></g></svg>