<svg xmlns="http://www.w3.org/2000/svg" width="157.054" height="63.652" viewBox="0 0 157.054 63.652"><g transform="translate(0)"><path d="M2367.1,650.081a26.855,26.855,0,0,1-8.918-1.521,18.1,18.1,0,0,1-7.439-4.861,16.434,16.434,0,0,1-3.973-8.707h12.342a6.169,6.169,0,0,0,1.987,3.424,7.936,7.936,0,0,0,3.064,1.607,11.552,11.552,0,0,0,2.853.422,12.316,12.316,0,0,0,5.071-.887,2.875,2.875,0,0,0,1.946-2.706,2.781,2.781,0,0,0-1.205-2.388,10.658,10.658,0,0,0-4.206-1.373l-7.058-1.311a20.97,20.97,0,0,1-9.72-4.205q-3.677-3.064-3.719-8.685a12.264,12.264,0,0,1,2.155-7.227,14.813,14.813,0,0,1,6.467-5.093,25.849,25.849,0,0,1,10.44-1.881q8.537,0,13.566,3.719a12.177,12.177,0,0,1,5.073,10.27H2373.99a4.994,4.994,0,0,0-2.388-3.4,8.7,8.7,0,0,0-4.585-1.162,10.2,10.2,0,0,0-4.543.908,2.911,2.911,0,0,0-1.838,2.726,2.522,2.522,0,0,0,1.606,2.24,19.676,19.676,0,0,0,5.113,1.522l6.383,1.311a20.415,20.415,0,0,1,6.381,2.6,13.961,13.961,0,0,1,3.783,3.529,11.8,11.8,0,0,1,1.817,3.783,13.525,13.525,0,0,1,.486,3.318,11.947,11.947,0,0,1-2.472,7.65,15.275,15.275,0,0,1-6.8,4.755A27.819,27.819,0,0,1,2367.1,650.081Z" transform="translate(-2346.771 -586.429)"/><path d="M2452.058,642.911h-14.116l-10.989-17.456-4.48,4.945v12.511H2408.06V580.1h14.412v35.5l14.031-16.4h15.216l-15.892,17.752Z" transform="translate(-2362.54 -580.104)"/><path d="M2486.569,582.381v12.511h-13.864V582.381Zm-.085,17.413v43.7h-13.695v-43.7Z" transform="translate(-2379.173 -580.69)"/><path d="M2502.01,649.441v-43.7h14.244v6.129a14.594,14.594,0,0,1,2.472-2.98,12.507,12.507,0,0,1,3.93-2.43,15.432,15.432,0,0,1,5.811-.972,18.578,18.578,0,0,1,7.418,1.5,12.8,12.8,0,0,1,5.684,4.818,15.484,15.484,0,0,1,2.2,8.686v28.952h-14.454V622.391a5.169,5.169,0,0,0-1.859-4.332,6.724,6.724,0,0,0-4.269-1.459,8.654,8.654,0,0,0-3.17.613,6.321,6.321,0,0,0-2.578,1.818,4.527,4.527,0,0,0-1.015,3.021v27.388Z" transform="translate(-2386.713 -586.634)"/></g></svg>