<svg xmlns="http://www.w3.org/2000/svg" width="172.929" height="45.112" viewBox="0 0 172.929 45.112">
  <g id="Group_7" data-name="Group 7" transform="translate(-64.915)">
    <g id="Group_6" data-name="Group 6" transform="translate(64.915 0)">
      <g id="Group_3" data-name="Group 3" transform="translate(0)">
        <path id="Path_27" data-name="Path 27" d="M774.662,501.708A26.664,26.664,0,0,1,765.8,500.2a17.973,17.973,0,0,1-7.393-4.83,16.327,16.327,0,0,1-3.949-8.653h12.265a6.128,6.128,0,0,0,1.974,3.4,7.882,7.882,0,0,0,3.045,1.6,11.465,11.465,0,0,0,2.835.42,12.24,12.24,0,0,0,5.041-.882,2.857,2.857,0,0,0,1.932-2.689,2.765,2.765,0,0,0-1.2-2.374,10.6,10.6,0,0,0-4.18-1.365l-7.015-1.3a20.853,20.853,0,0,1-9.661-4.179q-3.655-3.045-3.7-8.632a12.189,12.189,0,0,1,2.142-7.183,14.721,14.721,0,0,1,6.427-5.061,25.7,25.7,0,0,1,10.375-1.869q8.484,0,13.483,3.7a12.1,12.1,0,0,1,5.04,10.207H781.509a4.966,4.966,0,0,0-2.374-3.381,8.647,8.647,0,0,0-4.557-1.155,10.139,10.139,0,0,0-4.515.9,2.893,2.893,0,0,0-1.827,2.709,2.508,2.508,0,0,0,1.6,2.226,19.549,19.549,0,0,0,5.082,1.513l6.343,1.3A20.305,20.305,0,0,1,787.6,477.2a13.861,13.861,0,0,1,3.76,3.508,11.712,11.712,0,0,1,1.806,3.759,13.412,13.412,0,0,1,.483,3.3,11.876,11.876,0,0,1-2.457,7.6,15.176,15.176,0,0,1-6.762,4.726A27.647,27.647,0,0,1,774.662,501.708Z" transform="translate(-754.458 -456.596)"/>
        <path id="Path_28" data-name="Path 28" d="M945.7,501.708a22.339,22.339,0,0,1-11.383-2.793,19.14,19.14,0,0,1-7.477-7.813,24.728,24.728,0,0,1-2.647-11.7,25.277,25.277,0,0,1,2.71-11.95,19.763,19.763,0,0,1,7.56-8,23.951,23.951,0,0,1,22.725.021,19.425,19.425,0,0,1,7.434,8.022,25.859,25.859,0,0,1,2.625,11.909,24.679,24.679,0,0,1-2.6,11.53,19.424,19.424,0,0,1-7.435,7.9A22.079,22.079,0,0,1,945.7,501.708Zm.084-10.5a5.778,5.778,0,0,0,4.536-1.827,10.45,10.45,0,0,0,2.311-4.662,24.978,24.978,0,0,0,.672-5.776,25.525,25.525,0,0,0-.63-5.671,9.807,9.807,0,0,0-2.268-4.557,5.956,5.956,0,0,0-4.62-1.785,6.1,6.1,0,0,0-4.642,1.743,9.705,9.705,0,0,0-2.331,4.494,24.244,24.244,0,0,0-.672,5.776,26.173,26.173,0,0,0,.63,5.691,10.3,10.3,0,0,0,2.289,4.7A5.986,5.986,0,0,0,945.787,491.207Z" transform="translate(-882.487 -456.596)"/>
        <path id="Path_29" data-name="Path 29" d="M1116.5,502.673V459.241h14.155v6.09a14.57,14.57,0,0,1,2.458-2.961,12.453,12.453,0,0,1,3.906-2.415,15.334,15.334,0,0,1,5.775-.966,18.458,18.458,0,0,1,7.372,1.491,12.708,12.708,0,0,1,5.65,4.788A15.385,15.385,0,0,1,1158,473.9v28.773H1143.63V475.791a5.139,5.139,0,0,0-1.848-4.305,6.689,6.689,0,0,0-4.242-1.449,8.573,8.573,0,0,0-3.151.609,6.277,6.277,0,0,0-2.562,1.806,4.506,4.506,0,0,0-1.008,3v27.219Z" transform="translate(-1027.532 -458.401)"/>
        <path id="Path_30" data-name="Path 30" d="M1318.916,501.708a26.66,26.66,0,0,1-8.863-1.512,17.972,17.972,0,0,1-7.393-4.83,16.321,16.321,0,0,1-3.948-8.653h12.265a6.128,6.128,0,0,0,1.974,3.4,7.887,7.887,0,0,0,3.045,1.6,11.467,11.467,0,0,0,2.835.42,12.24,12.24,0,0,0,5.041-.882,2.857,2.857,0,0,0,1.932-2.689,2.765,2.765,0,0,0-1.2-2.374,10.6,10.6,0,0,0-4.179-1.365l-7.015-1.3a20.853,20.853,0,0,1-9.661-4.179q-3.655-3.045-3.7-8.632a12.19,12.19,0,0,1,2.142-7.183,14.723,14.723,0,0,1,6.427-5.061A25.7,25.7,0,0,1,1319,456.6q8.484,0,13.484,3.7a12.1,12.1,0,0,1,5.04,10.207h-11.761a4.966,4.966,0,0,0-2.374-3.381,8.647,8.647,0,0,0-4.557-1.155,10.139,10.139,0,0,0-4.515.9,2.893,2.893,0,0,0-1.827,2.709,2.509,2.509,0,0,0,1.6,2.226,19.559,19.559,0,0,0,5.083,1.513l6.343,1.3a20.3,20.3,0,0,1,6.342,2.583,13.859,13.859,0,0,1,3.76,3.508,11.713,11.713,0,0,1,1.806,3.759,13.426,13.426,0,0,1,.483,3.3,11.875,11.875,0,0,1-2.457,7.6,15.173,15.173,0,0,1-6.762,4.726A27.647,27.647,0,0,1,1318.916,501.708Z" transform="translate(-1164.972 -456.596)"/>
      </g>
    </g>
  </g>
</svg>
