<svg xmlns="http://www.w3.org/2000/svg" width="237.844" height="63.802" viewBox="0 0 237.844 63.802"><g transform="translate(0)"><g transform="translate(0 54.667)"><path d="M490.288,689.634v-6.691h1.962l1.532,4.771,1.546-4.771h1.958v6.691H495.92v-5.114l-1.611,5.114h-1.06l-1.6-5.09v5.09Z" transform="translate(-490.288 -681.99)"/><path d="M531.114,689.634l2.392-6.691h1.43l2.392,6.691h-1.347l-.546-1.55h-2.411l-.555,1.55Zm2.217-2.73h1.777l-.884-2.661Z" transform="translate(-521.082 -681.99)"/><path d="M568.776,682.943h.835l.634,0q.317,0,.53.007a4.488,4.488,0,0,1,1.985.44,2.54,2.54,0,0,1,1.127,1.136,3.877,3.877,0,0,1,.359,1.728,3.972,3.972,0,0,1-.379,1.8,2.636,2.636,0,0,1-1.159,1.168,4.211,4.211,0,0,1-1.978.412h-1.953Zm1.36,1.092v4.507h.62a2.407,2.407,0,0,0,1.044-.222,1.682,1.682,0,0,0,.752-.727,2.756,2.756,0,0,0,.283-1.346,2.792,2.792,0,0,0-.25-1.271,1.56,1.56,0,0,0-.712-.715,2.465,2.465,0,0,0-1.1-.227Z" transform="translate(-549.489 -681.99)"/><path d="M604.179,689.634v-6.691h4.595l0,1.138h-3.235v1.624h2.809v1.12h-2.818v1.657l3.295,0v1.148Z" transform="translate(-576.192 -681.99)"/><path d="M653.139,682.943h1.346v6.691h-1.346Z" transform="translate(-613.122 -681.99)"/><path d="M677.4,682.943h1.351v6.691h-1.217l-3.179-4.6v4.6h-1.347v-6.691h1.337l3.054,4.428Z" transform="translate(-628.107 -681.99)"/><path d="M727.522,682.943h1.361v5.548h2.906v1.143h-4.267Z" transform="translate(-669.226 -681.99)"/><path d="M756.108,689.634l2.393-6.691h1.43l2.392,6.691h-1.346l-.546-1.55h-2.411l-.555,1.55Zm2.217-2.73H760.1l-.884-2.661Z" transform="translate(-690.788 -681.99)"/><path d="M793.771,689.634v-6.691H796.2a3.4,3.4,0,0,1,1.95.451,1.5,1.5,0,0,1,.636,1.308,1.478,1.478,0,0,1-.255.863,2.02,2.02,0,0,1-.907.641,2.07,2.07,0,0,1,.68.287,1.37,1.37,0,0,1,.588.858,2.26,2.26,0,0,1,.051.47,1.563,1.563,0,0,1-.629,1.37,3.536,3.536,0,0,1-2,.444Zm1.346-3.924h1.291a1.624,1.624,0,0,0,.4-.049,1.081,1.081,0,0,0,.343-.15.747.747,0,0,0,.239-.262.773.773,0,0,0,.088-.377.749.749,0,0,0-.326-.659,1.443,1.443,0,0,0-.835-.224h-1.2Zm0,2.878h1.217a1.474,1.474,0,0,0,.921-.245.86.86,0,0,0,.162-1.154.931.931,0,0,0-.414-.3,1.629,1.629,0,0,0-.595-.1h-1.291Z" transform="translate(-719.196 -681.99)"/><path d="M829.731,689.471a3.816,3.816,0,0,1-.972-.125,3.056,3.056,0,0,1-.87-.375,2.223,2.223,0,0,1-.65-.625,1.852,1.852,0,0,1-.308-.88h1.383a1.087,1.087,0,0,0,.264.514,1.266,1.266,0,0,0,.49.32,1.857,1.857,0,0,0,.657.111,2.322,2.322,0,0,0,.675-.093,1.124,1.124,0,0,0,.488-.28.645.645,0,0,0,.183-.47.6.6,0,0,0-.148-.417,1.074,1.074,0,0,0-.4-.264,3.329,3.329,0,0,0-.578-.167l-1.157-.236a2.177,2.177,0,0,1-1.2-.6,1.741,1.741,0,0,1-.458-1.228,1.761,1.761,0,0,1,.336-1.09,2.188,2.188,0,0,1,.925-.71,3.3,3.3,0,0,1,1.312-.25,3.483,3.483,0,0,1,1.456.271,2.1,2.1,0,0,1,.9.731,1.869,1.869,0,0,1,.317,1.03h-1.356a1.024,1.024,0,0,0-.213-.562.98.98,0,0,0-.451-.3,1.964,1.964,0,0,0-.627-.092,1.844,1.844,0,0,0-.488.06,1.165,1.165,0,0,0-.372.169.79.79,0,0,0-.236.257.669.669,0,0,0-.083.333.615.615,0,0,0,.194.472,1.613,1.613,0,0,0,.726.3l1.147.236a2.782,2.782,0,0,1,.979.356,1.73,1.73,0,0,1,.546.532,1.77,1.77,0,0,1,.241.6,3.1,3.1,0,0,1,.058.567,1.536,1.536,0,0,1-.34.974,2.292,2.292,0,0,1-.946.685A3.668,3.668,0,0,1,829.731,689.471Z" transform="translate(-744.208 -681.734)"/><path d="M880.268,688.2h-.986v-9.135h.986Z" transform="translate(-783.695 -679.064)"/><path d="M915.665,689.634v-6.691h2.152a3.165,3.165,0,0,1,1.849.449,1.5,1.5,0,0,1,.627,1.3,1.511,1.511,0,0,1-.276.912,1.97,1.97,0,0,1-.965.625,2.248,2.248,0,0,1,.664.241,1.5,1.5,0,0,1,.435.368,1.349,1.349,0,0,1,.236.465,1.967,1.967,0,0,1,.072.537,1.534,1.534,0,0,1-.646,1.353,3.4,3.4,0,0,1-1.927.447Zm.856-3.748h1.458a2.7,2.7,0,0,0,.523-.051,1.554,1.554,0,0,0,.477-.176,1,1,0,0,0,.352-.336,1.076,1.076,0,0,0-.312-1.393,2.153,2.153,0,0,0-1.159-.28h-1.337Zm0,3.035h1.356a2.412,2.412,0,0,0,1.275-.275.932.932,0,0,0,.437-.849,1.04,1.04,0,0,0-.215-.683,1.23,1.23,0,0,0-.581-.382,2.6,2.6,0,0,0-.814-.12h-1.458Z" transform="translate(-811.137 -681.99)"/><path d="M946.962,689.634l2.425-6.691h.967l2.42,6.691H951.9l-.658-1.828H948.5l-.662,1.828Zm1.763-2.619h2.282l-1.139-3.234Z" transform="translate(-834.743 -681.99)"/><path d="M984.006,682.567a2.608,2.608,0,0,1,1.254.294,2.439,2.439,0,0,1,.879.784,2.306,2.306,0,0,1,.393,1.078h-.911a1.95,1.95,0,0,0-.282-.713,1.544,1.544,0,0,0-.546-.509,1.63,1.63,0,0,0-.81-.19,1.78,1.78,0,0,0-1.025.285,1.734,1.734,0,0,0-.634.877,4.515,4.515,0,0,0-.215,1.518,3.5,3.5,0,0,0,.478,2.052,1.621,1.621,0,0,0,1.4.655,1.519,1.519,0,0,0,1.356-.731,2.084,2.084,0,0,0,.282-.722h.911a2.8,2.8,0,0,1-.229.822,2.37,2.37,0,0,1-.488.706,2.241,2.241,0,0,1-.761.49,2.807,2.807,0,0,1-1.048.181,2.771,2.771,0,0,1-1.539-.412,2.6,2.6,0,0,1-.972-1.184,4.664,4.664,0,0,1-.335-1.865,4.613,4.613,0,0,1,.333-1.851,2.52,2.52,0,0,1,.969-1.164A2.84,2.84,0,0,1,984.006,682.567Z" transform="translate(-860.538 -681.706)"/><path d="M1022.043,689.634h-.967l-2.086-3.438-1.161,1.328v2.11h-.889v-6.691h.889V686.4l3-3.461h1.023l-2.235,2.628Z" transform="translate(-887.524 -681.99)"/><path d="M1050.91,689.634v-6.691h4.22l0,.755h-3.354v2.184h3.022v.75h-3.026v2.23l3.452.009v.764Z" transform="translate(-913.148 -681.99)"/><path d="M1082.811,682.943l.2,0q.164,0,.4,0t.49,0l.467.007a4.646,4.646,0,0,1,2,.4,2.41,2.41,0,0,1,1.124,1.108,4.009,4.009,0,0,1,.359,1.786,4.067,4.067,0,0,1-.386,1.865,2.519,2.519,0,0,1-1.175,1.138,4.576,4.576,0,0,1-2.006.384h-1.467Zm.879.736v5.22h.588a3.6,3.6,0,0,0,1.425-.257,1.877,1.877,0,0,0,.919-.836,3.89,3.89,0,0,0,.009-3.077,1.778,1.778,0,0,0-.9-.808,3.705,3.705,0,0,0-1.416-.243Z" transform="translate(-937.21 -681.99)"/><path d="M1134.653,689.634v-6.691h2.152a3.167,3.167,0,0,1,1.849.449,1.5,1.5,0,0,1,.626,1.3,1.511,1.511,0,0,1-.275.912,1.97,1.97,0,0,1-.965.625,2.251,2.251,0,0,1,.664.241,1.5,1.5,0,0,1,.435.368,1.347,1.347,0,0,1,.236.465,1.965,1.965,0,0,1,.072.537,1.534,1.534,0,0,1-.645,1.353,3.4,3.4,0,0,1-1.927.447Zm.856-3.748h1.457a2.7,2.7,0,0,0,.523-.051,1.56,1.56,0,0,0,.477-.176,1,1,0,0,0,.351-.336,1.074,1.074,0,0,0-.312-1.393,2.153,2.153,0,0,0-1.159-.28h-1.337Zm0,3.035h1.356a2.412,2.412,0,0,0,1.275-.275.933.933,0,0,0,.437-.849,1.042,1.042,0,0,0-.215-.683,1.232,1.232,0,0,0-.581-.382,2.6,2.6,0,0,0-.815-.12h-1.457Z" transform="translate(-976.313 -681.99)"/><path d="M1168.941,682.943l-2.267,3.846v2.846h-.852v-2.851l-2.281-3.841h.935l1.777,3.077,1.749-3.077Z" transform="translate(-998.102 -681.99)"/><path d="M1216.025,689.471a3.545,3.545,0,0,1-.916-.118,2.749,2.749,0,0,1-.8-.354,2.127,2.127,0,0,1-.6-.586,1.834,1.834,0,0,1-.3-.812h.9a1.306,1.306,0,0,0,.331.639,1.555,1.555,0,0,0,.606.389,2.279,2.279,0,0,0,.78.129,2.491,2.491,0,0,0,.842-.132,1.385,1.385,0,0,0,.587-.377.853.853,0,0,0,.218-.588.978.978,0,0,0-.137-.523,1.079,1.079,0,0,0-.4-.37,2.274,2.274,0,0,0-.63-.232l-1.314-.305a2.3,2.3,0,0,1-1.159-.578,1.515,1.515,0,0,1-.428-1.1,1.732,1.732,0,0,1,.307-1.018,2.041,2.041,0,0,1,.847-.685,2.948,2.948,0,0,1,1.233-.246,3,3,0,0,1,1.347.273,1.99,1.99,0,0,1,.824.717,1.793,1.793,0,0,1,.282.949h-.884a1.264,1.264,0,0,0-.266-.72,1.235,1.235,0,0,0-.562-.379,2.307,2.307,0,0,0-.736-.113,2.1,2.1,0,0,0-.553.072,1.558,1.558,0,0,0-.476.215,1.1,1.1,0,0,0-.336.356.971.971,0,0,0-.125.5.754.754,0,0,0,.248.583,2.145,2.145,0,0,0,.9.389l1.272.305a2.393,2.393,0,0,1,.817.315,1.685,1.685,0,0,1,.491.472,1.71,1.71,0,0,1,.24.551,2.487,2.487,0,0,1,.067.564,1.528,1.528,0,0,1-.3.919,2.028,2.028,0,0,1-.863.657A3.4,3.4,0,0,1,1216.025,689.471Z" transform="translate(-1035.714 -681.734)"/><path d="M1249.265,682.567a2.608,2.608,0,0,1,1.254.294,2.444,2.444,0,0,1,.879.784,2.307,2.307,0,0,1,.393,1.078h-.911a1.948,1.948,0,0,0-.282-.713,1.547,1.547,0,0,0-.546-.509,1.63,1.63,0,0,0-.81-.19,1.781,1.781,0,0,0-1.025.285,1.736,1.736,0,0,0-.634.877,4.52,4.52,0,0,0-.215,1.518,3.507,3.507,0,0,0,.479,2.052,1.622,1.622,0,0,0,1.4.655,1.519,1.519,0,0,0,1.356-.731,2.081,2.081,0,0,0,.282-.722h.911a2.793,2.793,0,0,1-.229.822,2.37,2.37,0,0,1-.488.706,2.241,2.241,0,0,1-.761.49,2.806,2.806,0,0,1-1.048.181,2.77,2.77,0,0,1-1.539-.412,2.6,2.6,0,0,1-.972-1.184,5.333,5.333,0,0,1,0-3.716,2.52,2.52,0,0,1,.97-1.164A2.84,2.84,0,0,1,1249.265,682.567Z" transform="translate(-1060.614 -681.706)"/><path d="M1282.2,682.943h.856v6.691h-.856Z" transform="translate(-1087.601 -681.99)"/><path d="M1301.142,689.634v-6.691h4.22l0,.755H1302v2.184h3.022v.75H1302v2.23l3.452.009v.764Z" transform="translate(-1101.89 -681.99)"/><path d="M1337.4,682.943h.856v6.691h-.764l-3.591-5.275v5.275h-.856v-6.691h.819l3.536,5.2Z" transform="translate(-1125.951 -681.99)"/><path d="M1371.008,682.567a2.607,2.607,0,0,1,1.254.294,2.443,2.443,0,0,1,.879.784,2.308,2.308,0,0,1,.393,1.078h-.912a1.947,1.947,0,0,0-.282-.713,1.545,1.545,0,0,0-.546-.509,1.631,1.631,0,0,0-.81-.19,1.779,1.779,0,0,0-1.025.285,1.734,1.734,0,0,0-.634.877,4.521,4.521,0,0,0-.215,1.518,3.5,3.5,0,0,0,.479,2.052,1.621,1.621,0,0,0,1.4.655,1.519,1.519,0,0,0,1.356-.731,2.08,2.08,0,0,0,.282-.722h.912a2.823,2.823,0,0,1-.229.822,2.389,2.389,0,0,1-.489.706,2.24,2.24,0,0,1-.761.49,2.811,2.811,0,0,1-1.048.181,2.77,2.77,0,0,1-1.539-.412,2.6,2.6,0,0,1-.972-1.184,4.673,4.673,0,0,1-.335-1.865,4.606,4.606,0,0,1,.333-1.851,2.516,2.516,0,0,1,.969-1.164A2.84,2.84,0,0,1,1371.008,682.567Z" transform="translate(-1152.441 -681.706)"/><path d="M1403.941,689.634v-6.691h4.22l0,.755H1404.8v2.184h3.022v.75H1404.8v2.23l3.452.009v.764Z" transform="translate(-1179.428 -681.99)"/></g><g transform="translate(64.915 0)"><g transform="translate(0)"><path d="M774.662,501.708A26.664,26.664,0,0,1,765.8,500.2a17.973,17.973,0,0,1-7.393-4.83,16.327,16.327,0,0,1-3.949-8.653h12.265a6.128,6.128,0,0,0,1.974,3.4,7.882,7.882,0,0,0,3.045,1.6,11.465,11.465,0,0,0,2.835.42,12.24,12.24,0,0,0,5.041-.882,2.857,2.857,0,0,0,1.932-2.689,2.765,2.765,0,0,0-1.2-2.374,10.6,10.6,0,0,0-4.18-1.365l-7.015-1.3a20.853,20.853,0,0,1-9.661-4.179q-3.655-3.045-3.7-8.632a12.189,12.189,0,0,1,2.142-7.183,14.721,14.721,0,0,1,6.427-5.061,25.7,25.7,0,0,1,10.375-1.869q8.484,0,13.483,3.7a12.1,12.1,0,0,1,5.04,10.207H781.509a4.966,4.966,0,0,0-2.374-3.381,8.647,8.647,0,0,0-4.557-1.155,10.139,10.139,0,0,0-4.515.9,2.893,2.893,0,0,0-1.827,2.709,2.508,2.508,0,0,0,1.6,2.226,19.549,19.549,0,0,0,5.082,1.513l6.343,1.3A20.305,20.305,0,0,1,787.6,477.2a13.861,13.861,0,0,1,3.76,3.508,11.712,11.712,0,0,1,1.806,3.759,13.412,13.412,0,0,1,.483,3.3,11.876,11.876,0,0,1-2.457,7.6,15.176,15.176,0,0,1-6.762,4.726A27.647,27.647,0,0,1,774.662,501.708Z" transform="translate(-754.458 -456.596)"/><path d="M945.7,501.708a22.339,22.339,0,0,1-11.383-2.793,19.14,19.14,0,0,1-7.477-7.813,24.728,24.728,0,0,1-2.647-11.7,25.277,25.277,0,0,1,2.71-11.95,19.763,19.763,0,0,1,7.56-8,23.951,23.951,0,0,1,22.725.021,19.425,19.425,0,0,1,7.434,8.022,25.859,25.859,0,0,1,2.625,11.909,24.679,24.679,0,0,1-2.6,11.53,19.424,19.424,0,0,1-7.435,7.9A22.079,22.079,0,0,1,945.7,501.708Zm.084-10.5a5.778,5.778,0,0,0,4.536-1.827,10.45,10.45,0,0,0,2.311-4.662,24.978,24.978,0,0,0,.672-5.776,25.525,25.525,0,0,0-.63-5.671,9.807,9.807,0,0,0-2.268-4.557,5.956,5.956,0,0,0-4.62-1.785,6.1,6.1,0,0,0-4.642,1.743,9.705,9.705,0,0,0-2.331,4.494,24.244,24.244,0,0,0-.672,5.776,26.173,26.173,0,0,0,.63,5.691,10.3,10.3,0,0,0,2.289,4.7A5.986,5.986,0,0,0,945.787,491.207Z" transform="translate(-882.487 -456.596)"/><path d="M1116.5,502.673V459.241h14.155v6.09a14.57,14.57,0,0,1,2.458-2.961,12.453,12.453,0,0,1,3.906-2.415,15.334,15.334,0,0,1,5.775-.966,18.458,18.458,0,0,1,7.372,1.491,12.708,12.708,0,0,1,5.65,4.788A15.385,15.385,0,0,1,1158,473.9v28.773H1143.63V475.791a5.139,5.139,0,0,0-1.848-4.305,6.689,6.689,0,0,0-4.242-1.449,8.573,8.573,0,0,0-3.151.609,6.277,6.277,0,0,0-2.562,1.806,4.506,4.506,0,0,0-1.008,3v27.219Z" transform="translate(-1027.532 -458.401)"/><path d="M1318.916,501.708a26.66,26.66,0,0,1-8.863-1.512,17.972,17.972,0,0,1-7.393-4.83,16.321,16.321,0,0,1-3.948-8.653h12.265a6.128,6.128,0,0,0,1.974,3.4,7.887,7.887,0,0,0,3.045,1.6,11.467,11.467,0,0,0,2.835.42,12.24,12.24,0,0,0,5.041-.882,2.857,2.857,0,0,0,1.932-2.689,2.765,2.765,0,0,0-1.2-2.374,10.6,10.6,0,0,0-4.179-1.365l-7.015-1.3a20.853,20.853,0,0,1-9.661-4.179q-3.655-3.045-3.7-8.632a12.19,12.19,0,0,1,2.142-7.183,14.723,14.723,0,0,1,6.427-5.061A25.7,25.7,0,0,1,1319,456.6q8.484,0,13.484,3.7a12.1,12.1,0,0,1,5.04,10.207h-11.761a4.966,4.966,0,0,0-2.374-3.381,8.647,8.647,0,0,0-4.557-1.155,10.139,10.139,0,0,0-4.515.9,2.893,2.893,0,0,0-1.827,2.709,2.509,2.509,0,0,0,1.6,2.226,19.559,19.559,0,0,0,5.083,1.513l6.343,1.3a20.3,20.3,0,0,1,6.342,2.583,13.859,13.859,0,0,1,3.76,3.508,11.713,11.713,0,0,1,1.806,3.759,13.426,13.426,0,0,1,.483,3.3,11.875,11.875,0,0,1-2.457,7.6,15.173,15.173,0,0,1-6.762,4.726A27.647,27.647,0,0,1,1318.916,501.708Z" transform="translate(-1164.972 -456.596)"/></g></g></g></svg>