<svg xmlns="http://www.w3.org/2000/svg" width="436.16" height="83.883" viewBox="0 0 436.16 83.883"><defs><style>.a{fill:#e6b8aa;}</style></defs><g transform="translate(-674.429 41.893)"><path class="a" d="M736.725-37.7c-.289.134.106.015.475-.044Z" transform="translate(96.98 -1.962)"/><path class="a" d="M737.716-37.776l.336-.031A1.859,1.859,0,0,0,737.716-37.776Z" transform="translate(98.339 -1.934)"/><path class="a" d="M741.841-38.4c-.708.153-1.573.176-2.005.345A6.592,6.592,0,0,0,741.841-38.4Z" transform="translate(104.142 -1.653)"/><path class="a" d="M741.509-38.376l-.082.073.616-.178Z" transform="translate(104.529 -1.615)"/><path class="a" d="M740.717-38.437l.093.01.974-.191Z" transform="translate(104.104 -1.55)"/><path class="a" d="M746.32-38.924l-.717.1c-.682,0,.432-.165-.024-.168-.9.107-.289.211-1.413.317.1.068,1.794-.214,1.628-.07C746.74-38.816,745.831-38.821,746.32-38.924Z" transform="translate(111.28 -1.374)"/><path class="a" d="M830.363-33.938l.094.045A.156.156,0,0,0,830.363-33.938Z" transform="translate(272.138 -3.765)"/><path class="a" d="M844.4-17.915c-.091.162-.2.313-.29.466a1.738,1.738,0,0,0,.138-.171A3.273,3.273,0,0,0,844.4-17.915Z" transform="translate(265.63 17.65)"/><path class="a" d="M816.13-37.584l-.456-.13A2.687,2.687,0,0,0,816.13-37.584Z" transform="translate(279.091 -1.978)"/><path class="a" d="M741.2,5.263a.106.106,0,0,0,.062-.036l-.022,0-.131.034Z" transform="translate(103.33 35.809)"/><path class="a" d="M822.354-4.189l-.513.18A4.356,4.356,0,0,0,822.354-4.189Z" transform="translate(276.172 27.243)"/><path class="a" d="M808.455-39.078l.177.032-.218-.051.031.018Z" transform="translate(207.837 -1.323)"/><path class="a" d="M844.137-26.188c.105.152.187.3.268.423A4.171,4.171,0,0,0,844.137-26.188Z" transform="translate(265.618 11.528)"/><path class="a" d="M769.2-40.248a3.379,3.379,0,0,0,.524-.034A1.813,1.813,0,0,0,769.2-40.248Z" transform="translate(147.661 -0.759)"/><path class="a" d="M777.262-40.434h-.025C777.262-40.418,777.274-40.421,777.262-40.434Z" transform="translate(159.041 -0.691)"/><path class="a" d="M782.41-40.377l-.048,0C782.393-40.363,782.409-40.361,782.41-40.377Z" transform="translate(167.013 -0.718)"/><path class="a" d="M770.194-40.386c.354.035.464.183.914,0l-.092-.022a7.566,7.566,0,0,0,.993-.053.547.547,0,0,0-.116-.04l-.694,0A3.908,3.908,0,0,0,770.194-40.386Z" transform="translate(152.053 -0.655)"/><path class="a" d="M830.131-33.967c-.029-.044-.309-.121,0,0Z" transform="translate(272.316 -3.721)"/><path class="a" d="M823.488-35.783l.346.113A3.1,3.1,0,0,0,823.488-35.783Z" transform="translate(275.393 -2.892)"/><path class="a" d="M797.548-40.794l.065.014C797.635-40.8,797.581-40.8,797.548-40.794Z" transform="translate(190.573 -0.519)"/><path class="a" d="M824.464-35.467l-.319-.1A2.441,2.441,0,0,0,824.464-35.467Z" transform="translate(275.082 -2.994)"/><path class="a" d="M805.4-39.644l.056.012A.432.432,0,0,0,805.4-39.644Z" transform="translate(202.691 -1.064)"/><path class="a" d="M706.378-27.25a5.862,5.862,0,0,1-.687.154c-.53.275,1.163-.337.374,0,.249-.074.442-.144.621-.212l-.387,0C705.82-27.129,706.641-27.371,706.378-27.25Z" transform="translate(-14.749 10.61)"/><path class="a" d="M733.984,4.735l.119.012c-.08-.051-.006-.065-.461-.1-.39.068.213.192-.469.263a5.017,5.017,0,0,1,.513.015C733.407,4.853,733.684,4.788,733.984,4.735Z" transform="translate(92.071 36.082)"/><path class="a" d="M734.146,5.175l.019.006a.828.828,0,0,0,.1.028c.1,0,.193.008.271.017A2.392,2.392,0,0,0,734.146,5.175Z" transform="translate(92.863 35.833)"/><path class="a" d="M690.393-21.53l-.284.114A1.084,1.084,0,0,0,690.393-21.53Z" transform="translate(-7.422 14.651)"/><path class="a" d="M823.537-7.323l.34-.153A1.894,1.894,0,0,0,823.537-7.323Z" transform="translate(275.369 24.825)"/><path class="a" d="M747.2,5l.329.007.208-.011Z" transform="translate(113.403 35.92)"/><path class="a" d="M704.406,5.438c.252-.092-.182-.013-.643-.143-.148,0-.3.009-.447.006C703.714,5.378,704.088,5.4,704.406,5.438Z" transform="translate(-13.674 35.776)"/><path class="a" d="M707.707-27.319a.013.013,0,0,1,0-.012l-.031.012Z" transform="translate(-15.739 10.408)"/><path class="a" d="M681.349-1.626l-.177-.13A1.793,1.793,0,0,0,681.349-1.626Z" transform="translate(-3.192 39.113)"/><path class="a" d="M739.047,5.316l1.659.009-.484-.031C739.991,5.355,739.277,5.242,739.047,5.316Z" transform="translate(102.364 35.778)"/><path class="a" d="M787.745,41.473l.708.262c8.058-.324,17.252.522,23.573-.141,9.714,1.059,6.4-.578,15.334.311l-.3-.125c29.473.592,60.843.136,88.232-2.006l-.033.173c22.141-1.225,43.9-3.117,65.467-5.53,5.391-.585,10.787-1.234,16.185-1.882,5.422-.676,10.787-1.5,16.129-2.318q16.042-2.5,31.921-5.723c3.875-.968,1.332-.836,4.632-1.738,1.48-.292,4.774-1.062,4.891-.863-2.785.743-1.1.563-2.03.858,4.715-1.059,10.913-2.263,14.934-3.565l-3.625.614c.78-.254,1.817-.523,2.841-.77l.762-.184.372-.087a5.608,5.608,0,0,0,.6-.165l1.218-.369c-.5.312,1.709-.065.55.379,7.953-3.294,6.756-1.784,13.693-4.445,1.019-.98,9.62-4.577,14.284-7.877.922-.486,1.87-.957,2.761-1.481-1.712,1.084-1.623,1.129-1.6,1.266,0,.124-.059.353-2.37,1.558a36.531,36.531,0,0,0,9.834-6.905c-.7.458-.757.226.122-.937,1.46-1.726,2.053-1.764,2.971-4.092a10.63,10.63,0,0,1-.739,2.328A6.664,6.664,0,0,0,1110.3-6.4a4.286,4.286,0,0,0,.166-2.227c-.069-.93-.364-1.685-.015-1.4a18.723,18.723,0,0,0-2.642-3.534,18.811,18.811,0,0,0-3.7-3.018c3.109,2.748-1.2-.467-1.057,0a23.791,23.791,0,0,1,3.691,2.93c-2.257-2.29-1.949-1.889-.879-1.081.54.4,1.113,1.009,1.633,1.434.464.462.828.781.889.638,1.587,2.431-3.4-2.881-.28.992a21.47,21.47,0,0,0-4.945-4.553,34.6,34.6,0,0,0-6.44-3.394c3.635,1.7-.908-.127.889.92-4.537-2.162-1-.661-2.189-1.544a28.416,28.416,0,0,0-6.01-2.338c-4.249-1.649.874-.05-1.213-.974a46.679,46.679,0,0,1,6.461,2.445c2.581,1.11,4.741,2.218,4.616,1.57,2.1,1.091,4.993,2.3,7.5,4.545a27.591,27.591,0,0,0-9.065-6l-.6.335c-2.6-1.168-3.416-1.088-5.291-1.877,1.126.275-.54-.654-2.764-1.39.571.288,1.45.588,1.149.58-4.066-1.395-4.856-1.271-9.818-2.62a81.225,81.225,0,0,1,8.229,3.164c-1.223-.034-2.611-.849-4.833-1.5.359.058.82.2.222-.074l-2.451-.552c-4.953-1.575.945-.314-3.144-1.632-2.756-1.053-4.089-.882-6.264-1.578l.4.19-1.116-.287c.013.012.031.022.028.033a40.31,40.31,0,0,0-6.614-1.127,20.352,20.352,0,0,0-3.355-.58A35.5,35.5,0,0,1,1054-31.487l.171.034c-3.4-.775-6.094-1.3-5.276-1.333l-5.574-1.093.731-.23a45.164,45.164,0,0,0-8.374-.721c-3.63-.731-10.147-1.541-12.633-1.728-.405-.062-1.034-.137-2.071-.24l2.13.389c-4.05-.491-3.607-.252-6.28-.564.548.1.622.125-.858-.1l-1.529-.206a9.413,9.413,0,0,1,1.335.142l-.458-.172c-3.161-.719-5.011-.432-8.468-.848.336.017.9.045,1.256.081-1.936-.269-4.652-1.014-5.526-.791a10.947,10.947,0,0,0-1.834-.069L999.3-39.12l1.411.182a9.686,9.686,0,0,1-1.888-.021c-1.666-.163-3.327-.367-5-.5-.945-.113-2.247-.158-3.3-.178l-.83-.2c-1.837-.1-1.839-.187-1.615-.213a69.4,69.4,0,0,0-8.152-.655,85.756,85.756,0,0,1-8.57-.444c-1.337.182,1.5.417,1.707.556-1.093.137-5.044.127-7.024.17-3.034-.436-12.445-.93-10.911-1.379-5.691-.172,1.761.338-1.1.436l-.653-.034a33.834,33.834,0,0,1,4.583.513c.415.268-4.6.225-6.129.113l1.09-.341c-5.246.014-4.168.637-7.429.969-4.16-.165-1.763-.487-2.639-.82l-4.382.07v-.276c-2.848.051-3.505.329-7.446.273,2.843-.3-5.921-.182-1.99-.583-2.193-.063-2.81.479-3.941.125-1.508.314,1.972.122,3.08.2.9.413-4.8.262-7.421.413-.232-.211,1.74-.307-1.36-.365a15.543,15.543,0,0,1-4.349.22c.018.276-3.5.158-5.255.192,1.977-.005,4.835.115,3.564.391-1.523.154-2.841.249-6.333.314l2.412.058c-3.016.479-5.052-.12-9.191.192,1.732-.244,2.828-.292,4.333-.559-1.949.214-5.648.58-8.687.842l-3.541-.249c-.415.2-3.931.2-3.9.47-4.364.069,3.452-.544,3.87-.746-5.482.106-4.313.7-9.6.575l1.707-.355c-1.743.081-5.22.429-5.457.312a8.794,8.794,0,0,0,1.975-.057c-1,.59-8,.873-7.263,1.415l2.4-.13c-3.664.365-6.219.933-9.074.928-2.2-.031,1.46-.491,2.729-.726-3.47.2-2.715.818-6.855,1.05,2.188-.06,1.8.172.527.408,2.392-.129,7.4-.367,6.481-.546l-.871.005a11.924,11.924,0,0,1,2.127-.425c3.266-.226,1.559.151,2.229.216,5.447-.278.357-.621,5.342-.9l.665.072c2.379-.283,6.078-.516,6.692-.9,2.229.247,5.635-.486,8.058-.353.54.755-8.491.386-11.268,1,2.631.015-1.45.472-2.517.717l8.2-.822a16.517,16.517,0,0,0,4.6-.022l-.65.01c3.263-.235,2.349-.528,5.2-.542.446.055-.412.221-.624.287a24.537,24.537,0,0,0,3.9-.429c2.621-.043-1.279.388.912.383,3-.449,4.8-.142,7.421-.226-1.157-.427,10.412-.93,4.708-1.17l6.3-.5c1.982.182-4.316.77-2.545,1.107l-5.024.13c.864.54,10.5-.695,13.864-.048,2.682-.01,2.025-.082,7.107.137l-.879-.5c2.639.079,3.5.357,3.615.455,1.544-.026,2.935-.005,4.367.022a10.874,10.874,0,0,1-1.847.163,7.67,7.67,0,0,0,3.248.041,42.428,42.428,0,0,1,4.346-.088l-1.488.184a14.206,14.206,0,0,0,2.354-.178c.685,0,1.335-.009,1.956-.036a20.951,20.951,0,0,0-3.882-.537c6.109.182,10.9.28,16.1.8-.206.144-2.4.276-1.743.311,2.606.136,5.457-.055,5.235-.283l1.444.041a9.026,9.026,0,0,0,2.323.389,12.126,12.126,0,0,0,1.636.177c.91-.365,5.89.058,7-.077-1.174-.094-2.621-.154-4.089-.206a23.343,23.343,0,0,1,5.643-.113c-3.928.084,4.107.606-1.781.456,4.066.695,2.2-.266,6.535.194l2.789.389c-.471.266-4.575-.158-3.936,0l1.959.094c-.994.055-3.32-.117-5.982-.213s-5.651-.172-7.936-.106l9.095.571c11.51.362,25.69,1.853,35.439,2.447l-.41-.039a.84.84,0,0,0,.433-.148l.415.124,1.964.005c2.1.522,6.142,1.031,9.482,1.786-2.091-.491-2.091-.492-2.239-.739.512-.226.881-.3,4.048.271-.031.209-2-.082.3.424-1.182-.278-.054-.264,1.348-.088,1.758.395,4.743.86,4.713,1.069a15,15,0,0,1-2.051-.345c-.848-.067,3.314.676.79.484l3.261.417c1.814.489-1.342.062-.637.3,5.383.775,8.287.808,13.186,1.517-.273.067-.512.51-.405.388,3.651.794,8.1,1.131,12.317,1.947-.678,0-2.219-.377-3.513-.578,6.371,1.433,12.2,2.635,17.639,4.186a98.372,98.372,0,0,1,15.647,5.646c1,.249,2.025.494,3.009.784.78.494,1.506,1.016,2.214,1.535,4.655,2.779,7.877,5.8,8.081,8.988a7.172,7.172,0,0,1-1.538,4.8,20.655,20.655,0,0,1-4.892,4.534c-2.637,1.772-1.974.781-3.378,1.472-3.157,1.723-5.253,2.75-7.306,3.781A67.273,67.273,0,0,1,1080,10.836c.9-.477,2.3-1.426-.813-.374a6.678,6.678,0,0,1-2.762,1.23l.91-.468c-1.947.413-3.577,1.161-7.457,2.294l-2.515.82-1.238.419-.468.163-.548.153q-2.488.708-4.892,1.395c-3.182.935-6.206,1.855-8.99,2.752-6.282,1.326.415-.63-.826-.472,4.481-.811,3.016-.762,3.888-1.137a26.015,26.015,0,0,1-6.392,1.29c-3.241.721-4.72,1.007-7.852,1.885,1.577-.434,3.047-.554,1.592-.087-2.721.443-9.515,1.88-9.306,1.391-15.581,3.009-33.215,5.641-50.393,7.417-2.841.537,2.216-.156.665.173-4.14.746-3.36.216-6.677.813l1.335-.383c-5.019.511-10.257,1.469-15.082,2.169.752-.34-4.051.156-.036-.381-2.374.268-5.51-.643-7.3-.228l2.909.849c-.112.12-3.467.367-3.118.408-2.125-.014-4.733-.051-6.175.07-.756-.225,2.881-.455,4.861-.645.206-.475-6.739.288-3.949-.384-4.234.437.65.185-1.857.575l-3.725.216,2.892-.088c-3.07.4-4.066.863-8.249.926l-4.216.784c-.5-.335-3.149.172-5.37.256l1.345-.34a58.31,58.31,0,0,1-5.946.228c1.607-.436,2.675-.1,3.337-.458l-3.246.11c.049.209-1.982.511.352.48a62.445,62.445,0,0,1-12.063,1.463c-3.449-.158,3.615-.532,2.155-.8-7.826.309-9.434,1.5-14.019,1.671-5.849.137-5.477.475-11.4.727,1.86-.319-4.165-.1-5.271-.285l2.316-.345c-1.791.146-3.526.12-3.009-.079.362.341-7.655.546-11.726.83l.729.261c-3.187.192-7.61.432-11,.436-5.037.19-3.883.393-7.765.748-2.155-.233-1.923-.535-1.215-.851,1.353.13,3.635.024,5.859.091,6.364-.371,11.283-1.024,17.632-1.1,2.706-.774-4.275.228-7.372.039a1.971,1.971,0,0,1,.548-.072c-.275.005-.52.007-.775,0,2.272-.115,5.969-.355,6.563-.717-3.8.178-2.716.784-7.46.582a78.914,78.914,0,0,1-8.488-.223c-2.323.278-2.41.825-8.157.775l2.507-.407c-6.5.041-3.039.623-9.062.6,2.117.048-2.048.374,1.982.388a92.5,92.5,0,0,1-9.645.124c-.853.058-.181.13-.339.259,3.628.269,5.732-.252,8.71.132l2.52-.412c3.37.117,3.722.444,1.656.628a22.735,22.735,0,0,1,2.481-.027c.586.612-4.055-.172-5.22.348l2.385-.058c1.042.41-5.569.371-8.646.333-3.48-.18-6.662-.28-6.891-.582q2.335-.026,4.669-.1c-2.417-.218-5.961.087-8.679.05a5.164,5.164,0,0,0-.757-.1c.14.027.219.055.217.082a11.648,11.648,0,0,1-1.526-.137c-2.382-.029-5.887.069-8.1-.079l.265.266.305-.139c2.183.06,5.139.288,3.48.444-4.932.069-5.908-.456-7.069-.71,1.149-.374,4.8.115,7.316.036-1.493-.431-5.006-.156-10.083-.535,2.046-.386,5.9.142,7.031-.232-4.1-.161-5.172.1-9.489-.077.568-.211,4.766-.127,4.5-.391l-2.761-.187c6.794.13-1.167-.566,4.135-.551-2.5-.226-3.49.25-7.064-.051.991.2,3.834.573.405.707l-3.865-.17c-1.615-.226,4.051-.417,1.536-.623l-4.048.1c.133.13,2.056.221.843.383-2.318-.17-3.827.448-6.573.6a34.636,34.636,0,0,1-4.67-.276c-5.51.288-12.457.062-17.543.218,3.472-.13-.1-.443-2.135-.724,3.967.1,4.028-.305,3.778-.573-2.41-.048-4.028.309-2.822.491-4-.353-2.805.144-6.3-.3-2.27-.256,1.19-.341.418-.534-4.326-.242-1.243.451-5.926.051.265-.038.693-.026.334-.125a28.716,28.716,0,0,0-5.854-.087c-2.591-.751-7.584-.585-6.955-1.048-6.1-.48.841.386-.389.431a73.816,73.816,0,0,1-8.512-.938c1.5.149,2.909.156,4.333.388l-1.2-.487a31.486,31.486,0,0,0-6.173-.462,22.827,22.827,0,0,1-5.956-.58c3.765.362,1.319-.087,3.238-.077-1.164-.012-6.716-1.036-3.421-.221-2.678-.463-4.517-.825-6.338-1.187-2.405-.316-4.988-.731-6.463-.774a68.059,68.059,0,0,1-7.864-2.28c-7.658-1.748-14.062-4.347-21.208-7.276l.474.257c-5.13-2.594,1.857,1.546-3.472-1.175,1.065.06-2.8-1.932-3.7-3.176-2.288-2.052-3.383-3.932-3.21-5.845s1.557-3.884,4.079-5.626c.087.1-.155.384-.92,1.127A48.553,48.553,0,0,1,694.942.187L694.8.316c7.284-2.805,14.006-5.476,22.141-7.964-.634.242-.711.443-1.187.649,4.158-1.134,10.881-2.839,13.658-3.941,5.253-.827,3.263-.956,9.989-2.071.41-.012-.614.218-1.039.333,3.276-.6,5.538-1.141,8.833-1.788,7.1-1.769,8.68-2.678,17.252-4.09.662.487-5.166,1.108-5.161,1.6a36.832,36.832,0,0,1,5.459-1.1c-1.315.48-.25.2-1.131.583a29.987,29.987,0,0,0,4.178-1.007l1.967-.583a8.229,8.229,0,0,1,.828-.232c.056-.129-.586-.084-2.262.226,1.872-.722,8.333-1.45,12.5-2.222-1.363.206-5.679.746-4.165.226,5.663-.729,7.311-1.626,11.171-2.416,5.258-.468-3.661,1.023-2.545,1.312.912,0,3.087.043.976.511,4.652-.576,7.872-1.407,12.006-2l-.081.129c5.77-.793,11.882-1.946,16.845-2.186l-2.632.125c.945-.165,3.9-.432,5.485-.8-.137.209,3.717.057,2.181.35,2.481-.9,13.286-1.386,16.157-2.129,1.595.062.364.391-.094.561-3.724.177-5.008.108-6.917.51,3.085-.235,5.375-.182,4.917-.021,3.037-.6,10.407-1.095,11.935-1.553,2.288.115,4.458.144,3.691.5,9.507-.527-4.789-.866,5.987-1.182,4.93.2-4.772.54,2.01.487l-1.248.081c4.927.721,3.4-.686,8.957-.722.751.448-3.852.371-.023.652,5.065-.166,7.291-.834,12.374-.65l-.8.184c3.251-.021,9.558.19,12.791.244.148.094-.324.07-.943.081,5.969.343,2.517-.156,7.385.317l1.421-.173a75.362,75.362,0,0,0-10.318-.437c3.128-.189-4.853-.688-3.292-1.041l-.627.142c-8.129-.813-18.679-.9-29.063-.865-6.5.655-11.148.185-18.121.9-1.021.6-1.3.166-7.281.671,3.164-.3.318-.431-1.7-.357-1.152.223-2.568.377-3.987.528-1.236-.081-8.886.12-11.558.784-3.674.192.813-.254,1.585-.443-1.541-.122-2.919.506-4.168.444,0,0,.043-.062.42-.127-5.559.607-8.912.841-14.694,1.522-.331.552-5.594.954-8.086,1.506.769-.3-3.284.273-4.922.446l-2.92.856c-2.884.784-4.292.415-8.121,1.24l.976-.067c-2.8.612-10.366,1.64-13.25,1.91-12.827,2.978-22.811,5.047-32.94,7.355-5.059,1.161-10.15,2.393-15.561,3.948a136.341,136.341,0,0,0-17.305,6.116c-1.473.83,1.386-.281.313.456-2.42,1.149-3.006,1.376-5.167,2.483,2.038-.86,1.59-.827,1.463-.6,1.083-.578,2.173-1.148,3.291-1.69.2-.043-.171.139.219.057A42.868,42.868,0,0,1,696.822-4.9c-2.086.99-2.395,1.549-5.406,2.719a9.246,9.246,0,0,1,1.277-.69c-2.423,1.041-2.374,1.256-4.2,2.04-2.191,1.016-1.544.865-1.974.87A41.312,41.312,0,0,0,680.26,3.85c-1.106,1.263-2.423,2.621-3.337,3.917a9.712,9.712,0,0,0-1.559,2.99,3.9,3.9,0,0,1,.593-2.532c.571-1.089,1.417-2.179,1.827-2.889a16.725,16.725,0,0,0-1.949,1.855l.3.24a9.7,9.7,0,0,0-1.488,3.179l-.028-.2a4.2,4.2,0,0,1,0,1.709c-.048.148-.14.491-.188.1a7.515,7.515,0,0,0,.726,2.4c-.489-.642-.313-.129-.071.525.206.666.706,1.374.354,1.288,2.425,3.637,5.312,5.047,7.689,6.4,2.476,1.343,4.932,2.347,8.478,4.076-1.062-.659,2.7.609,5.072,1.409,1.312.546,1.61.734.652.544l3.23.928c3.674,1.68,7.8,2.56,13.772,4.09l-.382.063c2.308.413,4.833.69,8.213,1.431l-.739.158c4.1,1.035,3.437-.021,8,.94.079-.309-2.782-.935-3.121-1.3.971.486,5.926,1.335,4.843.926,4.66.552,3.208.45,3.577.592l2.779.172c3.251.444.935.54-.326.558,3.133.106,6.407.655,9.874,1.084l-1.442-.01c1.523.177,3.044.376,4.573.51,3.042.009,7.225.371,11.077.724l-2.736.233c2.688.395,1.422-.05,2.153-.072a39.345,39.345,0,0,1,7.452.762C775.053,40.625,781.8,41.934,787.745,41.473ZM989.683-39.742l.624.1C988.865-39.663,988.042-39.651,989.683-39.742Zm37.263,3.944c-4.491-.491-3.026-.472-3.332-.631,4.346.738,6.82.969,10.646,1.664a2.546,2.546,0,0,1-.856-.393,14.514,14.514,0,0,1,3.508.837C1034.869-34.194,1025.1-36.313,1026.946-35.8Zm-84.4-3.474.53-.089h.026Zm22.355.012a9.332,9.332,0,0,0,1.528.233A4.243,4.243,0,0,0,964.905-39.26Zm44.136,3.483a36.762,36.762,0,0,0,4.968.666C1013.23-35.222,1011.839-35.44,1009.042-35.778ZM957.912,32.929c1.324-.192,3.8-.6,1.48-.508-1.073.249-3.251.2-4.135.506l-.232,0C956.388,32.943,957.515,32.956,957.912,32.929ZM826.226,39.85c.25-.166,1.251-.338.614-.475l.38.019c-.334-.062-.617-.113-.354-.148-1.075-.046-2.2-.1-2.963-.06C823.52,39.721,821.238,39.795,826.226,39.85Z" transform="translate(0 -0.028)"/><path class="a" d="M751.092,4.323l-.253.012Z" transform="translate(118.588 36.236)"/><path class="a" d="M733.187,5.393a4.261,4.261,0,0,0,.562.056A2.649,2.649,0,0,0,733.187,5.393Z" transform="translate(91.601 35.729)"/><path class="a" d="M749.785-39.972l.268-.045-.546.005a2.619,2.619,0,0,0-1.144.334c.8-.162,1.3-.173,2.33-.3Z" transform="translate(118.285 -0.888)"/><path class="a" d="M752.038-38.977a2.879,2.879,0,0,0,.459.038l.128-.065Z" transform="translate(121.034 -1.367)"/><path class="a" d="M771.488-39.833c-.285-.009-.57-.022-.855-.021C770.364-39.8,771.357-39.757,771.488-39.833Z" transform="translate(150.649 -0.965)"/><path class="a" d="M764.6-41.22l-.448.086a3.347,3.347,0,0,0,1.038-.082C764.653-41.156,765.057-41.248,764.6-41.22Z" transform="translate(140.854 -0.316)"/><path class="a" d="M776.657-39.928c.266-.11.855.048,1.031-.048C777.463-39.949,776.7-40.037,776.657-39.928Z" transform="translate(160.462 -0.904)"/><path class="a" d="M774.351-41.729a6.588,6.588,0,0,0-1.272-.009A8.6,8.6,0,0,0,774.351-41.729Z" transform="translate(155.392 -0.059)"/><path class="a" d="M783.87-40.33c-.046.071-.407.054-.812.022a2.971,2.971,0,0,1,.408-.053c-.677.036-.723.011-1.264.043.54.053,1.349.127,1.26.211C783.864-40.161,784.364-40.245,783.87-40.33Z" transform="translate(171.267 -0.725)"/><path class="a" d="M776.841-41.811a9.381,9.381,0,0,0-1.272-.079,1.869,1.869,0,0,0,.912.1l-.226.085C776.845-41.643,776.023-41.821,776.841-41.811Z" transform="translate(159.314)"/><path class="a" d="M788.2-39.768l-.269-.057a12.829,12.829,0,0,0-1.8.063C786.888-39.748,787.833-39.749,788.2-39.768Z" transform="translate(178.011 -0.979)"/><path class="a" d="M781.6-41.519l.088-.118c-.634-.021.045.04-.182.067a2.915,2.915,0,0,0-.586-.009C781.638-41.592,780.961-41.483,781.6-41.519Z" transform="translate(166.508 -0.119)"/><path class="a" d="M785.932-41.691l.814-.022-.63-.152C785.161-41.853,786.068-41.793,785.932-41.691Z" transform="translate(174.723 -0.013)"/><path class="a" d="M788.054-41.385l.089.026c.409-.044.817-.067,1.228-.1A10.7,10.7,0,0,0,788.054-41.385Z" transform="translate(179.099 -0.205)"/><path class="a" d="M815.237-36.358c.144-.021-.534-.232-.25-.113C814.845-36.459,815.753-36.2,815.237-36.358Z" transform="translate(279.45 -2.549)"/><path class="a" d="M810.489-39.126c.338.082,1.467.257,1.963.329-.294-.051-.8-.161-1.226-.246A2.142,2.142,0,0,0,810.489-39.126Z" transform="translate(203.825 -1.303)"/><path class="a" d="M814.421-38.459l-.2-.029C814.309-38.472,814.374-38.462,814.421-38.459Z" transform="translate(279.78 -1.612)"/><path class="a" d="M844.563-17a1.459,1.459,0,0,0-.078.161Z" transform="translate(265.453 17.966)"/><path class="a" d="M844.881-19.177a3.2,3.2,0,0,0,.262-.72,1.906,1.906,0,0,0,.054-.581,5.138,5.138,0,0,1-.563,1.833C844.775-18.88,844.951-19.171,844.881-19.177Z" transform="translate(265.383 17.242)"/><path class="a" d="M838.112-11.407c.2-.162.509-.352.407-.341C838.387-11.681,837.948-11.343,838.112-11.407Z" transform="translate(268.487 22.022)"/><path class="a" d="M777.754,1.924c-.46.025-.726.076-.594.136C777.672,2,777.387,1.988,777.754,1.924Z" transform="translate(160.254 37.371)"/><path class="a" d="M775.745,2.292l-.066-.03-.306-.022Z" transform="translate(156.935 37.222)"/><path class="a" d="M770.024,2.715a.8.8,0,0,1,.187-.051C770.033,2.692,769.883,2.717,770.024,2.715Z" transform="translate(148.253 37.021)"/><path class="a" d="M770.518,2.637l-.089.014Z" transform="translate(148.638 37.034)"/><path class="a" d="M770.809,2.6l.032-.043-.241.04A.493.493,0,0,1,770.809,2.6Z" transform="translate(149.229 37.07)"/><path class="a" d="M768.274,2.8l.612.06c.62-.111-.718.005-.112-.169Z" transform="translate(146.768 37.008)"/><path class="a" d="M761.418,3.294a10.439,10.439,0,0,1-1.73.134c-1.626.173.392.2-1.473.364,1.771-.036.882-.307,2.451-.345C759.9,3.42,761.168,3.345,761.418,3.294Z" transform="translate(135.788 36.723)"/><path class="a" d="M764.078,3.647c.088-.073-.643-.026-.868.035A3.033,3.033,0,0,0,764.078,3.647Z" transform="translate(139.039 36.574)"/><path class="a" d="M757.69,3.8l-.5-.022-.128.051Z" transform="translate(128.946 36.494)"/><path class="a" d="M754.552,3.872l.482-.1C754.876,3.81,754.147,3.837,754.552,3.872Z" transform="translate(124.795 36.496)"/><path class="a" d="M749.21,3.974c-.458-.013-.867.179.1.111h-.22C749.144,4.056,748.622,4.008,749.21,3.974Z" transform="translate(115.861 36.401)"/><path class="a" d="M737.854,4.6c.315,0,.688-.018.622-.055l-.864.035Z" transform="translate(98.945 36.129)"/><path class="a" d="M738.307,5.479a8.052,8.052,0,0,0,1.388.029C739.041,5.486,739.12,5.471,738.307,5.479Z" transform="translate(100.791 35.69)"/><path class="a" d="M736.2,4.3a4.238,4.238,0,0,1,.81.005A1.9,1.9,0,0,0,736.2,4.3Z" transform="translate(96.649 36.268)"/><path class="a" d="M732.025,4.218c-.281-.049.063-.06-.148-.093a7.552,7.552,0,0,0-1.589-.035c.159.052.374.185.122.231a7.709,7.709,0,0,1,1.938-.029l.811-.175C732.386,4.072,732.561,4.239,732.025,4.218Z" transform="translate(90.08 36.36)"/><path class="a" d="M736.313,5.043,735.8,4.97c.1.064-.291.068-.567.083C735.363,5.194,736.017,5.046,736.313,5.043Z" transform="translate(95.509 35.93)"/><path class="a" d="M722.38,4.26l-1.1,0,.357.018Z" transform="translate(73.613 36.266)"/><path class="a" d="M721.251,4.105l-.028-.041-.842.05Z" transform="translate(71.959 36.358)"/><path class="a" d="M719.851,3.984l.13.01.647-.017Z" transform="translate(71.033 36.399)"/><path class="a" d="M715.518,3.747l.2.07c.277,0,.83.091.78.009A3.888,3.888,0,0,1,715.518,3.747Z" transform="translate(64.449 36.509)"/><path class="a" d="M700.5,4.946c.206-.006.093-.059-.021-.113l-.334.046A1.724,1.724,0,0,1,700.5,4.946Z" transform="translate(-12.173 35.994)"/><path class="a" d="M697.6,4.223c-.279-.018-.559-.026-.838-.055.936.213,1.086.145,1.907.287-.341-.1-.841-.117-1.274-.233Z" transform="translate(-10.571 36.309)"/><path class="a" d="M675.479-15.586c.031.113.1-.085-.149.553a5.553,5.553,0,0,1,1.606-2.153c-.16.078.354-.478.075-.207a9.413,9.413,0,0,0-.786.819l.081-.159a1.851,1.851,0,0,0-.434.523A5.965,5.965,0,0,1,675.479-15.586Z" transform="translate(-0.427 20.473)"/><path class="a" d="M753.012-34.589c-.1.035.029.067.156.1C753.8-34.52,752.885-34.585,753.012-34.589Z" transform="translate(122.196 -3.457)"/></g></svg>