<svg xmlns="http://www.w3.org/2000/svg" width="80.083" height="73.829" viewBox="0 0 80.083 73.829"><defs><style>.a{fill:#f5e7e3;}.a,.b{stroke:#457a86;stroke-linecap:round;stroke-linejoin:round;stroke-width:4px;}.b{fill:#ed9075;}</style></defs><g transform="translate(-310.578 -535.364)"><path class="a" d="M361.743,547.37l11.928-.166c1.805-.024,4.929,1.829,5.974,3.28l6.116,8.489a15.766,15.766,0,0,1,2.9,8.993v9.575a3.294,3.294,0,0,1-3.28,3.278h-1.862a13.049,13.049,0,0,0-25.1,0h-15.6a13.049,13.049,0,0,0-25.1,0h-1.865a3.291,3.291,0,0,1-3.278-3.278V558.8a3.292,3.292,0,0,0,3.278,3.278h42.609a3.3,3.3,0,0,0,3.278-3.278V547.37Z" transform="translate(0 15.404)"/><path class="a" d="M341.06,560.306a6.733,6.733,0,1,1-6.734,6.734,6.733,6.733,0,0,1,6.734-6.734Z" transform="translate(29.908 33.422)"/><path class="a" d="M323.926,560.306a6.733,6.733,0,1,1-6.734,6.734,6.732,6.732,0,0,1,6.734-6.734Z" transform="translate(6.345 33.422)"/><path class="b" d="M315.856,536.364h42.609a3.306,3.306,0,0,1,3.278,3.307v33.973a3.31,3.31,0,0,1-3.278,3.3H315.856a3.306,3.306,0,0,1-3.278-3.3V539.671a3.3,3.3,0,0,1,3.278-3.307Z" transform="translate(0 1)"/></g></svg>