<svg xmlns="http://www.w3.org/2000/svg" width="112.508" height="112.508" viewBox="0 0 112.508 112.508"><defs><style>.a{fill:#242422;}</style></defs><path class="a" d="M100.453,2.25h-88.4A12.058,12.058,0,0,0,0,14.3v88.4a12.058,12.058,0,0,0,12.054,12.055h88.4A12.058,12.058,0,0,0,112.508,102.7V14.3A12.058,12.058,0,0,0,100.453,2.25ZM88.173,42.13c.05.7.05,1.431.05,2.135,0,21.774-16.575,46.862-46.861,46.862a46.645,46.645,0,0,1-25.289-7.383,34.7,34.7,0,0,0,3.968.2,33.022,33.022,0,0,0,20.442-7.032A16.492,16.492,0,0,1,25.088,65.486a17.751,17.751,0,0,0,7.434-.3A16.472,16.472,0,0,1,19.337,49.012v-.2A16.459,16.459,0,0,0,26.771,50.9a16.436,16.436,0,0,1-7.333-13.712,16.265,16.265,0,0,1,2.235-8.313A46.767,46.767,0,0,0,55.626,46.1a16.506,16.506,0,0,1,28.1-15.043,32.275,32.275,0,0,0,10.447-3.968,16.428,16.428,0,0,1-7.233,9.066,32.777,32.777,0,0,0,9.493-2.562A34.669,34.669,0,0,1,88.173,42.13Z" transform="translate(0 -2.25)"/></svg>