<svg xmlns="http://www.w3.org/2000/svg" width="175" height="175" viewBox="0 0 160.696 160.696"><defs><style>.a{fill:none;stroke:#000;stroke-linecap:round;stroke-linejoin:round;stroke-width:5px;}.b{fill:none;stroke:#fff;stroke-linecap:round;stroke-linejoin:round;stroke-width:8px;}</style></defs><g transform="translate(4 156.696) rotate(-90)"><path class="b" d="M152.7,76.348A76.348,76.348,0,1,0,76.348,152.7,76.348,76.348,0,0,0,152.7,76.348Z" transform="translate(0)"/><path class="b" d="M0,0,30.539,30.539,0,61.079" transform="translate(76.348 45.809)"/><path class="b" d="M0,0H61.079" transform="translate(45.809 76.348)"/><path class="a" d="M152.7,76.348A76.348,76.348,0,1,0,76.348,152.7,76.348,76.348,0,0,0,152.7,76.348Z" transform="translate(0)"/><path class="a" d="M0,0,30.539,30.539,0,61.079" transform="translate(76.348 45.809)"/><path class="a" d="M0,0H61.079" transform="translate(45.809 76.348)"/></g></svg>