<svg id="Layer_1" data-name="Layer 1" xmlns="http://www.w3.org/2000/svg" viewBox="0 0 479.83 494.11"><defs><style>.cls-1{fill:#f5f6f0;}.cls-2{fill:#111;}</style></defs><polygon class="cls-1" points="211.53 178.84 247.77 154.5 279.35 170.05 287.05 171.51 283.64 126.32 311.34 99.11 270.53 94.26 248.06 56.36 229.23 90.86 188.75 98.14 214.17 124.86 211.53 178.84"/><path class="cls-2" d="M287.38,179.53a6,6,0,0,1-2.79-.69l-36.53-19.21-36.53,19.21a6,6,0,0,1-8.72-6.33l7-40.68L180.23,103a6,6,0,0,1,3.33-10.25l40.85-5.93,18.26-37a6,6,0,0,1,10.77,0l18.27,37,40.84,5.93A6,6,0,0,1,315.88,103l-29.55,28.81,7,40.68a6,6,0,0,1-5.92,7Zm-39.32-32.69a6,6,0,0,1,2.79.69l28.56,15L274,130.74a6,6,0,0,1,1.73-5.31l23.1-22.52-31.92-4.64A6,6,0,0,1,262.34,95L248.06,66.06,233.78,95a6,6,0,0,1-4.52,3.28l-31.93,4.64,23.1,22.52a6,6,0,0,1,1.73,5.31l-5.45,31.8,28.55-15A6,6,0,0,1,248.06,146.84Z"/><path class="cls-2" d="M248.06,347.26a78.13,78.13,0,1,1,78.12-78.13A78.22,78.22,0,0,1,248.06,347.26Zm0-139.39a61.26,61.26,0,1,0,61.25,61.26A61.33,61.33,0,0,0,248.06,207.87Z"/><path class="cls-2" d="M345.09,445.42H151a8.43,8.43,0,0,1-8.43-8.43V411.32a49,49,0,0,1,48.92-48.91h56.55v16.86H191.51a32.09,32.09,0,0,0-32,32.05v17.24h177.2V411.32a32.09,32.09,0,0,0-32.05-32.05H248.06V362.41h56.55a49,49,0,0,1,48.91,48.91V437A8.42,8.42,0,0,1,345.09,445.42Z"/></svg>