<svg id="Layer_1" data-name="Layer 1" xmlns="http://www.w3.org/2000/svg" viewBox="0 0 479.83 494.11"><defs><style>.cls-1{fill:#f5f6f0;}.cls-2{fill:#eecec6;}.cls-3{fill:#111;}</style></defs><polygon class="cls-1" points="58.2 196.63 274.41 196.63 274.2 352.82 58.2 365.96 58.2 196.63"/><polygon class="cls-2" points="236.78 422.4 274.41 436.96 315.57 411.19 365.03 340.95 429.87 246.19 422.8 196.63 390.86 178.86 360.04 178.86 314.74 220.84 274.41 279.77 274.41 347.6 271.1 359.39 269.08 388.33 259.46 405.37 236.78 422.4"/><path class="cls-3" d="M400.7,212.92a31.49,31.49,0,0,0-9.84-4.76l3.59-12.64a44.69,44.69,0,0,1,13.94,6.74Z"/><path class="cls-3" d="M321.43,261.27l-10.66-7.69L336.44,218c11.84-16.43,30.73-25.66,49.32-24.05L384.64,207c-14-1.18-28.38,5.95-37.54,18.65Z"/><path class="cls-3" d="M267.4,445.17c-9.78,0-40-19.51-49.08-24.26l6.08-11.65c43,35.91,69.11,22.1,83.42,2.25L358.7,341l-65.5-47.23,7.69-10.66,70.83,51.08a6.57,6.57,0,0,1,1.48,9.17L318.48,419.2A63,63,0,0,1,267.4,445.17Z"/><path class="cls-3" d="M373.2,343.31l-10.65-7.68,54.71-75.87a49.57,49.57,0,1,0-80.42-58l-57.1,81.84-10.66-7.68,57.11-81.84a62.71,62.71,0,1,1,101.72,73.36Z"/><path class="cls-3" d="M193.42,337.54H139.18V303.05H104.69V248.81h34.49v-34.5h54.24v34.5h34.49v54.24H193.42Zm-41.1-13.14h28V289.91h34.49v-28H180.28V227.45h-28v34.49H117.83v28h34.49Z"/><path class="cls-3" d="M236.78,422.4H95.83a44.25,44.25,0,0,1-44.2-44.2v-207A44.25,44.25,0,0,1,95.83,127H97.1V92.83a6.57,6.57,0,0,1,6.57-6.57H228.94a6.57,6.57,0,0,1,6.57,6.57V127h1.27A44.25,44.25,0,0,1,281,171.2v207A44.25,44.25,0,0,1,236.78,422.4ZM95.83,140.14A31.09,31.09,0,0,0,64.77,171.2v207a31.09,31.09,0,0,0,31.06,31.06h141a31.09,31.09,0,0,0,31.06-31.06v-207a31.09,31.09,0,0,0-31.06-31.06ZM110.24,127H222.37V99.4H110.24Z"/><rect class="cls-3" x="58.2" y="183.49" width="216.21" height="13.14"/><rect class="cls-3" x="58.2" y="352.82" width="216.01" height="13.14"/></svg>