<svg xmlns="http://www.w3.org/2000/svg" width="128.563" height="96.441" viewBox="0 0 128.563 96.441"><defs><style>.a{fill:#242422;}</style></defs><path class="a" d="M127.728,25.8c0-11.3-8.312-20.392-18.584-20.392-13.913-.653-28.1-.9-42.592-.9h-4.52c-14.465,0-28.679.251-42.592.9C9.193,5.4.88,14.545.88,25.847.252,34.787-.024,43.728,0,52.668Q-.037,66.079.855,79.515c0,11.3,8.313,20.468,18.559,20.468,14.616.678,29.609.979,44.852.954q22.9.075,44.852-.954c10.271,0,18.584-9.166,18.584-20.468.6-8.966.879-17.906.854-26.872Q128.632,39.232,127.728,25.8ZM51.986,77.3V27.956L88.4,52.618Z" transform="translate(0 -4.5)"/></svg>