<svg width="266" height="144" viewBox="0 0 266 144" fill="none" xmlns="http://www.w3.org/2000/svg">
<g clip-path="url(#clip0_4_13)">
<path d="M122 3.06548H265.642V79.7831L258.532 90.7741L265.642 100.556V145.18H122V72.8587L126.444 67.8028L122 62.9668V3.06548Z" fill="#016FD0"/>
<path d="M149.884 102.095V79.783H173.762L176.324 83.0872L178.971 79.783H265.642V100.556C265.642 100.556 263.376 102.073 260.754 102.095H212.762L209.874 98.5778V102.095H200.409V96.0912C200.409 96.0912 199.116 96.9292 196.321 96.9292H193.099V102.095H178.768L176.21 98.72L173.612 102.095L149.884 102.095ZM122 62.9668L127.385 50.5468H136.697L139.752 57.504V50.5468H151.328L153.147 55.5752L154.911 50.5468H206.875V53.0748C206.875 53.0748 209.606 50.5468 214.096 50.5468L230.956 50.6052L233.959 57.4712V50.5468H243.646L246.312 54.4908V50.5468H256.088V72.8587H246.312L243.757 68.9018V72.8586H229.525L228.093 69.3415H224.267L222.859 72.8586H213.207C209.344 72.8586 206.875 70.3824 206.875 70.3824V72.8586H192.321L189.433 69.3416V72.8587H135.317L133.887 69.3416H130.073L128.653 72.8586H122V62.9668Z" fill="white"/>
<path d="M129.29 53.2974L122.028 70.0038H126.756L128.096 66.6584H135.887L137.22 70.0038H142.052L134.796 53.2974H129.29ZM131.977 57.1854L134.352 63.0314H129.596L131.977 57.1854ZM142.552 70.001V53.2946L149.271 53.3192L153.179 64.0905L156.994 53.2946H163.66V70.001H159.438V57.691L154.963 70.001H151.261L146.774 57.691V70.001H142.552ZM166.548 70.001V53.2946H180.323V57.0315H170.814V59.8891H180.101V63.4064H170.814V66.374H180.323V70.001H166.548ZM182.768 53.2974V70.0038H186.989V64.0686H188.766L193.828 70.0038H198.987L193.432 63.8488C195.712 63.6584 198.064 61.7227 198.064 58.7174C198.064 55.2018 195.275 53.2974 192.162 53.2974H182.768ZM186.989 57.0344H191.815C192.972 57.0344 193.814 57.9302 193.814 58.7929C193.814 59.9027 192.723 60.5515 191.877 60.5515H186.989V57.0344ZM204.097 70.001H199.787V53.2946H204.097V70.001ZM214.318 70.001H213.387C208.886 70.001 206.152 66.492 206.152 61.7164C206.152 56.8228 208.855 53.2946 214.54 53.2946H219.206V57.2514H214.369C212.062 57.2514 210.43 59.0332 210.43 61.7576C210.43 64.9931 212.296 66.3519 214.984 66.3519H216.095L214.318 70.001ZM223.504 53.2974L216.241 70.0038H220.969L222.309 66.6584H230.1L231.433 70.0038H236.265L229.01 53.2974H223.504ZM226.191 57.1854L228.565 63.0314H223.809L226.191 57.1854ZM236.758 70.001V53.2946H242.126L248.978 63.7911V53.2946H253.2V70.001H248.006L240.98 59.2298V70.001H236.758ZM152.773 99.2371V82.5307H166.548V86.2677H157.039V89.1255H166.326V92.6426H157.039V95.6102H166.548V99.2371H152.773ZM220.272 99.2371V82.5307H234.048V86.2677H224.538V89.1255H233.781V92.6426H224.538V95.6102H234.048V99.2371H220.272ZM167.083 99.2371L173.79 90.9871L166.923 82.5307H172.242L176.331 87.7583L180.435 82.5307H185.545L178.768 90.8839L185.488 99.2371H180.17L176.199 94.092L172.325 99.2371H167.083ZM185.989 82.5336V99.24H190.322V93.9644H194.766C198.525 93.9644 201.376 91.9908 201.376 88.1528C201.376 84.9734 199.14 82.5336 195.314 82.5336H185.989ZM190.322 86.3118H195.002C196.216 86.3118 197.084 87.0484 197.084 88.2352C197.084 89.3501 196.221 90.1586 194.988 90.1586H190.322V86.3118ZM203.209 82.5307V99.2371H207.43V93.3019H209.208L214.269 99.2371H219.428L213.873 93.0822C216.153 92.8919 218.504 90.956 218.504 87.9507C218.504 84.4351 215.715 82.5307 212.603 82.5307H203.209ZM207.43 86.2677H212.256C213.413 86.2677 214.255 87.1635 214.255 88.0263C214.255 89.1361 213.164 89.7848 212.318 89.7848H207.43V86.2677ZM236.003 99.2371V95.6102H244.452C245.702 95.6102 246.243 94.9417 246.243 94.2087C246.243 93.5063 245.703 92.7964 244.452 92.7964H240.634C237.315 92.7964 235.467 90.7962 235.467 87.7928C235.467 85.114 237.159 82.5307 242.091 82.5307H250.312L248.534 86.2898H241.424C240.065 86.2898 239.647 86.9953 239.647 87.6691C239.647 88.3615 240.164 89.1255 241.202 89.1255H245.201C248.901 89.1255 250.506 91.2015 250.506 93.9202C250.506 96.8432 248.717 99.2371 245 99.2371H236.003ZM251.497 99.2371V95.6102H259.945C261.196 95.6102 261.737 94.9417 261.737 94.2087C261.737 93.5063 261.197 92.7964 259.945 92.7964H256.128C252.809 92.7964 250.961 90.7962 250.961 87.7928C250.961 85.114 252.653 82.5307 257.585 82.5307H265.806L264.028 86.2898H256.918C255.559 86.2898 255.141 86.9953 255.141 87.6691C255.141 88.3615 255.658 89.1255 256.696 89.1255H260.695C264.395 89.1255 266 91.2015 266 93.9202C266 96.8432 264.211 99.2371 260.494 99.2371H251.497Z" fill="#016FD0"/>
</g>
<defs>
<clipPath id="clip0_4_13">
<rect width="266" height="144" fill="white"/>
</clipPath>
</defs>
</svg>
