<svg width="266" height="144" viewBox="0 0 266 144" fill="none" xmlns="http://www.w3.org/2000/svg">
<g clip-path="url(#clip0_4_13)">
<path d="M266.286 115.26C266.286 131.3 252.385 144.361 235.314 144.361H66.7996V29.1014C66.7996 13.0612 80.7002 0 97.7711 0H266.286V115.26V115.26Z" fill="white"/>
<path d="M211.415 85.7001H224.218C224.584 85.7001 225.437 85.5855 225.803 85.5855C228.242 85.1272 230.315 83.0649 230.315 80.2006C230.315 77.4509 228.242 75.3886 225.803 74.8157C225.437 74.7012 224.706 74.7012 224.218 74.7012H211.415V85.7001Z" fill="url(#paint0_linear_4_13)"/>
<path d="M222.755 9.73865C210.561 9.73865 200.563 19.019 200.563 30.5908V52.245H231.9C232.632 52.245 233.485 52.245 234.095 52.3596C241.167 52.7033 246.41 56.1404 246.41 62.0982C246.41 66.7957 242.874 70.8057 236.29 71.6077V71.8369C243.484 72.2951 248.971 76.076 248.971 81.9192C248.971 88.2207 242.874 92.3453 234.826 92.3453H200.441V134.737H232.997C245.191 134.737 255.19 125.457 255.19 113.885V9.73865H222.755V9.73865Z" fill="url(#paint1_linear_4_13)"/>
<path d="M228.73 63.4731C228.73 60.7233 226.657 58.8902 224.218 58.5465C223.974 58.5465 223.364 58.4319 222.999 58.4319H211.415V68.5142H222.999C223.364 68.5142 224.096 68.5143 224.218 68.3997C226.657 68.056 228.73 66.2228 228.73 63.4731V63.4731Z" fill="url(#paint2_linear_4_13)"/>
<path d="M100.088 9.73865C87.8944 9.73865 77.8957 19.019 77.8957 30.5908V82.0338C84.1144 84.8981 90.577 86.7313 97.0395 86.7313C104.721 86.7313 108.867 82.3775 108.867 76.4197V52.1304H127.889V76.3052C127.889 85.7001 121.67 93.3765 100.576 93.3765C87.7725 93.3765 77.7738 90.7413 77.7738 90.7413V134.622H110.33C122.524 134.622 132.523 125.342 132.523 113.77V9.73865H100.088V9.73865Z" fill="url(#paint3_linear_4_13)"/>
<path d="M161.421 9.73865C149.228 9.73865 139.229 19.019 139.229 30.5908V57.859C144.838 53.3907 154.593 50.5264 170.323 51.2138C178.736 51.5576 187.759 53.7344 187.759 53.7344V62.5565C183.248 60.3796 177.883 58.4319 170.932 57.9736C158.983 57.1716 151.788 62.6711 151.788 72.2951C151.788 82.0338 158.983 87.5333 170.932 86.6167C177.883 86.1584 183.248 84.0961 187.759 82.0338V90.8559C187.759 90.8559 178.858 93.0327 170.323 93.3765C154.593 94.0639 144.838 91.1996 139.229 86.7313V134.852H171.786C183.979 134.852 193.978 125.571 193.978 113.999V9.73865H161.421V9.73865Z" fill="url(#paint4_linear_4_13)"/>
</g>
<defs>
<linearGradient id="paint0_linear_4_13" x1="200.542" y1="80.2143" x2="255.337" y2="80.2143" gradientUnits="userSpaceOnUse">
<stop stop-color="#007940"/>
<stop offset="0.2285" stop-color="#00873F"/>
<stop offset="0.7433" stop-color="#40A737"/>
<stop offset="1" stop-color="#5CB531"/>
</linearGradient>
<linearGradient id="paint1_linear_4_13" x1="200.541" y1="72.1878" x2="255.339" y2="72.1878" gradientUnits="userSpaceOnUse">
<stop stop-color="#007940"/>
<stop offset="0.2285" stop-color="#00873F"/>
<stop offset="0.7433" stop-color="#40A737"/>
<stop offset="1" stop-color="#5CB531"/>
</linearGradient>
<linearGradient id="paint2_linear_4_13" x1="200.541" y1="63.4587" x2="255.338" y2="63.4587" gradientUnits="userSpaceOnUse">
<stop stop-color="#007940"/>
<stop offset="0.2285" stop-color="#00873F"/>
<stop offset="0.7433" stop-color="#40A737"/>
<stop offset="1" stop-color="#5CB531"/>
</linearGradient>
<linearGradient id="paint3_linear_4_13" x1="77.8699" y1="72.1878" x2="133.513" y2="72.1878" gradientUnits="userSpaceOnUse">
<stop stop-color="#1F286F"/>
<stop offset="0.4751" stop-color="#004E94"/>
<stop offset="0.8261" stop-color="#0066B1"/>
<stop offset="1" stop-color="#006FBC"/>
</linearGradient>
<linearGradient id="paint4_linear_4_13" x1="138.914" y1="72.1878" x2="192.956" y2="72.1878" gradientUnits="userSpaceOnUse">
<stop stop-color="#6C2C2F"/>
<stop offset="0.1735" stop-color="#882730"/>
<stop offset="0.5731" stop-color="#BE1833"/>
<stop offset="0.8585" stop-color="#DC0436"/>
<stop offset="1" stop-color="#E60039"/>
</linearGradient>
<clipPath id="clip0_4_13">
<rect width="266" height="144" fill="white"/>
</clipPath>
</defs>
</svg>
