<svg width="266" height="144" viewBox="0 0 266 144" fill="none" xmlns="http://www.w3.org/2000/svg">
<g clip-path="url(#clip0_4_13)">
<path d="M120.692 20.3319H187.338V129.185H120.692V20.3319Z" fill="#FF5F00"/>
<path d="M127.557 74.768C127.549 64.2864 129.925 53.9404 134.505 44.5126C139.086 35.085 145.751 26.8227 153.996 20.3512C143.784 12.3255 131.521 7.33494 118.606 5.94962C105.692 4.56431 92.6483 6.84022 80.9663 12.5173C69.2844 18.1942 59.4353 27.0434 52.5448 38.0531C45.6542 49.0629 42 61.7891 42 74.7774C42 87.7658 45.6542 100.492 52.5448 111.502C59.4353 122.511 69.2844 131.36 80.9663 137.038C92.6483 142.714 105.692 144.991 118.606 143.605C131.521 142.22 143.784 137.229 153.996 129.204C145.749 122.73 139.082 114.465 134.501 105.033C129.92 95.6024 127.546 85.2525 127.557 74.7677V74.768Z" fill="#EB001B"/>
<path d="M259.388 117.667V115.436H260.349V114.975H258.061V115.436H258.964V117.667H259.388ZM263.829 117.667V114.975H263.137L262.329 116.897L261.522 114.975H260.83V117.667H261.33V115.629L262.08 117.379H262.599L263.349 115.629V117.667H263.829Z" fill="#F79E1B"/>
<path d="M266.002 74.768C266.002 87.7572 262.347 100.484 255.455 111.495C248.564 122.504 238.713 131.353 227.029 137.03C215.345 142.706 202.302 144.981 189.386 143.593C176.471 142.206 164.207 137.213 153.996 129.185C162.238 122.707 168.901 114.442 173.483 105.015C178.065 95.5863 180.445 85.2407 180.445 74.7582C180.445 64.2757 178.065 53.9301 173.483 44.5018C168.901 35.0737 162.238 26.8092 153.996 20.3319C164.207 12.3038 176.471 7.31063 189.386 5.92329C202.302 4.53597 215.345 6.81041 227.029 12.4866C238.713 18.1629 248.564 27.0119 255.456 38.0221C262.347 49.0323 266.002 61.7595 266.002 74.7487V74.768Z" fill="#F79E1B"/>
</g>
<defs>
<clipPath id="clip0_4_13">
<rect width="266" height="144" fill="white"/>
</clipPath>
</defs>
</svg>
