<svg width="266" height="144" viewBox="0 0 266 144" fill="none" xmlns="http://www.w3.org/2000/svg">
<path d="M94.7124 11.0001H147.876C155.297 11.0001 159.912 17.0382 158.181 24.4707L133.43 130.549C131.683 137.956 124.253 143.999 116.827 143.999H63.6687C56.258 143.999 51.632 137.956 53.3632 130.549L78.1248 24.4707C79.856 17.0382 87.2823 11.0001 94.7124 11.0001Z" fill="#E21836"/>
<path d="M143.452 11H204.588C212.008 11 208.662 17.0381 206.917 24.4707L182.169 130.549C180.433 137.956 180.975 143.999 173.539 143.999H112.403C104.968 143.999 100.366 137.956 102.113 130.549L126.859 24.4707C128.616 17.0381 136.027 11 143.452 11Z" fill="#00447C"/>
<path d="M202.163 11H255.326C262.758 11 267.374 17.0381 265.628 24.4707L240.881 130.549C239.134 137.956 231.699 143.999 224.269 143.999H171.13C163.695 143.999 159.083 137.956 160.824 130.549L185.576 24.4707C187.307 17.0381 194.728 11 202.163 11Z" fill="#007B84"/>
<path d="M108.597 44.9952C103.13 45.0508 101.515 44.9952 100.999 44.8736C100.801 45.814 97.112 62.8017 97.1016 62.8159C96.3073 66.2528 95.7294 68.7027 93.7662 70.2847C92.6518 71.2044 91.3508 71.6481 89.8425 71.6481C87.418 71.6481 86.0056 70.4464 85.7685 68.1672L85.7231 67.3846C85.7231 67.3846 86.4617 62.781 86.4617 62.7551C86.4617 62.7551 90.3336 47.2743 91.0269 45.228C91.0632 45.1116 91.0735 45.0508 91.0826 44.9952C83.5462 45.0611 82.2102 44.9952 82.1182 44.8736C82.0677 45.0404 81.8811 46.0002 81.8811 46.0002L77.9275 63.4485L77.588 64.9282L76.9311 69.7686C76.9311 71.2044 77.2135 72.3763 77.7759 73.3671C79.5771 76.5091 84.715 76.9799 87.6215 76.9799C91.3664 76.9799 94.8793 76.1857 97.2532 74.7357C101.374 72.3052 102.452 68.5061 103.414 65.13L103.859 63.398C103.859 63.398 107.848 47.3196 108.525 45.228C108.551 45.1116 108.562 45.0508 108.597 44.9952ZM122.167 57.9658C121.206 57.9658 119.449 58.1986 117.87 58.9708C117.298 59.2645 116.756 59.6034 116.185 59.941L116.7 58.0822L116.418 57.7691C113.071 58.4457 112.322 58.5362 109.23 58.9708L108.971 59.1429C108.612 62.1141 108.293 64.348 106.962 70.1882C106.456 72.3406 105.93 74.5137 105.402 76.661L105.545 76.9339C108.713 76.767 109.674 76.767 112.428 76.8123L112.651 76.5704C113.001 74.7815 113.046 74.3624 113.821 70.7392C114.185 69.0214 114.945 65.247 115.319 63.903C116.007 63.5848 116.686 63.2718 117.334 63.2718C118.877 63.2718 118.689 64.6157 118.63 65.1513C118.564 66.0502 118.001 68.9865 117.425 71.5076L117.04 73.1348C116.772 74.3365 116.477 75.5046 116.209 76.6959L116.326 76.9339C119.449 76.767 120.401 76.767 123.068 76.8123L123.382 76.5704C123.864 73.7764 124.005 73.0288 124.86 68.9607L125.29 67.0915C126.126 63.4335 126.546 61.5786 125.914 60.0677C125.245 58.3745 123.641 57.9658 122.167 57.9658ZM137.327 61.7957C135.667 62.1139 134.609 62.3261 133.557 62.4632C132.513 62.6301 131.496 62.7814 129.892 63.0039L129.765 63.119L129.648 63.2108C129.481 64.4035 129.365 65.4344 129.143 66.6464C128.955 67.8998 128.666 69.324 128.196 71.3703C127.832 72.9368 127.644 73.4827 127.436 74.0337C127.234 74.5847 127.011 75.1202 126.602 76.6608L126.698 76.8031L126.778 76.9338C128.277 76.8626 129.258 76.8122 130.266 76.8031C131.273 76.7669 132.316 76.8031 133.931 76.8122L134.072 76.697L134.224 76.5703C134.457 75.181 134.492 74.8072 134.635 74.1294C134.776 73.4025 135.019 72.3961 135.617 69.7082C135.899 68.4457 136.214 67.1871 136.507 65.8988C136.812 64.6156 137.13 63.3518 137.434 62.0894L137.388 61.9367L137.327 61.7957ZM137.363 56.6318C135.854 55.7431 133.207 56.0251 131.425 57.2526C129.649 58.4556 129.447 60.1631 130.95 61.0633C132.432 61.9274 135.09 61.67 136.856 60.4321C138.629 59.2033 138.85 57.5114 137.363 56.6318ZM146.485 77.2122C149.536 77.2122 152.664 76.3728 155.019 73.8814C156.83 71.861 157.661 68.8548 157.949 67.6169C158.885 63.5139 158.156 61.5982 157.24 60.4315C155.848 58.6529 153.389 58.0824 150.837 58.0824C149.303 58.0824 145.649 58.2338 142.794 60.8609C140.744 62.7559 139.797 65.3274 139.225 67.7929C138.649 70.3049 137.985 74.827 142.151 76.5099C143.437 77.0609 145.29 77.2122 146.485 77.2122ZM146.246 67.9804C146.95 64.8734 147.78 62.2657 149.9 62.2657C151.562 62.2657 151.682 64.2059 150.943 67.3233C150.811 68.0153 150.205 70.5882 149.385 71.6838C148.812 72.4922 148.134 72.9825 147.385 72.9825C147.162 72.9825 145.837 72.9825 145.816 71.0176C145.806 70.0475 146.004 69.0566 146.246 67.9804ZM165.577 76.8127L165.815 76.5708C166.154 74.7819 166.209 74.3615 166.958 70.7396C167.333 69.0218 168.108 65.2474 168.472 63.9034C169.161 63.5839 169.829 63.2709 170.497 63.2709C172.03 63.2709 171.844 64.6148 171.783 65.1503C171.727 66.0506 171.165 68.9856 170.578 71.5067L170.213 73.1339C169.935 74.3369 169.632 75.5036 169.363 76.6963L169.48 76.9343C172.613 76.7674 173.529 76.7674 176.212 76.8127L176.536 76.5708C177.006 73.7755 177.133 73.0279 178.014 68.961L178.434 67.0906C179.274 63.4326 179.699 61.5789 179.077 60.0681C178.389 58.3749 176.774 57.9662 175.322 57.9662C174.359 57.9662 172.593 58.1977 171.023 58.9712C170.462 59.2648 169.9 59.6025 169.348 59.9414L169.829 58.0826L169.571 57.7682C166.225 58.446 165.46 58.5366 162.372 58.9712L162.135 59.1433C161.761 62.1145 161.456 64.3471 160.126 70.1886C159.619 72.341 159.093 74.5141 158.567 76.6613L158.708 76.9343C161.881 76.7674 162.829 76.7674 165.577 76.8127ZM188.598 76.9336C188.795 75.9738 189.965 70.285 189.975 70.285C189.975 70.285 190.972 66.1108 191.033 65.9594C191.033 65.9594 191.346 65.5248 191.66 65.3528H192.121C196.474 65.3528 201.389 65.3528 205.241 62.5239C207.863 60.5836 209.655 57.7184 210.454 54.2363C210.661 53.3826 210.814 52.3672 210.814 51.3518C210.814 50.0181 210.546 48.6988 209.771 47.6678C207.807 44.9243 203.895 44.8738 199.379 44.8531C199.365 44.8531 197.153 44.8738 197.153 44.8738C191.372 44.945 189.054 44.9243 188.101 44.8079C188.021 45.2283 187.869 45.9759 187.869 45.9759C187.869 45.9759 185.799 55.5557 185.799 55.5712C185.799 55.5712 180.844 75.9389 180.61 76.8987C185.658 76.8379 187.727 76.8379 188.598 76.9336ZM192.435 59.9161C192.435 59.9161 194.636 50.3557 194.626 50.392L194.697 49.9017L194.728 49.5279L195.608 49.6184C195.608 49.6184 200.149 50.0078 200.255 50.0181C202.047 50.7102 202.786 52.4939 202.27 54.8223C201.799 56.9501 200.417 58.739 198.64 59.6031C197.177 60.3352 195.385 60.396 193.539 60.396H192.344L192.435 59.9161ZM206.142 68.1575C205.56 70.6333 204.892 75.1554 209.037 76.7672C210.359 77.3285 211.543 77.4954 212.747 77.4346C214.018 77.366 215.196 76.7296 216.287 75.8138C216.189 76.1902 216.09 76.5667 215.992 76.9444L216.18 77.1863C219.161 77.0608 220.086 77.0608 223.317 77.0854L223.61 76.8629C224.081 74.0947 224.526 71.4068 225.752 66.1112C226.349 63.5746 226.945 61.0626 227.558 58.5363L227.462 58.2582C224.127 58.8752 223.235 59.0072 220.027 59.4612L219.783 59.6591C219.751 59.9165 219.717 60.1636 219.686 60.4106C219.187 59.6061 218.464 58.9192 217.348 58.4911C215.922 57.931 212.571 58.6528 209.69 61.2708C207.666 63.14 206.694 65.7011 206.142 68.1575ZM213.147 68.3089C213.861 65.2574 214.682 62.6756 216.807 62.6756C218.15 62.6756 218.858 63.9135 218.714 66.0245C218.6 66.551 218.477 67.1059 218.331 67.7332C218.118 68.64 217.887 69.539 217.663 70.4393C217.435 71.055 217.17 71.6358 216.878 72.0225C216.331 72.7961 215.03 73.276 214.281 73.276C214.069 73.276 212.757 73.276 212.712 71.346C212.702 70.3849 212.9 69.3954 213.147 68.3089ZM249.729 58.2335L249.471 57.9399C246.17 58.6074 245.573 58.7134 242.541 59.1222L242.318 59.3447C242.308 59.3809 242.299 59.4365 242.283 59.4869L242.273 59.4365C240.015 64.6351 240.081 63.5137 238.244 67.6063C238.234 67.4201 238.234 67.3037 238.223 67.1058L237.763 58.2335L237.474 57.9399C234.017 58.6074 233.935 58.7134 230.743 59.1222L230.494 59.3447C230.459 59.4507 230.459 59.5671 230.438 59.6939L230.459 59.7392C230.858 61.7752 230.762 61.3211 231.162 64.5342C231.349 66.111 231.598 67.6969 231.784 69.2543C232.099 71.8607 232.275 73.1439 232.66 77.1214C230.504 80.6734 229.994 82.0174 227.918 85.1348L227.932 85.1658L226.47 87.4735C226.303 87.7166 226.151 87.8835 225.939 87.9546C225.706 88.0698 225.402 88.0905 224.981 88.0905H224.171L222.968 92.0874L227.097 92.1586C229.522 92.1482 231.046 91.0164 231.866 89.4952L234.463 85.0533H234.421L234.695 84.7403C236.441 80.9865 249.729 58.2335 249.729 58.2335ZM206.142 110.728H204.39L210.874 89.3187H213.025L213.708 87.1132L213.774 89.5657C213.694 91.0817 214.889 92.4257 218.027 92.2032H221.657L222.906 88.0808H221.54C220.755 88.0808 220.391 87.8829 220.436 87.4586L220.37 84.9634H213.649V84.9763C211.476 85.0216 204.986 85.1846 203.672 85.5338C202.082 85.9426 200.407 87.1455 200.407 87.1455L201.065 84.9375H194.778L193.468 89.3187L186.897 111.055H185.622L184.371 115.148H196.894L196.474 116.512H202.645L203.054 115.148H204.785L206.142 110.728ZM201.004 93.6688C199.997 93.9469 198.124 94.7902 198.124 94.7902L199.79 89.3187H204.785L203.58 93.3053C203.58 93.3053 202.037 93.3958 201.004 93.6688ZM201.1 101.485C201.1 101.485 199.531 101.682 198.498 101.915C197.481 102.223 195.573 103.193 195.573 103.193L197.294 97.4989H202.316L201.1 101.485ZM198.301 110.778H193.29L194.743 105.973H199.738L198.301 110.778ZM210.368 97.4989H217.591L216.553 100.854H209.235L208.136 104.523H214.54L209.691 111.338C209.351 111.839 209.047 112.016 208.709 112.157C208.369 112.329 207.923 112.531 207.408 112.531H205.631L204.41 116.548H209.057C211.473 116.548 212.899 115.452 213.953 114.012L217.278 109.469L217.992 114.082C218.143 114.946 218.765 115.452 219.186 115.648C219.652 115.881 220.132 116.281 220.811 116.34C221.54 116.371 222.066 116.396 222.416 116.396H224.699L226.07 111.9H225.169C224.652 111.9 223.762 111.813 223.61 111.651C223.459 111.455 223.459 111.152 223.377 110.691L222.653 106.068H219.687L220.988 104.523H228.292L229.416 100.854H222.653L223.706 97.4989H230.448L231.699 93.3609H211.598L210.368 97.4989ZM149.364 111.712L151.05 106.114H157.979L159.245 101.95H152.309L153.368 98.5043H160.145L161.401 94.4724H144.444L143.214 98.5043H147.067L146.039 101.95H142.176L140.896 106.185H144.747L142.5 113.592C142.197 114.572 142.643 114.946 142.925 115.402C143.214 115.845 143.507 116.139 144.165 116.306C144.844 116.457 145.31 116.548 145.942 116.548H153.753L155.145 111.935L151.682 112.41C151.014 112.41 149.162 112.329 149.364 111.712ZM150.159 84.9123L148.403 88.0801C148.027 88.7721 147.689 89.2016 147.384 89.3995C147.116 89.5664 146.585 89.6362 145.815 89.6362H144.899L143.675 93.6888H146.717C148.18 93.6888 149.304 93.1533 149.84 92.8855C150.417 92.5777 150.568 92.7536 151.014 92.3241L152.042 91.4355H161.543L162.803 87.216H155.849L157.063 84.9123H150.159ZM164.185 111.794C164.023 111.561 164.14 111.151 164.387 110.297L166.984 101.717H176.222C177.568 101.698 178.54 101.682 179.173 101.637C179.852 101.566 180.59 101.324 181.395 100.889C182.225 100.434 182.65 99.9542 183.009 99.4032C183.41 98.8534 184.053 97.6505 184.605 95.7956L187.869 84.9378L178.282 84.9934C178.282 84.9934 175.33 85.428 174.031 85.9079C172.719 86.4434 170.846 87.9387 170.846 87.9387L171.711 84.9624H165.789L157.499 112.409C157.205 113.475 157.008 114.249 156.962 114.713C156.947 115.214 157.595 115.709 158.015 116.083C158.511 116.457 159.244 116.396 159.948 116.457C160.688 116.513 161.74 116.547 163.193 116.547H167.743L169.14 111.839L165.066 112.223C164.631 112.223 164.316 111.99 164.185 111.794ZM168.66 95.9223H178.363L177.746 97.8522C177.659 97.8975 177.452 97.7565 176.464 97.8729H168.062L168.66 95.9223ZM170.603 89.4496H180.388L179.684 91.774C179.684 91.774 175.073 91.7287 174.334 91.8646C171.084 92.4259 169.186 94.1593 169.186 94.1593L170.603 89.4496ZM177.963 104.315C177.883 104.603 177.756 104.779 177.578 104.911C177.381 105.038 177.062 105.083 176.587 105.083H175.204L175.286 102.733H169.535L169.302 114.223C169.293 115.053 169.373 115.532 169.981 115.917C170.589 116.396 172.461 116.457 174.981 116.457H178.585L179.886 112.156L176.749 112.328L175.706 112.389C175.563 112.328 175.427 112.273 175.275 112.121C175.143 111.991 174.92 112.071 174.957 111.242L174.981 108.296L178.271 108.161C180.048 108.161 180.807 107.584 181.455 107.034C182.073 106.508 182.275 105.902 182.509 105.083L183.061 102.476H178.54L177.963 104.315Z" fill="#FEFEFE"/>
</svg>
