<svg width="266" height="144" viewBox="0 0 266 144" fill="none" xmlns="http://www.w3.org/2000/svg">
<path d="M115.124 142.576H93.6027L107.064 59.5058H128.584L115.124 142.576Z" fill="#00579F"/>
<path d="M193.14 61.5366C188.895 59.8558 182.163 58 173.837 58C152.585 58 137.618 69.3111 137.527 85.4826C137.35 97.4139 148.242 104.041 156.388 108.019C164.714 112.084 167.545 114.738 167.545 118.361C167.46 123.926 160.817 126.492 154.62 126.492C146.028 126.492 141.424 125.169 134.428 122.073L131.594 120.746L128.582 139.393C133.63 141.688 142.93 143.725 152.584 143.814C175.166 143.814 189.867 132.678 190.042 115.445C190.127 105.988 184.376 98.7423 171.977 92.8213C164.45 89.0204 159.84 86.4575 159.84 82.5685C159.928 79.033 163.739 75.4118 172.236 75.4118C179.232 75.2345 184.373 76.9129 188.267 78.5926L190.213 79.4747L193.14 61.5366V61.5366Z" fill="#00579F"/>
<path d="M221.744 113.147C223.516 108.375 230.336 89.9049 230.336 89.9049C230.247 90.0822 232.105 85.0445 233.168 81.9518L234.672 89.1097C234.672 89.1097 238.747 108.994 239.632 113.147C236.269 113.147 225.995 113.147 221.744 113.147ZM248.309 59.5058H231.662C226.529 59.5058 222.629 61.0069 220.414 66.3982L188.447 142.575H211.028C211.028 142.575 214.746 132.322 215.545 130.114C218.023 130.114 239.99 130.114 243.177 130.114C243.795 133.03 245.745 142.575 245.745 142.575H265.671L248.309 59.5058V59.5058Z" fill="#00579F"/>
<path d="M75.6273 59.5058L54.551 116.152L52.2478 104.663C48.3513 91.4071 36.1308 77.0046 22.4933 69.8432L41.7985 142.488H64.5566L98.3842 59.5058H75.6273V59.5058Z" fill="#00579F"/>
<path d="M34.9798 59.5058H0.354233L0 61.1843C27.0101 68.0778 44.8983 84.6945 52.2478 104.667L44.7206 66.4886C43.4814 61.1831 39.6731 59.6808 34.9798 59.5058Z" fill="#FAA61A"/>
</svg>
