<svg xmlns="http://www.w3.org/2000/svg" width="41.618" height="47.695" viewBox="0 0 41.618 47.695">
  <g id="Group_1468" data-name="Group 1468" transform="translate(1 1)">
    <path id="Path_590" data-name="Path 590" d="M3050.037,1287.357c-.092.736-.115,3.029-.119,4.121h0a1.338,1.338,0,0,0-.345-.229.912.912,0,0,1-1.179-.382,4.8,4.8,0,0,1-.789-1.782.329.329,0,0,0-.368-.259,16.579,16.579,0,0,1-12.326-3.413.528.528,0,0,0-.452-.1.436.436,0,0,0-.354.3,13.4,13.4,0,0,1-.545,2.068,9.458,9.458,0,0,1-2.143,3.6c-.519.548-1.19-.042-1.19-.042a1.393,1.393,0,0,0-.332.218c-.022-1-.078-3.322-.133-4.112,0-2.719.695-8.243,5.744-8.258,1.606,0,1.159-1.1,4.258-1.1C3049.254,1278,3050.037,1284.341,3050.037,1287.357Z" transform="translate(-3020.133 -1278)" fill="#ed9075" stroke="#707070" stroke-width="2"/>
    <path id="Path_592" data-name="Path 592" d="M3012.372,1346.739a66.012,66.012,0,0,1,1.742-10.872,3.779,3.779,0,0,1,2.156-2.2l10.337-4.031,4.489,3a2.1,2.1,0,0,0,2.163-.014l4.333-2.99,10.485,4.032a3.784,3.784,0,0,1,2.175,2.209,65.56,65.56,0,0,1,1.739,10.862h-39.618Z" transform="translate(-3012.372 -1301.043)" fill="#f5e7e3" stroke="#000" stroke-linejoin="round" stroke-width="2"/>
    <path id="Path_597" data-name="Path 597" d="M3029.892,1291.471c-.022-1-.078-3.322-.133-4.112,0-2.719.695-8.243,5.744-8.258,1.606,0,1.159-1.1,4.258-1.1,9.49,0,10.275,6.339,10.275,9.355-.092.737-.115,3.03-.119,4.121" transform="translate(-3020.132 -1278.002)" fill="none" stroke="#000" stroke-linejoin="round" stroke-width="2"/>
    <path id="Path_598" data-name="Path 598" d="M3039.6,1310.18a7.25,7.25,0,0,0,1.233-.09l.185-.029a4.738,4.738,0,0,0,2.41-.825,14.461,14.461,0,0,0,1.195-1.018l0,0a14.137,14.137,0,0,0,2.728-3.4l.768-2.094a1.328,1.328,0,0,1,.359-.537c1.329-1.2,2.234-3.812,1.135-4.812a1.345,1.345,0,0,0-.345-.229.912.912,0,0,1-1.179-.382,4.8,4.8,0,0,1-.788-1.782.329.329,0,0,0-.368-.259,16.579,16.579,0,0,1-12.326-3.412.525.525,0,0,0-.452-.1.435.435,0,0,0-.354.3,13.409,13.409,0,0,1-.545,2.067,9.458,9.458,0,0,1-2.144,3.6c-.518.547-1.189-.042-1.189-.042a1.38,1.38,0,0,0-.332.218c-1.117.991-.209,3.614,1.125,4.822a1.361,1.361,0,0,1,.359.536l.766,2.094a14.183,14.183,0,0,0,2.728,3.4l0,0a14.42,14.42,0,0,0,1.2,1.018,4.732,4.732,0,0,0,2.407.826l.186.029a7.338,7.338,0,0,0,1.236.09" transform="translate(-3019.834 -1283.888)" fill="#fff" stroke="#000" stroke-linejoin="round" stroke-width="2"/>
    <path id="Path_599" data-name="Path 599" d="M3057.143,1321.926v.006a26.3,26.3,0,0,0,.431,4.264" transform="translate(-3032.352 -1297.603)" fill="none" stroke="#000" stroke-linejoin="round" stroke-width="2"/>
    <path id="Path_600" data-name="Path 600" d="M3038.588,1321.926v.006a25.6,25.6,0,0,1-.505,4.264" transform="translate(-3023.846 -1297.603)" fill="none" stroke="#000" stroke-linejoin="round" stroke-width="2"/>
  </g>
</svg>
