<svg xmlns="http://www.w3.org/2000/svg" width="33.152" height="30.55" viewBox="0 0 33.152 30.55">
  <g id="Group_793" data-name="Group 793" transform="translate(0.75 0.75)">
    <path id="Path_68" data-name="Path 68" d="M333.031,547.273l4.962-.069a4.011,4.011,0,0,1,2.485,1.365l2.544,3.532a6.559,6.559,0,0,1,1.206,3.741v3.983a1.37,1.37,0,0,1-1.365,1.364h-.775a5.429,5.429,0,0,0-10.443,0H325.16a5.429,5.429,0,0,0-10.442,0h-.776a1.369,1.369,0,0,1-1.364-1.364v-7.8a1.37,1.37,0,0,0,1.364,1.364h17.726a1.371,1.371,0,0,0,1.364-1.364v-4.755Z" transform="translate(-312.578 -536.702)" fill="#fff" stroke="#000" stroke-linecap="round" stroke-linejoin="round" stroke-width="1.5"/>
    <path id="Path_69" data-name="Path 69" d="M337.127,560.306a2.8,2.8,0,1,1-2.8,2.8,2.8,2.8,0,0,1,2.8-2.8Z" transform="translate(-312.836 -536.858)" fill="#fff" stroke="#000" stroke-linecap="round" stroke-linejoin="round" stroke-width="1.5"/>
    <path id="Path_70" data-name="Path 70" d="M319.993,560.306a2.8,2.8,0,1,1-2.8,2.8,2.8,2.8,0,0,1,2.8-2.8Z" transform="translate(-312.633 -536.858)" fill="#fff" stroke="#000" stroke-linecap="round" stroke-linejoin="round" stroke-width="1.5"/>
    <path id="Path_71" data-name="Path 71" d="M313.942,536.364h17.726a1.375,1.375,0,0,1,1.364,1.376v14.133a1.377,1.377,0,0,1-1.364,1.375H313.942a1.375,1.375,0,0,1-1.364-1.375V537.74a1.374,1.374,0,0,1,1.364-1.376Z" transform="translate(-312.578 -536.364)" fill="#ed9075" stroke="#000" stroke-linecap="round" stroke-linejoin="round" stroke-width="1.5"/>
  </g>
</svg>
