<svg xmlns="http://www.w3.org/2000/svg" width="25.951" height="32.417" viewBox="0 0 25.951 32.417">
  <g id="Group_953" data-name="Group 953" transform="translate(-68.25 0.75)">
    <path id="Path_516" data-name="Path 516" d="M391.67,54h4.423a1.358,1.358,0,0,1,1.358,1.358v25.13a1.358,1.358,0,0,1-1.358,1.358H374.358A1.358,1.358,0,0,1,373,80.489V55.358A1.358,1.358,0,0,1,374.358,54h4.478" transform="translate(-304 -50.93)" fill="#fff"/>
    <path id="Path_517" data-name="Path 517" d="M392.548,58h2.405V79.9H377V58h2.6" transform="translate(-304.751 -52.212)" fill="#ed9075" stroke="#000" stroke-linejoin="round" stroke-miterlimit="10" stroke-width="1.5"/>
    <path id="Path_518" data-name="Path 518" d="M379.193,54h16.9a1.358,1.358,0,0,1,1.358,1.358v25.13a1.358,1.358,0,0,1-1.358,1.358H374.358A1.358,1.358,0,0,1,373,80.489V55.358A1.358,1.358,0,0,1,374.358,54h5.3" transform="translate(-304 -50.93)" fill="none" stroke="#000" stroke-miterlimit="10" stroke-width="1.5"/>
    <path id="Path_519" data-name="Path 519" d="M391.483,51.564h-1.85a2.468,2.468,0,1,0-4.933,0h-1.85A1.887,1.887,0,0,0,381,53.487v2.157h12.333V53.487A1.887,1.887,0,0,0,391.483,51.564Z" transform="translate(-305.941 -49)" fill="#fff" stroke="#000" stroke-linejoin="round" stroke-miterlimit="10" stroke-width="1.5"/>
    <path id="Path_520" data-name="Path 520" d="M383,72.06l3.045,2.537L391.12,68" transform="translate(-305.834 -54.304)" fill="none" stroke="#fff" stroke-linecap="round" stroke-linejoin="round" stroke-width="2"/>
  </g>
</svg>
