<svg xmlns="http://www.w3.org/2000/svg" width="26.629" height="36.188" viewBox="0 0 26.629 36.188">
  <g id="Group_951" data-name="Group 951" transform="translate(-2809.253 9017.769)">
    <path id="Path_509" data-name="Path 509" d="M71.824,294.882v3.5a2.206,2.206,0,0,1-.646,1.56L69.313,301.8a1.471,1.471,0,0,1-1.04.431H66.55a1.471,1.471,0,0,1-1.04-.431l-1.864-1.864A2.206,2.206,0,0,1,63,298.38v-5.7A3.677,3.677,0,0,1,66.677,289h1.471a3.677,3.677,0,0,1,3.677,3.677v2.206" transform="translate(2755.22 -9306.019)" fill="#ed9075"/>
    <path id="Path_508" data-name="Path 508" d="M2815.1-8982.579h14.087v-17.256h4.079l-1.977-3.545-6.144-2.022,1.848-2.147v-4.155h-8.882v4.155l1.372,2.147-4.969,2.022-2.262,2.456-1.231,4.067,4.079,5.318Z" transform="translate(0.059 0.248)" fill="#fff"/>
    <rect id="Rectangle_727" data-name="Rectangle 727" width="17" height="14" transform="translate(2818.132 -8999.453)" fill="#ed9075"/>
    <rect id="Rectangle_728" data-name="Rectangle 728" width="7" height="4" transform="translate(2823.132 -8999.453)" fill="#fff"/>
    <path id="Path_506" data-name="Path 506" d="M70.971,319.414v3.07H56.754v-7.69" transform="translate(2758.404 -9304.814)" fill="none" stroke="#000" stroke-linejoin="round" stroke-width="1.5"/>
    <path id="Path_500" data-name="Path 500" d="M63,317.881V313H79.912v13.971H63v-3.677" transform="translate(2755.22 -9312.371)" fill="none" stroke="#000" stroke-linecap="round" stroke-linejoin="round" stroke-miterlimit="10" stroke-width="1.5"/>
    <path id="Path_501" data-name="Path 501" d="M71,313v3.808h6.912V313" transform="translate(2752.219 -9312.371)" fill="none" stroke="#000" stroke-linecap="round" stroke-linejoin="round" stroke-miterlimit="10" stroke-width="1.5"/>
    <path id="Path_502" data-name="Path 502" d="M81.69,311.178l-1.646-2.743a2.94,2.94,0,0,0-1.592-1.277l-4.991-1.812" transform="translate(2751.971 -9310.55)" fill="none" stroke="#000" stroke-miterlimit="10" stroke-width="1.5"/>
    <path id="Path_504" data-name="Path 504" d="M71.824,294.882v3.5a2.206,2.206,0,0,1-.646,1.56L69.313,301.8a1.471,1.471,0,0,1-1.04.431H66.55a1.471,1.471,0,0,1-1.04-.431l-1.864-1.864A2.206,2.206,0,0,1,63,298.38v-5.7A3.677,3.677,0,0,1,66.677,289h1.471a3.677,3.677,0,0,1,3.677,3.677v2.206" transform="translate(2755.22 -9306.019)" fill="none" stroke="#000" stroke-miterlimit="10" stroke-width="1.5"/>
    <path id="Path_505" data-name="Path 505" d="M0,0H10.3" transform="translate(2818.908 -9011.136)" fill="none" stroke="#000" stroke-linecap="round" stroke-width="1.5"/>
    <path id="Path_507" data-name="Path 507" d="M2822.855-8992.322l-1.2,3.472L2810.5-8992.7l-.752-1.918,1.425-3.174Z" transform="translate(0 0.897)" fill="#fff"/>
    <path id="Path_503" data-name="Path 503" d="M61.48,305.359l-5.4,2.371a2.939,2.939,0,0,0-1.611,1.714l-2.5,7a2.205,2.205,0,0,0,1.343,2.822L63.672,322.6l1.239-3.329-7.232-3.89" transform="translate(2758.174 -9310.549)" fill="none" stroke="#000" stroke-linecap="round" stroke-linejoin="round" stroke-miterlimit="10" stroke-width="1.5"/>
  </g>
</svg>
