<svg xmlns="http://www.w3.org/2000/svg" width="27.488" height="32.959" viewBox="0 0 27.488 32.959">
  <g id="Group_952" data-name="Group 952" transform="translate(-3372.25 9018.209)">
    <path id="Path_499" data-name="Path 499" d="M3373-8991.475l12.8,4.819,13.373-4.819v-8.656l-13.373-6.008-12.8,6.008Z" fill="#fff"/>
    <line id="Line_40" data-name="Line 40" y2="9" transform="translate(3386 -8995)" fill="none" stroke="#000" stroke-linejoin="round" stroke-width="1.5"/>
    <path id="Path_493" data-name="Path 493" d="M385.994,307l12.994,5.274v8.891l-12.994,5.471L373,321.16V312.27L385.994,307" transform="translate(3000 -9312.631)" fill="none" stroke="#000" stroke-linejoin="round" stroke-width="1.5"/>
    <path id="Path_494" data-name="Path 494" d="M398.988,314l-12.994,5.471L373,314" transform="translate(3000 -9314.361)" fill="none" stroke="#000" stroke-linejoin="round" stroke-width="1.5"/>
    <path id="Path_497" data-name="Path 497" d="M389.155,306.1c1.546-5.15,6.155-6.218,6.155-10.942a6.155,6.155,0,1,0-12.31,0C383,299.879,387.608,300.948,389.155,306.1Z" transform="translate(2996.839 -9306.459)" fill="#ed9075"/>
    <path id="Path_498" data-name="Path 498" d="M391.06,295a2.043,2.043,0,1,1-2.06,2.043A2.052,2.052,0,0,1,391.06,295Z" transform="translate(2994.942 -9308.355)" fill="#fff"/>
    <path id="Path_495" data-name="Path 495" d="M389.155,306.1c1.546-5.15,6.155-6.218,6.155-10.942a6.155,6.155,0,1,0-12.31,0C383,299.879,387.608,300.948,389.155,306.1Z" transform="translate(2996.839 -9306.459)" fill="none" stroke="#000" stroke-linejoin="round" stroke-width="1.5"/>
    <path id="Path_496" data-name="Path 496" d="M391.06,295a2.043,2.043,0,1,1-2.06,2.043A2.052,2.052,0,0,1,391.06,295Z" transform="translate(2994.942 -9308.355)" fill="none" stroke="#000" stroke-linejoin="round" stroke-width="1.5"/>
  </g>
</svg>
