<svg id="Layer_1" data-name="Layer 1" xmlns="http://www.w3.org/2000/svg" viewBox="0 0 479.83 494.11"><defs><style>.cls-1{fill:#f5f6f0;}.cls-2{fill:#eecec6;}.cls-3{fill:#111;}</style></defs><path class="cls-1" d="M239.91,137.81s-41.2,54.77-121.73,82.8c0,0-23.13,67.65-4.32,114.36,0,0,24.94,83.11,119.32,97.93,0,0,113.72-12.88,142.07-115.65l-4.51-90.52-32.86-20.62-35.76-18-25.21-12.24-27.62-28.67Z"/><polygon class="cls-2" points="63.68 267.29 24.11 275.29 24.11 334.81 34.26 345.92 60.35 345.92 69.05 345.92 72.43 282.51 63.68 267.29"/><polygon class="cls-2" points="235.28 331.91 235.28 365.73 288.43 368.15 284.91 331.91 235.28 331.91"/><polygon class="cls-2" points="411.17 269.57 452.73 269.57 452.73 343.99 428.08 343.99 411.17 343.99 411.17 269.57"/><path class="cls-3" d="M239.87,437.17a142.07,142.07,0,0,1-142-142.06V246.33a44.86,44.86,0,0,1,32-43c28.09-8.64,78.84-29.4,103.15-71.47a8,8,0,0,1,13.85,0c24.3,42.07,75.06,62.83,103.15,71.47a44.86,44.86,0,0,1,32,43v46C382,370.07,320,435,243.9,437.11,242.56,437.15,241.21,437.17,239.87,437.17Zm0-286.64c-28.66,39.64-77.44,59.5-105.38,68.08a29,29,0,0,0-20.67,27.72v48.78a126.07,126.07,0,0,0,129.6,126C311,419.26,366,361.49,366,292.32v-46a29,29,0,0,0-20.68-27.72C317.36,210,268.58,190.17,239.91,150.53Z"/><path class="cls-3" d="M416.15,267.29h-16V235.22c0-75-70-162.27-160.24-162.27S79.68,160.18,79.68,235.22v32.07h-16V235.22c0-82.44,77-178.27,176.23-178.27s176.24,95.83,176.24,178.27Z"/><path class="cls-3" d="M71.7,357.37H42.94a27.74,27.74,0,0,1-27.71-27.7V287a27.74,27.74,0,0,1,27.71-27.7H71.7a8,8,0,0,1,8,8v82.08A8,8,0,0,1,71.7,357.37ZM42.94,275.29A11.72,11.72,0,0,0,31.23,287v42.68a11.72,11.72,0,0,0,11.71,11.7H63.7V275.29Z"/><path class="cls-3" d="M436.89,357.37H408.12a8,8,0,0,1-8-8V267.29a8,8,0,0,1,8-8h28.77a27.73,27.73,0,0,1,27.7,27.7v42.68A27.73,27.73,0,0,1,436.89,357.37Zm-20.77-16h20.77a11.72,11.72,0,0,0,11.7-11.7V287a11.72,11.72,0,0,0-11.7-11.7H416.12Z"/><rect class="cls-3" x="284.91" y="341.37" width="123.21" height="16"/><path class="cls-3" d="M284.91,375.7H236a8,8,0,0,1-8-8V331.05a8,8,0,0,1,8-8h48.87a8,8,0,0,1,8,8V367.7A8,8,0,0,1,284.91,375.7ZM244,359.7h32.87V339.05H244Z"/></svg>