<svg id="Layer_1" data-name="Layer 1" xmlns="http://www.w3.org/2000/svg" viewBox="0 0 479.83 494.11"><defs><style>.cls-1{fill:#f5f6f0;}.cls-2{fill:#111;}</style></defs><polygon class="cls-1" points="259.66 43.16 432.81 43.16 432.81 185.68 259.66 185.68 259.66 144.39 210.38 121.08 206.38 115.23 259.42 86.71 259.66 43.16"/><polygon class="cls-1" points="210.68 306.02 38.08 306.02 38.08 448.54 210.68 448.54 210.68 407.25 259.81 383.94 263.79 378.09 210.92 349.57 210.68 306.02"/><path class="cls-2" d="M111.41,156.26a68.1,68.1,0,1,1,68.09-68.1A68.17,68.17,0,0,1,111.41,156.26Zm0-121.49A53.4,53.4,0,1,0,164.8,88.16,53.45,53.45,0,0,0,111.41,34.77Z"/><path class="cls-2" d="M196,241.82H26.83a7.36,7.36,0,0,1-7.35-7.35V212.1a42.68,42.68,0,0,1,42.64-42.63h49.29v14.7H62.12A28,28,0,0,0,34.18,212.1v15H188.64v-15a28,28,0,0,0-27.94-27.93H111.41v-14.7H160.7a42.68,42.68,0,0,1,42.64,42.63v22.37A7.35,7.35,0,0,1,196,241.82Z"/><path class="cls-2" d="M368.41,388.49a68.1,68.1,0,1,1,68.1-68.1A68.18,68.18,0,0,1,368.41,388.49Zm0-121.5a53.4,53.4,0,1,0,53.4,53.4A53.45,53.45,0,0,0,368.41,267Z"/><path class="cls-2" d="M453,474.05H283.84a7.35,7.35,0,0,1-7.35-7.35V444.33a42.69,42.69,0,0,1,42.64-42.64h49.28v14.7H319.13a28,28,0,0,0-27.94,27.94v15H445.64v-15a28,28,0,0,0-27.93-27.94H368.42v-14.7h49.29a42.68,42.68,0,0,1,42.63,42.64V466.7A7.35,7.35,0,0,1,453,474.05Z"/><path class="cls-2" d="M416,197.53H271.26A26.58,26.58,0,0,1,244.72,171v-23.1l-45.63-26.35a7.35,7.35,0,0,1,0-12.73l45.63-26.35v-23a26.58,26.58,0,0,1,26.54-26.55H416a26.57,26.57,0,0,1,26.54,26.55V171A26.57,26.57,0,0,1,416,197.53ZM217.46,115.18l38.29,22.1a7.35,7.35,0,0,1,3.67,6.36V171a11.86,11.86,0,0,0,11.84,11.84H416A11.86,11.86,0,0,0,427.86,171V59.48A11.85,11.85,0,0,0,416,47.64H271.26a11.86,11.86,0,0,0-11.84,11.84V86.71a7.37,7.37,0,0,1-3.67,6.37Z"/><path class="cls-2" d="M199.77,461.18H55a26.56,26.56,0,0,1-26.54-26.54V323.13A26.57,26.57,0,0,1,55,296.59H199.77a26.58,26.58,0,0,1,26.55,26.54v23L272,372.47a7.35,7.35,0,0,1,0,12.73l-45.63,26.35v23.09A26.57,26.57,0,0,1,199.77,461.18ZM55,311.29a11.85,11.85,0,0,0-11.84,11.84V434.64A11.85,11.85,0,0,0,55,446.48H199.77a11.85,11.85,0,0,0,11.84-11.84V407.3a7.37,7.37,0,0,1,3.68-6.37l38.29-22.1-38.29-22.1a7.35,7.35,0,0,1-3.68-6.36V323.13a11.85,11.85,0,0,0-11.84-11.84Z"/><rect class="cls-2" x="75.6" y="346.81" width="54.14" height="14.7"/><rect class="cls-2" x="75.6" y="396.17" width="96.01" height="14.7"/><rect class="cls-2" x="337.24" y="77.51" width="54.14" height="14.7"/><rect class="cls-2" x="295.37" y="126.86" width="96.01" height="14.7"/></svg>