<svg id="Layer_1" data-name="Layer 1" xmlns="http://www.w3.org/2000/svg" viewBox="0 0 479.83 494.11"><defs><style>.cls-1{fill:#f5f6f0;}.cls-2{fill:#eecec6;}.cls-3{fill:#111;}</style></defs><rect class="cls-1" x="21.02" y="32.43" width="444.04" height="427.66"/><circle class="cls-2" cx="239.32" cy="277.09" r="94.46"/><path class="cls-3" d="M458.66,469.43H21.17a8.75,8.75,0,0,1-8.75-8.75V33.43a8.75,8.75,0,0,1,8.75-8.75H458.66a8.75,8.75,0,0,1,8.75,8.75V460.68A8.75,8.75,0,0,1,458.66,469.43ZM29.92,451.93h420V42.18h-420Z"/><rect class="cls-3" x="48.53" y="95.25" width="382.77" height="17.5"/><path class="cls-3" d="M166.71,80H65.07a8.75,8.75,0,1,1,0-17.5H166.71a8.75,8.75,0,1,1,0,17.5Z"/><path class="cls-3" d="M234.29,80H223.12a8.75,8.75,0,0,1,0-17.5h11.17a8.75,8.75,0,0,1,0,17.5Z"/><path class="cls-3" d="M300.18,80H289a8.75,8.75,0,0,1,0-17.5h11.17a8.75,8.75,0,1,1,0,17.5Z"/><path class="cls-3" d="M238.43,384.16A107.79,107.79,0,1,1,346.22,276.37,107.91,107.91,0,0,1,238.43,384.16Zm0-198.08a90.29,90.29,0,1,0,90.29,90.29A90.39,90.39,0,0,0,238.43,186.08Z"/><path class="cls-3" d="M247.18,319.42h-17.5V307.3a21.3,21.3,0,0,1,16-20.66,28.9,28.9,0,1,0-27.11-49,28.63,28.63,0,0,0-9,21H192a46.41,46.41,0,0,1,48.88-46.33,46.4,46.4,0,0,1,9.1,91.27,3.82,3.82,0,0,0-2.83,3.72Z"/><path class="cls-3" d="M238.44,345a8.84,8.84,0,0,1-6.21-2.54,8.7,8.7,0,0,1-2.58-6.21,8.79,8.79,0,0,1,10.5-8.57,10.89,10.89,0,0,1,1.62.52,7.9,7.9,0,0,1,2.84,1.88,7.79,7.79,0,0,1,1.1,1.32,11.62,11.62,0,0,1,.79,1.53,12.19,12.19,0,0,1,.52,1.62,10.76,10.76,0,0,1,.17,1.7,8.7,8.7,0,0,1-2.58,6.21A8.81,8.81,0,0,1,238.44,345Z"/></svg>