<svg xmlns="http://www.w3.org/2000/svg" width="56.555" height="56.557" viewBox="0 0 56.555 56.557">
  <g id="Group_404" data-name="Group 404" transform="translate(1.25 1.25)">
    <path id="Path_118" data-name="Path 118" d="M44.982,24.686a2.141,2.141,0,0,0-3.029,0l-7.86,7.86-7.857-7.86a2.142,2.142,0,1,0-3.029,3.029l7.858,7.86-7.858,7.857a2.142,2.142,0,0,0,3.029,3.029L34.093,38.6l7.855,7.857a2.141,2.141,0,0,0,3.029-3.027l-7.855-7.857,7.861-7.861A2.141,2.141,0,0,0,44.982,24.686Z" transform="translate(-7.064 -7.527)" fill="none" stroke="#383838" stroke-miterlimit="10" stroke-width="2.5"/>
    <path id="Path_119" data-name="Path 119" d="M27.032,0A27.028,27.028,0,1,0,54.055,27.031,27.063,27.063,0,0,0,27.032,0Z" fill="none" stroke="#383838" stroke-miterlimit="10" stroke-width="2.5"/>
  </g>
</svg>
