<svg xmlns="http://www.w3.org/2000/svg" width="56.725" height="60.779" viewBox="0 0 56.725 60.779">
  <g id="Group_415" data-name="Group 415" transform="translate(-31.965 -16)">
    <path id="Path_128" data-name="Path 128" d="M87.232,28.722c-2.653-3.537-8.574-4.514-16.32-2.724-.166-.4-.338-.789-.515-1.17a4.05,4.05,0,0,0-4.52-6.494A8.266,8.266,0,0,0,60.333,16a8.714,8.714,0,0,0-6.3,3.062A22.416,22.416,0,0,0,49.754,26c-7.746-1.79-13.667-.812-16.32,2.724-3.017,4.022-1.291,10.589,4.6,17.668q-.482.579-.934,1.161A4.049,4.049,0,0,0,33.1,54.256c-1.616,3.969-1.5,7.347.336,9.8,1.785,2.379,5.047,3.6,9.35,3.6a31.261,31.261,0,0,0,6.97-.876,22.412,22.412,0,0,0,4.276,6.935,8.712,8.712,0,0,0,6.3,3.063,8.714,8.714,0,0,0,6.3-3.062,22.414,22.414,0,0,0,4.276-6.934q.813.188,1.605.336a4.052,4.052,0,0,0,7.987.375c3.026-.411,5.344-1.589,6.728-3.436,3.017-4.022,1.292-10.589-4.6-17.668C88.523,39.31,90.249,32.744,87.232,28.722Zm-1.621,1.216c2.347,3.129.681,8.78-4.334,14.9a58.867,58.867,0,0,0-7.28-6.7,50.869,50.869,0,0,0-2.352-10.233c6.7-1.494,11.877-.758,13.967,2.028ZM69.669,64.377a52.3,52.3,0,0,1-6.979-2.493,71.835,71.835,0,0,0,6.386-3.725q1.334-.873,2.62-1.8a46.634,46.634,0,0,1-2.026,8.014ZM51,64.377a46.646,46.646,0,0,1-2.026-8.014q1.282.921,2.62,1.8a71.787,71.787,0,0,0,6.386,3.725A52.312,52.312,0,0,1,51,64.377ZM51,28.4a52.3,52.3,0,0,1,6.979,2.493,71.855,71.855,0,0,0-6.386,3.725q-1.334.873-2.62,1.8A46.643,46.643,0,0,1,51,28.4Zm1.7,28.062c-1.42-.929-2.8-1.907-4.119-2.911a64,64,0,0,1,0-14.328c1.316-1,2.7-1.982,4.119-2.911a69.01,69.01,0,0,1,7.635-4.333,68.972,68.972,0,0,1,7.634,4.333c1.42.929,2.8,1.907,4.119,2.911a64.008,64.008,0,0,1,0,14.328c-1.316,1-2.7,1.982-4.119,2.911A69,69,0,0,1,60.333,60.8,68.973,68.973,0,0,1,52.7,56.464Zm-6.327-4.671a54.7,54.7,0,0,1-5.651-5.4,54.751,54.751,0,0,1,5.652-5.4c-.146,1.778-.221,3.587-.221,5.4s.075,3.625.221,5.4ZM69.669,28.4A46.646,46.646,0,0,1,71.7,36.416q-1.282-.921-2.62-1.8a71.787,71.787,0,0,0-6.386-3.725A52.3,52.3,0,0,1,69.669,28.4Zm4.625,12.584a54.679,54.679,0,0,1,5.651,5.4,54.751,54.751,0,0,1-5.652,5.4c.146-1.778.221-3.587.221-5.4s-.075-3.625-.221-5.4ZM69.45,22.078a2.026,2.026,0,1,1-2.026-2.026A2.026,2.026,0,0,1,69.45,22.078Zm-9.117-4.052a6.128,6.128,0,0,1,3.9,1.564,4.049,4.049,0,0,0,4.444,6.342q.128.284.253.574a56.24,56.24,0,0,0-8.593,3.231A56.245,56.245,0,0,0,51.738,26.5C54.048,21.1,57.146,18.026,60.333,18.026ZM35.055,29.937c2.09-2.786,7.267-3.522,13.967-2.028A50.866,50.866,0,0,0,46.67,38.142a58.934,58.934,0,0,0-7.28,6.7C34.374,38.718,32.708,33.066,35.055,29.937Zm.966,19.491A2.026,2.026,0,1,1,34,51.455,2.026,2.026,0,0,1,36.021,49.429Zm-.966,13.413c-1.641-2.188-1.114-5.141-.2-7.509a4.05,4.05,0,0,0,4.024-6.753q.252-.321.515-.642a58.847,58.847,0,0,0,7.28,6.7A50.869,50.869,0,0,0,49.022,64.87C42.322,66.364,37.145,65.628,35.055,62.842ZM60.333,74.753c-3.187,0-6.285-3.074-8.595-8.479a56.226,56.226,0,0,0,8.595-3.232,56.245,56.245,0,0,0,8.595,3.232C66.618,71.68,63.519,74.753,60.333,74.753Zm16.208-6.078a2.026,2.026,0,1,1,2.026-2.026A2.026,2.026,0,0,1,76.541,68.675Zm9.07-5.833a7.658,7.658,0,0,1-5.2,2.619,4.052,4.052,0,0,0-7.621-.353q-.568-.108-1.15-.239A50.863,50.863,0,0,0,74,54.638a58.915,58.915,0,0,0,7.28-6.7c5.015,6.122,6.682,11.774,4.334,14.9Z" fill="#383838"/>
    <path id="Path_129" data-name="Path 129" d="M200.1,192a8.1,8.1,0,1,0,8.1,8.1A8.1,8.1,0,0,0,200.1,192Zm0,14.182a6.078,6.078,0,1,1,6.078-6.078A6.078,6.078,0,0,1,200.1,206.182Z" transform="translate(-139.771 -153.714)" fill="#383838"/>
  </g>
</svg>
