<svg xmlns="http://www.w3.org/2000/svg" width="53.963" height="53.96" viewBox="0 0 53.963 53.96">
  <path id="Path_127" data-name="Path 127" d="M52.866,2.639a1.579,1.579,0,0,0-1.638-1.147A32.391,32.391,0,0,0,41.215,4.057a26.982,26.982,0,0,0-33.313,42A26.987,26.987,0,0,0,52.544,18.334C55.47,12.065,52.983,3.054,52.866,2.639ZM49.017,18.154c-2.117,3.023-6.09,3.465-8.687,3.389l6.242-8.9a1.581,1.581,0,0,0-2.589-1.816l-6.238,8.895c-.957-2.416-1.891-6.29.22-9.306A10.407,10.407,0,0,1,41.7,7.331a1.582,1.582,0,0,0,.252-.131A27.9,27.9,0,0,1,50.14,4.8C50.856,8.174,51.529,14.566,49.017,18.154ZM38.068,5.895A11.884,11.884,0,0,0,35.376,8.6c-1.894,2.7-2.343,6.2-1.3,10.1a20.751,20.751,0,0,0,1.56,4.028l-.259.37a33.1,33.1,0,0,0-4.839,10.295L26.67,47.523,10.811,9.492a23.832,23.832,0,0,1,27.257-3.6ZM3.162,26.98a23.636,23.636,0,0,1,5.28-14.956L24.559,50.677a23.823,23.823,0,0,1-21.4-23.7Zm40.66,16.842a23.64,23.64,0,0,1-14.746,6.885l4.511-16.478a29.945,29.945,0,0,1,4.378-9.314l.255-.363a21.132,21.132,0,0,0,2.633.165c.537,0,1.112-.021,1.709-.074a12.674,12.674,0,0,0,7.623-3.054,23.856,23.856,0,0,1-6.363,22.233Z" fill="#383838"/>
</svg>
