<svg xmlns="http://www.w3.org/2000/svg" viewBox="0 0 44.082 56.557">
  <g id="Group_405" data-name="Group 405" transform="translate(1.25 1.25)">
    <path id="Path_120" data-name="Path 120" d="M30.949,13.4a1.964,1.964,0,0,1,2.079-2.079h0a1.964,1.964,0,0,0,2.079-2.079V5.079A1.964,1.964,0,0,0,33.028,3H20.554a1.964,1.964,0,0,0-2.079,2.079V9.237a1.964,1.964,0,0,0,2.079,2.079h0A1.964,1.964,0,0,1,22.633,13.4v9.772a8.961,8.961,0,0,1-1.663,4.99L6.624,47.7A4.434,4.434,0,0,0,6,50.2v2.7a4.17,4.17,0,0,0,4.158,4.158H43.424A4.17,4.17,0,0,0,47.582,52.9V50.2A4,4,0,0,0,46.75,47.7L32.4,28.157a8.459,8.459,0,0,1-1.663-4.99V13.4" transform="translate(-6 -3)" fill="none" stroke="#383838" stroke-linecap="round" stroke-linejoin="round" stroke-width="2.5"/>
    <line id="Line_4" data-name="Line 4" x2="32.937" transform="translate(4.434 41.389)" fill="none" stroke="#383838" stroke-linecap="round" stroke-linejoin="round" stroke-width="2.5"/>
  </g>
</svg>
